<svg xmlns="http://www.w3.org/2000/svg" viewBox="0 0 818.14 322.73"><defs><style>.cls-1{fill:#fff;}</style></defs><g id="Layer_2" data-name="Layer 2"><g id="Layer_1-2" data-name="Layer 1"><path class="cls-1" d="M282.23,236.91l0,.05a47.31,47.31,0,0,1-13.91,24.67c-5.79,5.44-12.7,9.06-19.47,10.19a28.21,28.21,0,0,1-4.61.53h-.13c-9.39-.34-16.51-5.71-20.06-15.15-3.66-9.15-3.92-22.22-.78-38.79l10.86-62.5c1.35-8-.35-14-4.76-16.92a14.7,14.7,0,0,0-9.91-1.52,21.13,21.13,0,0,0-6.86,2.46l-.1.06c-8.49,4.4-14.4,13.56-16.24,25.12a2.81,2.81,0,0,1,0,.5l-19.13,109.9s0,.05,0,.08a11.64,11.64,0,0,1-9.21,8.88,9.71,9.71,0,0,1-1.61.13,7.51,7.51,0,0,1-6.11-2.61,8,8,0,0,1-1.63-6.73l19.08-109.42a3.42,3.42,0,0,1,0-.45c2.14-12.59-5.41-17.2-12.53-17.33a19.8,19.8,0,0,0-3.14.28c-8.59,1.44-19,9.24-22.25,26.75L120.58,285s0,.08,0,.12a11.7,11.7,0,0,1-9.27,8.94,4.76,4.76,0,0,1-1.91,0,7.45,7.45,0,0,1-5.75-2.6,8.08,8.08,0,0,1-1.62-6.74l19.34-109.92c1.1-6.19.36-10.79-2.14-13.33-2-1.87-7.32-4.66-20.52-2.44a7.76,7.76,0,0,1-9.33-7.74c0-5,4.19-9.79,9.33-10.65,15.86-2.66,27.5-.49,34.6,6.48l.2.18a51.81,51.81,0,0,1,5.75-6.14.46.46,0,0,1,.07-.07,48,48,0,0,1,23-11.15,38.14,38.14,0,0,1,6-.52c8.44,0,15.8,3,21.11,8.39a49.63,49.63,0,0,1,16.43-13.91,44.21,44.21,0,0,1,13.61-4.75c8.06-1.35,15.78,0,21.69,3.68A24.17,24.17,0,0,1,251.5,136c2,5.56,2.41,12.13,1.2,20.09a.25.25,0,0,0,0,.08L241.6,218.52c-4.16,22.28-.15,30.36,1.77,32.79a5.53,5.53,0,0,0,4.26,2.37,6.34,6.34,0,0,0,1.2-.1c5.68-1,13.18-8.17,14.84-17a11.53,11.53,0,0,1,9.14-9,9.08,9.08,0,0,1,2.08-.11,7.52,7.52,0,0,1,5.93,2.81A8.14,8.14,0,0,1,282.23,236.91Z" transform="translate(-5.3 -21.53)"/><path class="cls-1" d="M366.38,190.81a5.58,5.58,0,0,0-4.63-2,8.93,8.93,0,0,0-8.73,7c-.68,3.38-2.86,6.52-6.52,9.35.15-1.17.27-2.32.38-3.43a73.13,73.13,0,0,0-1.11-23c-2.27-9.39-7.16-16.91-13.76-21.18a26.43,26.43,0,0,0-17.1-4.4c-5.15.28-10.65,2.31-17.34,6.41-9.54,6.21-17.59,16-22.64,27.56a67.6,67.6,0,0,0-3.34,8.12,1.17,1.17,0,0,0,0,.2,4.23,4.23,0,0,0-.24.84,92.72,92.72,0,0,0-4.13,18.46,68.34,68.34,0,0,0-.65,14.91c.68,9.43,4.18,17.7,10.1,23.91s14.52,9.26,23.71,8.13l1.42-.2c10.21-1.72,18.83-8.2,24.34-13.46a60.73,60.73,0,0,0,14.16-20.8l1.65-4c.44-.18.86-.38,1.26-.58s.73-.34,1.15-.51c12.9-6.11,21.14-15.35,23.2-26A6.32,6.32,0,0,0,366.38,190.81Zm-44.31,41.44-.35.39a1.88,1.88,0,0,0-.32.49l-.14.25c-.27.33-.55.67-.81,1s-.6.78-.9,1.12l-3.16,3.58a2.53,2.53,0,0,0-.42.31,3.28,3.28,0,0,0-.87.74,22.13,22.13,0,0,1-1.89,1.41,1,1,0,0,0-.17.12,21.47,21.47,0,0,1-2,1.51,2.18,2.18,0,0,0-.42.33,1.63,1.63,0,0,0-.87.43.19.19,0,0,0-.08,0,46.49,46.49,0,0,1-5.08,2.44,6.48,6.48,0,0,0-1.64.49l-3.33.56a1.78,1.78,0,0,0-.94-.06,4,4,0,0,1-1.21-.06c-.41,0-.84-.09-1.32-.11a1.87,1.87,0,0,0-.36-.09,2.35,2.35,0,0,0-.42-.1.51.51,0,0,0-.17,0,1.26,1.26,0,0,0-.58-.16l-.78-.22-.61-.16a4.33,4.33,0,0,0-.62-.38,3.24,3.24,0,0,1-.48-.31,1.48,1.48,0,0,0-.27-.16,1.26,1.26,0,0,0-.47-.21,4.85,4.85,0,0,0-.74-.46,3.24,3.24,0,0,1-.48-.31l-1.74-1.39-.06,0a1.34,1.34,0,0,0-.35-.5h0a0,0,0,0,0,0,0l-.2-.15a1.33,1.33,0,0,0-.14-.19,1.19,1.19,0,0,0-.58-.55,25.82,25.82,0,0,1-2.27-3.43.5.5,0,0,0-.1-.14,4.89,4.89,0,0,1-.46-.92c-.11-.24-.22-.49-.35-.73a.25.25,0,0,1,0-.07,1.66,1.66,0,0,0-.16-.49,7.26,7.26,0,0,1-.58-1.21,32,32,0,0,1-1.47-4.84,9.52,9.52,0,0,1-.18-1,10.89,10.89,0,0,0-.2-1.21v0a5.13,5.13,0,0,0-.22-1.72c0-1.45,0-2.78.06-4.08a.1.1,0,0,1,.05,0c6.78,4.53,16.67,7.17,27.82,7.41a73.49,73.49,0,0,0,15.31-1.07l.21,0C323.83,229.47,323.09,230.68,322.07,232.25Zm10.5-32.7a44.17,44.17,0,0,1-.42,5.08c-.06.3-.12.57-.15.8a3.33,3.33,0,0,0-.09.74,9.76,9.76,0,0,1-.38,2.21c-.24.92-.41,1.83-.57,2.7-.09.5-.18,1-.28,1.46a73.82,73.82,0,0,1-18.91,2.25c-13.25-.33-28-5.11-26.2-17.45l1.24-3.2a1.4,1.4,0,0,0,.11-.4.89.89,0,0,1,.06-.15c.16-.33.29-.65.42-.94a7.24,7.24,0,0,1,.57-1.15l.09-.19a59.75,59.75,0,0,1,3.57-6.71,1.48,1.48,0,0,0,.13-.21c.09-.19.23-.44.37-.69s.26-.46.36-.66l.5-.56a2.15,2.15,0,0,0,.34-.56l.15-.21a1,1,0,0,0,.13-.2,2,2,0,0,0,.44-.48c.19-.31.38-.58.57-.84s.43-.59.64-.93l2.13-2.41a8.65,8.65,0,0,0,1.2-1.14,2.52,2.52,0,0,0,.64-.58l.11-.09a66.61,66.61,0,0,1,5.4-4.21,2.78,2.78,0,0,0,.72-.33,1.93,1.93,0,0,0,.38-.19l0,0,.41-.21a1.46,1.46,0,0,1,.3-.16,2.49,2.49,0,0,0,.45-.18,20.72,20.72,0,0,1,3.28-1.5l.3-.05a1.75,1.75,0,0,0,.66-.26,4.26,4.26,0,0,1,.87-.21l2.11-.35a18.63,18.63,0,0,0,2.45.27l.51,0s0,0,.05,0a2.21,2.21,0,0,0,.48.1l1.06.34c.4.16.76.33,1.11.49s.91.42,1.35.58a1.39,1.39,0,0,0,.46.29l1.31,1a.91.91,0,0,0,.16.11,8,8,0,0,1,1.87,1.7,1,1,0,0,0,.38.28,1,1,0,0,0,.2.2,3.63,3.63,0,0,1,.39.4,6.13,6.13,0,0,0,.51.53c.23.37.48.72.72,1.06s.47.64.65.94a7.32,7.32,0,0,0,.7,1.43c.05.09.14.3.24.5s.23.48.38.72c.29.75.61,1.5.94,2.28.17.39.35.79.52,1.2.19.63.34,1.27.49,2s.32,1.35.52,2a8.18,8.18,0,0,0,.43,2.26v1.23a1.21,1.21,0,0,0,0,.19A51.58,51.58,0,0,1,332.57,199.55Z" transform="translate(-5.3 -21.53)"/><path class="cls-1" d="M431.25,202.31l.11-.23,0-.06v0m-15.89-47.9h0a0,0,0,0,1,0,0m-31.37,5.16,0,0m46.92,43.42a0,0,0,0,0,0,0m0,0v0" transform="translate(-5.3 -21.53)"/><path class="cls-1" d="M448.3,195.25a38.83,38.83,0,0,1-2.07,6.54c-4,11.05-9.35,20.11-16.06,26.94a61.85,61.85,0,0,1-29.78,16.83c-.89.2-1.79.38-2.68.53-19.27,3.23-37.28-7.32-42.8-25.09,0,0,0-.05,0-.07a68.44,68.44,0,0,1-2.28-20.64.28.28,0,0,1,0-.09,80.54,80.54,0,0,1,4.75-22.68c6.4-17.55,17.66-30.81,31.7-37.35a45.27,45.27,0,0,1,12.16-3.81,43.82,43.82,0,0,1,10.78-.51.06.06,0,0,0,.06,0c9.78,1,16.85,6.57,18.47,14.53,1,4.59-1.56,9.37-6.17,11.63l-.06,0a8.89,8.89,0,0,1-2.3.71c-4.11.69-7.83-1.46-8.69-5-.09-.34-.19-.65-.28-.95s-.09-.3-.15-.45a2.43,2.43,0,0,1-.16-.37,2.31,2.31,0,0,1-.25-.36,1.94,1.94,0,0,0-.13-.18c-.1-.13-.22-.29-.36-.5a2.85,2.85,0,0,0-.26-.17l-.18-.13a3.18,3.18,0,0,1-.81-.42l-.47-.16c-.25-.07-.52-.16-.82-.27-.15,0-.3-.06-.45-.09l-.37-.09-.33-.13c-.47,0-.87-.11-1.26-.17a10.43,10.43,0,0,1-1.94,0,7.4,7.4,0,0,1-.74.05h0a2.15,2.15,0,0,1-.43,0,28.57,28.57,0,0,0-3.81.46,12.3,12.3,0,0,1-2.12.57,5.13,5.13,0,0,1-.93.34,28.4,28.4,0,0,0-3.58,1.48,6.81,6.81,0,0,1-.71.36l-.08.06a.1.1,0,0,0-.05,0c-.52.32-.89.56-1.19.7a10.61,10.61,0,0,1-.92.56c-1.09.72-2.23,1.65-3.43,2.62a4.08,4.08,0,0,1-.33.25l-.16.12a4.74,4.74,0,0,1-.78.64,2.84,2.84,0,0,0-.23.25,10.29,10.29,0,0,1-1.05,1.08c-1,1.13-1.91,2.18-2.63,3.17a3.87,3.87,0,0,1-.49.57.05.05,0,0,0,0,0,3.76,3.76,0,0,1-.88,1.17l-.2.27c-.07.12-.16.32-.23.46a4.52,4.52,0,0,1-.3.51,49.83,49.83,0,0,0-4.43,8.17,3.15,3.15,0,0,1-.39,1,2.14,2.14,0,0,1-.1.22,15.2,15.2,0,0,0-.7,1.82c0,.08-.06.17-.09.26a31.85,31.85,0,0,0-1.14,3.61c-.08.28-.15.55-.23.82-.4,1.63-.81,3.1-1.21,4.51a13.68,13.68,0,0,1-.43,2.51,2.18,2.18,0,0,1,0,.25c0,.13,0,.26,0,.4a2.83,2.83,0,0,1,0,.41,66.35,66.35,0,0,0-.62,8.94c0,.76,0,1.48.11,2.23s.1,1.43.11,2.18c0,0,0,0,0,.06s.05.17.07.27a8.14,8.14,0,0,1,.35,2.5q.24.86.42,1.65c.16.68.32,1.34.5,1.85a1.72,1.72,0,0,1,.07.21c.2.7.39,1.22.59,1.78a3.63,3.63,0,0,1,.15.67c0,.07,0,.14.08.22l0,.09a3.05,3.05,0,0,1,.45,1c0,.09.06.17.09.27a22.42,22.42,0,0,0,2.06,3.2l.69.8a4.13,4.13,0,0,1,1.22,1.29l.11.09.44.35.16.13a26.62,26.62,0,0,0,3.73,2.82,2.41,2.41,0,0,1,1.14.67l.05,0a8.63,8.63,0,0,1,1.59.7,5.71,5.71,0,0,0,.84.37c.83.27,1.69.55,2.75,1h.07a4.75,4.75,0,0,1,1.26.22,1.61,1.61,0,0,1,.33.12l.09.05a24.25,24.25,0,0,0,4.93.3l.28,0a7.21,7.21,0,0,1,1.35-.06h.26l2.67-.44a6.19,6.19,0,0,1,1.1-.37l.35-.14a4.59,4.59,0,0,1,.56-.13,4.92,4.92,0,0,1,.5-.06c.87-.31,1.64-.6,2.27-.86l.14-.05a36.2,36.2,0,0,0,3.58-1.64c.44-.22.87-.45,1.32-.66a7.38,7.38,0,0,1,1.21-.68c.59-.44,1-.74,1.39-1l.23-.14a9.18,9.18,0,0,0,1.92-1.42,4.29,4.29,0,0,1,.69-.49,9.4,9.4,0,0,0,1.67-1.25,4.44,4.44,0,0,1,.84-.84c.18-.18.35-.33.49-.45a4,4,0,0,0,.33-.3,1.54,1.54,0,0,1,.17-.19,46.25,46.25,0,0,0,3.59-4.24,7.81,7.81,0,0,1,.53-.83,3.21,3.21,0,0,1,.34-.41l.15-.18.08-.09a4.34,4.34,0,0,1,.57-.87,6.55,6.55,0,0,0,.67-1c.19-.31.4-.65.65-1,1-1.9,1.81-3.61,2.6-5.48a4.12,4.12,0,0,1,.56-.92l.1-.21,0-.17,0-.06a2.33,2.33,0,0,1,.07-.25,18.92,18.92,0,0,1,.77-2.12c.12-.28.24-.58.36-.89,0,0,0-.09,0-.12a26.92,26.92,0,0,0,1.75-5.53,3.31,3.31,0,0,1,.12-.45,11.27,11.27,0,0,1,8.56-7.4,9.51,9.51,0,0,1,2.38-.11,6.72,6.72,0,0,1,5.47,3.18A7.75,7.75,0,0,1,448.3,195.25Z" transform="translate(-5.3 -21.53)"/><path class="cls-1" d="M554,201a.07.07,0,0,1,0,.05,22.34,22.34,0,0,1-2.08,5.28c-2.37,5.76-7.73,11.17-14.33,14.48a27.71,27.71,0,0,1-18.9,2.08c-6.27-1.66-11.17-6.61-13.46-13.59-2.13-7.12-1.43-15.6,2.2-26.7.76-2.17,1.53-4.23,2.29-6.31S511.2,172.1,512,170c.51-1.4,1.21-3.46,1.69-5.38l.62-2.47a5.06,5.06,0,0,1,.14-.8,1.67,1.67,0,0,0,.06-.29v-.14a1,1,0,0,1,0-.17,4.7,4.7,0,0,1,.14-1.18,36.29,36.29,0,0,0,.28-4v-2.43a4.14,4.14,0,0,1-.21-1.52s0-.13,0-.25a1.64,1.64,0,0,1,0-.22l-.12-.53a8.74,8.74,0,0,1-.25-1.45,5.09,5.09,0,0,0-.61-1.57,1.3,1.3,0,0,1-.26-.8,1.87,1.87,0,0,0-.22-.76l-.08-.2a8,8,0,0,1-.55-1,3.44,3.44,0,0,0-.42-.73l-.09-.16a6.34,6.34,0,0,0-.63-.84q-.27-.3-.54-.66a1.13,1.13,0,0,1-.56-.52,1.48,1.48,0,0,0-.37-.38l-1.59-1.28a1,1,0,0,1-.42-.14,2.82,2.82,0,0,1-.68-.31c-.27-.13-.59-.25-.91-.37l-1.15-.48h-.09a3,3,0,0,1-.85-.16l-.83-.1-1.15-.14a6.77,6.77,0,0,0-.91,0,8.06,8.06,0,0,1-1.3,0,4,4,0,0,1-.5,0,1.67,1.67,0,0,0-.3,0l-1.95.32a2.81,2.81,0,0,1-1.09.4l-.65.11c-.34.14-.66.25-.95.35a6.3,6.3,0,0,0-.75.28l-.12,0c-.77.32-1.58.65-2.18.94l-.59.37a2.42,2.42,0,0,1-.4.25,1.37,1.37,0,0,1-.29.2A29.19,29.19,0,0,0,486,144.8h0a1.94,1.94,0,0,1-.23.29,1.88,1.88,0,0,1-.39.35l-.32.22a1.79,1.79,0,0,1-.39.44,17.29,17.29,0,0,0-1.72,1.77l-.1.11a24.39,24.39,0,0,0-2.49,3.08c-.27.35-.53.72-.79,1.06l-.09.12a1.88,1.88,0,0,1-.25.24c-.11.22-.21.39-.32.57a3.81,3.81,0,0,0-.23.4,1.6,1.6,0,0,1-.29.44,8.81,8.81,0,0,0-.93,1.43c-.13.23-.27.46-.4.67a29.58,29.58,0,0,0-2.44,4.93,2.11,2.11,0,0,1-.16.34,5.17,5.17,0,0,0-.65,1.32,2.73,2.73,0,0,1-.31.78c-.19.62-.44,1.23-.7,1.88l-.37.91h0c-.62,1.93-1.27,3.91-1.9,6.06-.83,3-1.71,6.09-2.35,9.28l-8.47,48a9.37,9.37,0,0,1-7.35,7.09l-1.09.18a1.15,1.15,0,0,1-.32,0,6,6,0,0,1-5.74-7.52l7.8-44V184a1.69,1.69,0,0,1,0-.38c.22-.84.43-1.71.65-2.42L471.91,78.25A9.56,9.56,0,0,1,480.55,71h.11a6,6,0,0,1,5.74,7.52l-10.13,57.1a60.68,60.68,0,0,1,5.08-4.1c7.35-5.13,15.73-7.86,23.62-7.69a24.07,24.07,0,0,1,19.26,10c5.26,7.25,5.74,16.36,5.22,22.71a58.49,58.49,0,0,1-2.23,12c-.69,2.11-1.47,4.23-2.21,6.28s-1.52,4.11-2.16,6.08a65.36,65.36,0,0,0-3.61,12,2.4,2.4,0,0,1-.21,1v.81a1.67,1.67,0,0,1-.06.38,17,17,0,0,0,0,5,1.36,1.36,0,0,1,0,.29V201a2.61,2.61,0,0,0,0,.28l.05.08a1.48,1.48,0,0,1,.12.29c.11.41.21.88.32,1.34.07.27.13.54.2.79a1.36,1.36,0,0,1,.23.34,1.67,1.67,0,0,1,.32.66.43.43,0,0,1,0,.11l.09.13h0a1.21,1.21,0,0,1,.21.28c.06.1.12.23.19.36a2.21,2.21,0,0,0,.4.62,3,3,0,0,1,.58.68l1.08.87h0l.07,0,.2.15.21.11a1.23,1.23,0,0,1,.48.25l.12,0,.62.27a1.25,1.25,0,0,1,.52.13,5.13,5.13,0,0,1,.81.11,1.23,1.23,0,0,0,.32.06,1.69,1.69,0,0,1,.67,0,1.57,1.57,0,0,0,.84.12l.44-.07a1.48,1.48,0,0,1,.47,0,4.36,4.36,0,0,0,1.27-.08L530,209a3.54,3.54,0,0,1,1-.34l.43-.08c.06,0,.1,0,.21-.09a1.69,1.69,0,0,1,.66-.26,5.92,5.92,0,0,0,1-.44,3.61,3.61,0,0,1,.68-.42,16.31,16.31,0,0,0,2.1-1.53l1.65-1.87a2.5,2.5,0,0,1,.46-.59c.2-.53.39-.93.57-1.3a2.32,2.32,0,0,1,.28-.44,1.38,1.38,0,0,1,.06-.26,5.65,5.65,0,0,0,.36-1.47,1.65,1.65,0,0,1,.06-.43,9.57,9.57,0,0,1,9.15-6.57C552.43,193.32,554.81,197,554,201Z" transform="translate(-5.3 -21.53)"/><path class="cls-1" d="M650,169.72a9,9,0,0,0-8.74,7.31c-2.17,12.76-7.58,13.23-9.81,13.43a2.29,2.29,0,0,1-1.7-.5c-1.31-1.46-1.72-5.63-1-9.59.13-.48.36-1.74,2-10.93,1.72-9.81,5-28.56,11.33-64.55a6.23,6.23,0,0,0-6-7.39H636a9.57,9.57,0,0,0-8.65,7.33s-.6,4-1.66,10.11a30.45,30.45,0,0,0-7.19-6.84,27.82,27.82,0,0,0-17.08-4.38c-5.28.29-11,2.46-17.32,6.6-9.42,5.94-17.48,15.76-22.65,27.58a64.63,64.63,0,0,0-3.55,8.73,95,95,0,0,0-4.21,18.67,67.79,67.79,0,0,0-.66,14.92c.7,9.58,4.2,17.92,10.11,24.12a26.69,26.69,0,0,0,23.7,7.92l1.42-.2c8.19-1.38,16.79-6,24.4-13.3.86-.85,1.73-1.72,2.58-2.64a15.66,15.66,0,0,0,2.64,4.49c3,3.25,7.24,4.76,12.35,4.38l2.1-.36a26,26,0,0,0,15.64-9.16c4-4.74,6.67-11,8-18.5a.15.15,0,0,1,0-.06A6.17,6.17,0,0,0,650,169.72ZM619,150.13a41.12,41.12,0,0,1-.41,5.13,1,1,0,0,0,0,.18,1.48,1.48,0,0,1-.07.29,3.41,3.41,0,0,0-.13.59,20.12,20.12,0,0,0-.45,3.45c-1,4-1.83,7-2.75,10-.07.21-.17.43-.27.66a10.1,10.1,0,0,0-.49,1.26,1.59,1.59,0,0,0-.38.82,2.19,2.19,0,0,0-.18.46,4.65,4.65,0,0,0-.21.63c-.81,1.68-1.65,3.23-2.47,4.76a34.24,34.24,0,0,1-2.67,4.43,1.69,1.69,0,0,0-.19.32l-.14.26h0a2.79,2.79,0,0,0-.53.82L606,186.1l-.09.12a33.91,33.91,0,0,1-2.24,2.56c-.31.34-.61.66-.9,1a2.31,2.31,0,0,0-.23.18,1.63,1.63,0,0,0-.45.38l-.07.08a1.9,1.9,0,0,0-.58.44,8,8,0,0,1-1.78,1.5.66.66,0,0,0-.17.12,6.94,6.94,0,0,1-1.7,1.14,1.71,1.71,0,0,0-.67.47,6.57,6.57,0,0,1-.55.38,3.28,3.28,0,0,0-.69.43,48.3,48.3,0,0,1-5,2.18,1,1,0,0,0-.31.15l-.11,0c-.22,0-.49.12-.79.2a3.17,3.17,0,0,0-.57.14,6.31,6.31,0,0,1-2.39.39,1,1,0,0,0-.29,0l-1.12.18a17.15,17.15,0,0,1-2.46-.32,1.25,1.25,0,0,0-.39,0l-.1,0a1.49,1.49,0,0,0-.47-.07h0a1.08,1.08,0,0,0-.52-.1,9.39,9.39,0,0,1-1-.31,8.58,8.58,0,0,0-.9-.31c-.1,0-.27-.14-.42-.22l-.38-.21a1.92,1.92,0,0,0-.35-.18,1,1,0,0,0-.22-.13.43.43,0,0,0-.11-.12.9.9,0,0,0-.19-.15.83.83,0,0,0-.3-.14,3.22,3.22,0,0,1-.41-.21,6.11,6.11,0,0,0-.63-.32c-.23-.2-.43-.39-.63-.6s-.6-.59-1-.88l-.07-.05a1.21,1.21,0,0,0-.58-.64l-.06-.06a1.21,1.21,0,0,0-.74-.74,24.51,24.51,0,0,1-1.66-2.39c-.19-.3-.37-.58-.52-.79a11.19,11.19,0,0,1-.47-1c-.17-.39-.34-.8-.56-1.21a8.66,8.66,0,0,0-.67-1.39,32.56,32.56,0,0,1-1.22-3.95l-.21-.82a7.24,7.24,0,0,1-.18-1.13l0-.25a5.26,5.26,0,0,0-.08-.6c0-.15-.07-.32-.11-.48a5.46,5.46,0,0,0-.21-1.7,58.83,58.83,0,0,1,.21-6v-.15a17.06,17.06,0,0,1,.2-3.3,1.63,1.63,0,0,0,0-.31,4.8,4.8,0,0,1,.13-1.42,1.45,1.45,0,0,0,.08-.5V164c.45-2.88,1.14-5.78,1.7-8a.5.5,0,0,0,0-.12A54.57,54.57,0,0,1,572,148.3c.43-1.12.89-2.28,1.33-3.66l.16-.48a9.9,9.9,0,0,0,.52-1c.15-.31.28-.59.44-.85.05-.08.09-.16.13-.24a47.31,47.31,0,0,1,3.55-6.87c0-.07.08-.13.12-.21a2.42,2.42,0,0,1,.2-.33,7.16,7.16,0,0,0,.6-1.1l.42-.47a.35.35,0,0,0,.08-.1l.15-.16a.64.64,0,0,0,.1-.13,1.89,1.89,0,0,0,.48-.74l.06-.08a1.57,1.57,0,0,0,.2-.25,9.53,9.53,0,0,1,1.12-1.44c.31-.35.59-.7.88-1a12.67,12.67,0,0,1,1.34-1.49,1.29,1.29,0,0,0,.16-.17,7.18,7.18,0,0,1,.91-.92,2.18,2.18,0,0,0,.4-.35l.57-.65a38.9,38.9,0,0,1,5.49-4.05l.18-.13a1.79,1.79,0,0,0,.54-.23,7.27,7.27,0,0,1,.64-.37c.28-.16.57-.32.81-.47a18.56,18.56,0,0,1,1.76-.8c.5-.21,1-.44,1.56-.69l1.72-.29a1.41,1.41,0,0,0,.48-.15,1,1,0,0,1,.8-.13,1.24,1.24,0,0,0,.47,0l.51-.08a10.08,10.08,0,0,1,2.51.26,1.52,1.52,0,0,0,.53.06l.13,0,1.3.42.11,0a8.48,8.48,0,0,1,2.42,1,2.12,2.12,0,0,0,.6.27l1,.84a16.93,16.93,0,0,1,2,1.8l.14.13a1.75,1.75,0,0,0,.26.18,1.37,1.37,0,0,0,.17.17,3.41,3.41,0,0,1,.57.66l.28.37c.24.41.52.79.79,1.17s.5.69.69,1a7.13,7.13,0,0,1,.56,1.17,1,1,0,0,0,.08.18c0,.08.12.23.2.38l.37.65c.43,1.19,1,2.35,1.53,3.49.22.7.38,1.44.55,2.21s.27,1.26.45,1.94a10.72,10.72,0,0,0,.43,2.22v1.07a1.23,1.23,0,0,0,0,.19A51,51,0,0,1,619,150.13Z" transform="translate(-5.3 -21.53)"/><path class="cls-1" d="M405.26,273.24a5.65,5.65,0,0,1,1.65,4.34c0,1.87-.85,2.92-2.53,3.14a73.14,73.14,0,0,0-10.89,2.86,3.69,3.69,0,0,0-2.2,2,50.07,50.07,0,0,0-2,5.34c-.59,1.86-1.23,4.32-1.93,7.36s-1.19,5.08-1.48,6.11a246.21,246.21,0,0,0-5.72,29.7q-.66,5.28-4.95,4.29a3.68,3.68,0,0,1-1.21-.71,3.12,3.12,0,0,1-1-1.16,10,10,0,0,1-.72-1.93,8.53,8.53,0,0,1-.22-2.41c0-.92.08-1.6.11-2s.15-1.25.33-2.42a21,21,0,0,0,.28-2.09q.33-2.42,3.08-14.85c.22-1.1.69-3.23,1.43-6.38s1.28-5.61,1.65-7.37c.15-.81.4-2.22.77-4.24s.58-3.31.66-3.9a.56.56,0,0,0-.17-.61.56.56,0,0,0-.6-.16l-1.1.33a43.86,43.86,0,0,1-5.67,1.59,36.05,36.05,0,0,0-6,1.82,10,10,0,0,0-1.6.93c-.69.48-1.08.76-1.15.83a2.15,2.15,0,0,1-2.2.11,4.09,4.09,0,0,1-1.76-1.76,7.22,7.22,0,0,1-.94-3.08,3.65,3.65,0,0,1,.72-2.42,8.17,8.17,0,0,1,1.81-1.71,12.86,12.86,0,0,1,2.75-1.32q1.71-.6,3-1c.88-.25,1.91-.53,3.08-.82l2.64-.66q2.85-.88,9.35-3.14c4.33-1.5,7.73-2.58,10.23-3.24.66-.15,1.78-.5,3.35-1.05s2.77-.91,3.58-1.1a10.26,10.26,0,0,1,2.86-.16A4.24,4.24,0,0,1,405.26,273.24Zm-2.09,51.7q-.1-3.4,2.75-13.64c.59-2.2,1.06-3.89,1.43-5.06l3-10.12q.76-2.87,2.42-3.63c1.61-.59,3-.07,4.07,1.54a7.12,7.12,0,0,1,.77,4.29,25.49,25.49,0,0,1-1.43,6.38c-.15.51.07.77.66.77a58.33,58.33,0,0,0,7-1.16,61.3,61.3,0,0,0,7.26-1.7,2.31,2.31,0,0,0,1.54-1.65c.07-.37.57-2.81,1.48-7.31a75.34,75.34,0,0,1,2-8.53,2.75,2.75,0,0,1,2.2-1.87,3,3,0,0,1,2.86.88c1.61,1.61,2.13,3.34,1.54,5.17q-1.32,4.72-7.92,34.32a55.23,55.23,0,0,0-1.32,8.25,1.72,1.72,0,0,1-1.43,1.65,2.31,2.31,0,0,1-2.2-.44,6.24,6.24,0,0,1-2.09-2.31,6.81,6.81,0,0,1-.66-3.08,21.45,21.45,0,0,1,.16-2.92c.11-.77.35-1.9.72-3.41s.59-2.51.66-3,.27-1.43.6-2.75.57-2.38.72-3.19a.56.56,0,0,0-.17-.61.56.56,0,0,0-.6-.16l-8.69,2c-.51.15-1.6.38-3.25.71s-2.91.61-3.79.83a1.44,1.44,0,0,0-1.1,1.21A94.65,94.65,0,0,0,410,328.68c-.15,1.83-.73,2.93-1.76,3.3a3.17,3.17,0,0,1-2.09-.33,4.63,4.63,0,0,1-1.43-1.32A10.86,10.86,0,0,1,403.17,324.94Z" transform="translate(-5.3 -21.53)"/><path class="cls-1" d="M458.17,333.41a11.63,11.63,0,0,1-3.69-6.22,18,18,0,0,1-.05-7q.66-3.52,2.09-12t2.09-17.1c0-.37-.3-.73-.88-1.1a7.86,7.86,0,0,1-2.53-2.15,8,8,0,0,1-1.6-2.91,1.94,1.94,0,0,1,1.16-2.31,20.92,20.92,0,0,1,4-.88c.36,0,.62-.22.77-.66q2.31-6.49,6.49-.55a2.16,2.16,0,0,0,1,.44,96.81,96.81,0,0,0,11.38-2.2q8.53-2,11.17-2.42a4,4,0,0,1,2.86,1.26,7.34,7.34,0,0,1,2.09,2.92q1.32,3.74-3,4.29a113.61,113.61,0,0,0-13.09,2.2q-7.49,1.65-11.44,2.2a1.3,1.3,0,0,0-.77.77q0,1.32-.94,7.86c-.62,4.37-1,7.17-1,8.42a1,1,0,0,0,.27.71.56.56,0,0,0,.61.17q2.75-.33,7.15-1.21t6.49-1.21a3.61,3.61,0,0,1,2.69,1,7,7,0,0,1,1.93,2.75,3.76,3.76,0,0,1,.6,2.64,1.74,1.74,0,0,1-1.48,1.76l-18.37,3.08a1,1,0,0,0-1.1.77,32.59,32.59,0,0,0-1.21,7.48,2.45,2.45,0,0,0,1.15,2,2.25,2.25,0,0,0,2.26.11l3.13-1.27c1.36-.55,2.51-1,3.47-1.43a32,32,0,0,1,3.3-1.15,10,10,0,0,1,3.13-.5,7.85,7.85,0,0,1,2.42.5,3.17,3.17,0,0,1,1.76,1.87,9.23,9.23,0,0,1,.61,3.63,1.33,1.33,0,0,1-.28.82,2.32,2.32,0,0,1-.77.67,6.26,6.26,0,0,1-.93.43l-1.27.5c-.55.22-.93.37-1.15.44-.74.29-1.74.77-3,1.43a30.85,30.85,0,0,1-2.8,1.32Q462.9,337.92,458.17,333.41Z" transform="translate(-5.3 -21.53)"/><path class="cls-1" d="M537.59,336.38q1.65-6,4.07-23.6t5.94-26.45a1.74,1.74,0,0,1,1.87-1.05,3.89,3.89,0,0,1,2.2,1.16,4.47,4.47,0,0,1,1.43,2.8,7.2,7.2,0,0,1-.22,3.08c-.3.92-.61,2-.94,3.19a11.78,11.78,0,0,0-.49,2.92.41.41,0,0,0,.11.33c.29.22.47.18.55-.11l3.24-7.37q2.8-6.37,5-10.95a73.54,73.54,0,0,1,6.1-10.12,34.24,34.24,0,0,1,7.76-8.3,7.27,7.27,0,0,1,6-1.26,7.14,7.14,0,0,1,5,3.68,20.19,20.19,0,0,1,1.43,10,32.72,32.72,0,0,1-2.53,9.79,40.34,40.34,0,0,1-5.78,9,89.77,89.77,0,0,1-7.15,8q-3.13,3-8.25,7.59t-5.88,5.34a6.8,6.8,0,0,0-1.93,3.68,6,6,0,0,0,.72,4.13q2,3.4,6.82,4.95a23.91,23.91,0,0,0,6.82.88,3.39,3.39,0,0,1,2.58,1.32,5.5,5.5,0,0,1,1.38,2.86q.66,3.74-3.3,4.29-5.28.66-12.54-3.52-7.49-4.39-7.48-8.8c0-.15,0-.22-.11-.22a.31.31,0,0,0-.44.22q-4.41,11.45-6.05,17.38a2,2,0,0,1-1.32,1.43,2.18,2.18,0,0,1-2-.33Q536.7,339.68,537.59,336.38Zm22-35.53a.48.48,0,0,0,.66-.11l3.13-3.14,3.41-3.41c.55-.54,1.56-1.61,3-3.19a44.82,44.82,0,0,0,3.13-3.63c.62-.84,1.47-2,2.53-3.57a27.48,27.48,0,0,0,2.37-4c.51-1.13,1-2.45,1.54-4a25.58,25.58,0,0,0,1.1-4.45,1.42,1.42,0,0,0-.77-1.65,1.59,1.59,0,0,0-1.87.11,27.69,27.69,0,0,0-4.51,4.12,32.68,32.68,0,0,0-3.91,5.56c-1.21,2.13-2.18,3.92-2.91,5.39s-1.71,3.56-2.92,6.27-2.07,4.58-2.58,5.61c-.08.15-.3.64-.66,1.48s-.66,1.49-.88,1.93S559.37,300.7,559.59,300.85Z" transform="translate(-5.3 -21.53)"/><path class="cls-1" d="M588.84,341.33a5.36,5.36,0,0,1-2.14-3.85,16.56,16.56,0,0,1,.77-6.71q1.15-4.06,2.2-6.93t3-7.59a18.52,18.52,0,0,0,.77-1.87,2.24,2.24,0,0,0,.11-1.21q-1.1-2.87,2-5.94a3,3,0,0,0,.77-1q7.27-20.89,8.8-25c.08-.29.3-.94.67-1.93s.62-1.68.76-2.09.41-1,.77-1.92a20.43,20.43,0,0,1,1-2.09c.3-.51.66-1.1,1.11-1.76a10.22,10.22,0,0,1,1.31-1.65q2.76-2.54,5.23.05a11.79,11.79,0,0,1,3.13,6,48.85,48.85,0,0,1,.77,6.27c.15,2.27.22,4.22.22,5.83s0,3.74-.11,6.38-.11,4.66-.11,6.05c0,.44.19.59.56.44a14.73,14.73,0,0,0,1.64-.39,6.55,6.55,0,0,1,1.32-.27,3.82,3.82,0,0,1,3.19,1.43,5.63,5.63,0,0,1,1.82,3.41,2.52,2.52,0,0,1-1.6,2.64c-.44.15-2.67.55-6.71,1.21-.51.15-.77.44-.77.88q0,10.89-2.42,32.67a1.77,1.77,0,0,1-1.26,1.7,2.41,2.41,0,0,1-2.25-.38q-3.86-2.31-3.53-5.06,2.53-21,2.53-27.83c0-.51-.29-.7-.88-.55a58.91,58.91,0,0,0-8.69,1.87.63.63,0,0,0-.43.44q-.55,1.75-3.58,9.95t-3.47,9.85c-.14.59-.31,1.41-.49,2.48s-.31,1.74-.38,2a9.21,9.21,0,0,1-2,4.18Q591,342.76,588.84,341.33Zm23.87-40.15c0-2.05.1-5.08.28-9.08s.27-7,.27-9a.36.36,0,0,0-.33-.39c-.22,0-.36,0-.43.17q-3.42,8.91-6.94,19a.8.8,0,0,0,.11.71.46.46,0,0,0,.55.17c.59-.15,1.21-.28,1.87-.39s1.4-.21,2.2-.33l1.88-.27Q612.71,301.84,612.71,301.18Z" transform="translate(-5.3 -21.53)"/><path class="cls-1" d="M644.5,334.62q-7.69-7.92-6.93-18.32a44.17,44.17,0,0,1,6.93-20.24q6.16-9.84,14.41-14.79c1.62-.95,3.19-.26,4.73,2.09s1.58,4.18.11,5.5a16.56,16.56,0,0,1-1.92,1.54c-.92.66-1.6,1.17-2,1.54a34.07,34.07,0,0,0-4,3.74q-5.82,6.49-7.92,11.66-3.4,9.35-2.86,14.19t3.85,6.27c.74.37,2.09.24,4.07-.39s3.41-.34,4.29.83c1.91,1.83,2.79,3.43,2.64,4.78a4.25,4.25,0,0,1-2.14,3.25A10.4,10.4,0,0,1,653,337.7,10.86,10.86,0,0,1,644.5,334.62Zm26.84-30.91c.37-.88.9-2,1.6-3.52a18.26,18.26,0,0,1,2.14-3.58,22.79,22.79,0,0,1,2.37-2.53,3.26,3.26,0,0,1,2.64-1,3.93,3.93,0,0,1,2.58,1.82,7,7,0,0,1,1.38,2.69,3.37,3.37,0,0,1-.5,2.81,39.46,39.46,0,0,0-7.31,12,37.56,37.56,0,0,0-2.7,13.81,1.78,1.78,0,0,0,1,1.65,1.71,1.71,0,0,0,1.87,0,20.55,20.55,0,0,0,2.09-1.6,9.93,9.93,0,0,1,2.59-1.65,2.94,2.94,0,0,1,2.14.06,5.91,5.91,0,0,1,3.14,3.35,3.48,3.48,0,0,1-.61,4.13q-8,6.82-13.09,3.3-10.67-7.59-2.42-29C670.61,305.51,671,304.59,671.34,303.71Z" transform="translate(-5.3 -21.53)"/><path class="cls-1" d="M693.45,323.84a33.19,33.19,0,0,1,.88-10,34.23,34.23,0,0,1,3.8-9.46q2.58-4.39,5.66-5.61a.83.83,0,0,0,.55-1.1,4.53,4.53,0,0,1,.88-4.68A8,8,0,0,1,710,290.4q5.07-1.09,9.79,3.63a3.45,3.45,0,0,0,1.87.88,44,44,0,0,0,17.82-1.21,3.86,3.86,0,0,0,1.54-.88,3.9,3.9,0,0,1,2.42-1.05,2.56,2.56,0,0,1,2.42.94,1.74,1.74,0,0,0,1.32.77q8.25,1.09,10.56,11.33A16.83,16.83,0,0,1,755,318.4a23.93,23.93,0,0,1-11.28,9.29q-5.51,2.21-8.8.16a11,11,0,0,1-4.67-6.05,20.9,20.9,0,0,1-.88-9,21.29,21.29,0,0,1,2.58-8.58q.1-.11,0-.33a.34.34,0,0,0-.33-.22,17.63,17.63,0,0,1-6.49-.11.39.39,0,0,0-.44.44,19.37,19.37,0,0,1-2.09,7.59,47.78,47.78,0,0,1-5.39,9,57.9,57.9,0,0,1-7.2,8,16.61,16.61,0,0,1-7.54,4.35A7,7,0,0,1,696,331.1Q693.78,328.79,693.45,323.84Zm7.15-.44a1.81,1.81,0,0,0,2.09,0,33.94,33.94,0,0,0,10.12-8.86c3.3-4.06,5.28-7.79,5.94-11.16.15-.37,0-.62-.55-.77a45.18,45.18,0,0,0-6.82-.55c-.44,0-.59.18-.44.55a4.34,4.34,0,0,1-.33,3.79c-.66.92-1.76,1.12-3.3.61a1.05,1.05,0,0,0-1.1.22,13,13,0,0,0-4.84,5.94,20.46,20.46,0,0,0-1.65,8.14A2.44,2.44,0,0,0,700.6,323.4Zm37.18-2.53c2,.37,4.36-.46,7.15-2.47a19,19,0,0,0,5.94-6.44,10.35,10.35,0,0,0,1.32-6.38q-.44-4.06-4.73-4.07a6.58,6.58,0,0,0-2.86.93,9.77,9.77,0,0,1-2.42,1.05,3.26,3.26,0,0,0-1.43,1,19.43,19.43,0,0,0-4.4,6.43c-1.25,2.75-1.72,5-1.43,6.66Q735.47,320.44,737.78,320.87Z" transform="translate(-5.3 -21.53)"/><path class="cls-1" d="M768.09,318.83a13,13,0,0,1,.38-4.84c.44-1.72.86-3.17,1.27-4.34s1-2.75,1.92-4.73c.07-.22.42-1.06,1.05-2.53s1.13-2.66,1.54-3.58,1-2.16,1.7-3.74a33.15,33.15,0,0,1,2-3.84c.62-1,1.3-2,2-3a7.12,7.12,0,0,1,2.2-2.15,2.55,2.55,0,0,1,2.09-.27,8.81,8.81,0,0,1,3.36,2,9,9,0,0,1,1.81,2.2q.43.89,1.32,3a75.65,75.65,0,0,1,2.26,8.74,109.75,109.75,0,0,0,3.35,12.21c1.25,3.63,2.71,5.93,4.4,6.88q1.76,1,3.69-1.32a21.18,21.18,0,0,0,3.24-5.5q1.43-3.4,4.73-18.37T816,280a2.39,2.39,0,0,1,1.76-1.76,3.45,3.45,0,0,1,2.42,0,5.9,5.9,0,0,1,2.53,2.58,5.3,5.3,0,0,1,.66,3.58q-.43,2.08-1.43,7.31T820.28,300c-.44,2.09-1,4.59-1.81,7.48s-1.53,5.45-2.26,7.65q-3.08,8.69-7,12.54c-2.64,2.57-5.1,3.68-7.37,3.35a11.5,11.5,0,0,1-6.6-3.9q-6-6.6-9.68-27.5a.6.6,0,0,0-.55-.49.61.61,0,0,0-.66.38,86.76,86.76,0,0,0-7.37,19.25,5.91,5.91,0,0,0,0,3.19,2.88,2.88,0,0,1,.22,1.1c0,1.54-.84,2.42-2.53,2.64a4.55,4.55,0,0,1-5.06-2.53A11.2,11.2,0,0,1,768.09,318.83Z" transform="translate(-5.3 -21.53)"/><path class="cls-1" d="M26.4,87.67a96.28,96.28,0,0,1,1.1-14.85q1.21-8.58.66-12.21a.92.92,0,0,0-.72-.82,1.22,1.22,0,0,0-1.15.27q-2.74,2.74-7.15,11.61a82.78,82.78,0,0,1-6.93,12.15c-1,1.32-2.51,1.26-4.45-.16S5,80.74,5.39,79.2q1.65-7.92,3.52-23t2.2-17.66q1.55-11.33,3.3-15.4c.73-1.61,2.13-2,4.18-1.1a3.43,3.43,0,0,1,2.31,2.86,16.43,16.43,0,0,1-.55,5.28c-.22,1.61-.72,4.42-1.49,8.41S17.51,46,17.1,49a63.41,63.41,0,0,0-.6,8.58.61.61,0,0,0,.55.66.64.64,0,0,0,.77-.33A13.7,13.7,0,0,1,23.6,51.7,6.23,6.23,0,0,1,30,52c2,1.29,3.56,3.73,4.51,7.32a29.78,29.78,0,0,1,.82,5.83q.16,3.19.06,5.22c-.07,1.36-.26,3.41-.55,6.16s-.48,4.68-.55,5.78a21.79,21.79,0,0,0,0,4.13c.1,1.42.16,2.78.16,4.06a17.48,17.48,0,0,1-.27,3.31,2.47,2.47,0,0,1-1.27,1.86,3.31,3.31,0,0,1-2.75-.27Q26.51,93.95,26.4,87.67Z" transform="translate(-5.3 -21.53)"/><path class="cls-1" d="M44.22,77.11q3.18-25.63,5.17-29.37a2.64,2.64,0,0,1,1.7-1.43,2.71,2.71,0,0,1,2.15.22q3.73,2.2,1.65,10.89Q50.71,76,51,85.14a2.51,2.51,0,0,1-.88,2.25,1.7,1.7,0,0,1-2.2.06Q43.55,84.81,44.22,77.11ZM57.64,30.47a6.08,6.08,0,0,1,1.43,4.07,2.33,2.33,0,0,1-1.16,2.2,3.09,3.09,0,0,1-2.69.11,2.24,2.24,0,0,1-.77-.33,6.11,6.11,0,0,1-2.75-5.06c-.15-2.13.62-3.15,2.31-3.08A4.85,4.85,0,0,1,57.64,30.47Z" transform="translate(-5.3 -21.53)"/><path class="cls-1" d="M65,93.28a8.49,8.49,0,0,1,.82-1.7A15.24,15.24,0,0,0,67,89a9.86,9.86,0,0,0,.44-3.08,9,9,0,0,0-.72-2.53,5.07,5.07,0,0,1-.44-2.92c.18-.69.9-1,2.15-1q3.08,0,4.29,3.52a18.25,18.25,0,0,1,.88,7.48,13.59,13.59,0,0,1-2,6.76,3.07,3.07,0,0,1-4.34,1.16Q63.79,96.59,65,93.28Z" transform="translate(-5.3 -21.53)"/><path class="cls-1" d="M123.31,77.11q3.18-25.63,5.17-29.37a2.64,2.64,0,0,1,1.7-1.43,2.69,2.69,0,0,1,2.14.22q3.75,2.2,1.66,10.89Q129.8,76,130.13,85.14a2.52,2.52,0,0,1-.89,2.25,1.69,1.69,0,0,1-2.19.06Q122.64,84.81,123.31,77.11Zm13.42-46.64a6,6,0,0,1,1.42,4.07,2.32,2.32,0,0,1-1.15,2.2,3.09,3.09,0,0,1-2.69.11,2.39,2.39,0,0,1-.78-.33,6.16,6.16,0,0,1-2.75-5.06c-.14-2.13.63-3.15,2.32-3.08A4.85,4.85,0,0,1,136.73,30.47Z" transform="translate(-5.3 -21.53)"/><path class="cls-1" d="M152.67,41.25c-1.32,2.13-2.86,3.26-4.62,3.41-1.39.15-2.09-.59-2.09-2.2a4.67,4.67,0,0,1,.44-2.09,13.49,13.49,0,0,0,.66-8.8,4.64,4.64,0,0,1,1-5.06q2.87-2.86,5.17-1,1.65,1.32,1.87,4.62A17,17,0,0,1,152.67,41.25Z" transform="translate(-5.3 -21.53)"/><path class="cls-1" d="M194.69,87.23q.66-6,1.49-15.07t-.83-14.74c-.22-.51-.51-.66-.88-.44a9.47,9.47,0,0,0-2,3c-.66,1.39-1.28,2.9-1.87,4.51s-1.21,3.36-1.87,5.22-1.32,3.58-2,5.12a23.19,23.19,0,0,1-2.2,4.07A5.08,5.08,0,0,1,182.15,81a3.5,3.5,0,0,1-2.86-.6Q177.42,79,177,75.35a36.21,36.21,0,0,1-.06-7.21,29.5,29.5,0,0,0-.22-7.2.38.38,0,0,0-.38-.22.39.39,0,0,0-.39.22q-1.43,3.63-4.18,12.1T167.19,85.8q-1.09,2.53-3.3,1.54a4.38,4.38,0,0,1-2.64-3.41,3.45,3.45,0,0,1-.11-1,50.9,50.9,0,0,1,.77-15.07q2-9.68,6.05-5.94c.29.15.44.15.44,0q1.65-6.16,4-9.18t4.4-2.15q8,3.4,6.27,15.95a.45.45,0,0,0,.11.33c.29.15.48.11.55-.11A29.69,29.69,0,0,0,185,63.53c.51-1.44,1-2.77,1.49-4s1-2.6,1.59-4.07A22.42,22.42,0,0,1,190,51.7a12.48,12.48,0,0,1,2.15-2.58,3.42,3.42,0,0,1,2.47-1,4.65,4.65,0,0,1,2.75,1.27c.15.15.53.49,1.16,1A15.72,15.72,0,0,1,200,51.92a6.73,6.73,0,0,1,.88,1.32,28.79,28.79,0,0,1,1.87,8.09A53.15,53.15,0,0,1,203,69c-.11,2-.39,5-.83,8.74s-.7,6.4-.77,7.87q0,11.22.77,13.09a2.85,2.85,0,0,0,.28.88,6.42,6.42,0,0,1,.33.94c0,.18.09.47.16.88a2,2,0,0,1,0,.93l-.27.82a1.68,1.68,0,0,1-.61.83c-.66.59-1.5.51-2.53-.22a7.84,7.84,0,0,1-2.31-2.42Q194,93.29,194.69,87.23Z" transform="translate(-5.3 -21.53)"/></g></g></svg>