<svg xmlns="http://www.w3.org/2000/svg" viewBox="0 0 825.67 380.71"><defs><style>.cls-1,.cls-2{fill:#fff;}.cls-2{font-size:110px;font-family:JuniperBay-Regular, Juniper Bay;}</style></defs><g id="Layer_2" data-name="Layer 2"><g id="Layer_1-2" data-name="Layer 1"><path class="cls-1" d="M282.23,236.91l0,.05a47.31,47.31,0,0,1-13.91,24.67c-5.79,5.44-12.7,9.06-19.47,10.19a28.21,28.21,0,0,1-4.61.53h-.13c-9.39-.34-16.51-5.71-20.06-15.15-3.66-9.15-3.92-22.22-.78-38.79l10.86-62.5c1.35-8-.35-14-4.76-16.92a14.7,14.7,0,0,0-9.91-1.52,21.13,21.13,0,0,0-6.86,2.46l-.1.06c-8.49,4.4-14.4,13.56-16.24,25.12a2.81,2.81,0,0,1,0,.5l-19.13,109.9s0,.05,0,.08a11.64,11.64,0,0,1-9.21,8.88,9.71,9.71,0,0,1-1.61.13,7.51,7.51,0,0,1-6.11-2.61,8,8,0,0,1-1.63-6.73l19.08-109.42a3.42,3.42,0,0,1,0-.45c2.14-12.59-5.41-17.2-12.53-17.33a19.8,19.8,0,0,0-3.14.28c-8.59,1.44-19,9.24-22.25,26.75L120.58,285s0,.08,0,.12a11.7,11.7,0,0,1-9.27,8.94,4.76,4.76,0,0,1-1.91,0,7.45,7.45,0,0,1-5.75-2.6,8.08,8.08,0,0,1-1.62-6.74l19.34-109.92c1.1-6.19.36-10.79-2.14-13.33-2-1.87-7.32-4.66-20.52-2.44a7.76,7.76,0,0,1-9.33-7.74c0-5,4.19-9.79,9.33-10.65,15.86-2.66,27.5-.49,34.6,6.48l.2.18a51.81,51.81,0,0,1,5.75-6.14.46.46,0,0,1,.07-.07,48,48,0,0,1,23-11.15,38.14,38.14,0,0,1,6-.52c8.44,0,15.8,3,21.11,8.39a49.63,49.63,0,0,1,16.43-13.91,44.21,44.21,0,0,1,13.61-4.75c8.06-1.35,15.78,0,21.69,3.68A24.17,24.17,0,0,1,251.5,136c2,5.56,2.41,12.13,1.2,20.09a.25.25,0,0,0,0,.08L241.6,218.52c-4.16,22.28-.15,30.36,1.77,32.79a5.53,5.53,0,0,0,4.26,2.37,6.34,6.34,0,0,0,1.2-.1c5.68-1,13.18-8.17,14.84-17a11.53,11.53,0,0,1,9.14-9,9.08,9.08,0,0,1,2.08-.11,7.52,7.52,0,0,1,5.93,2.81A8.14,8.14,0,0,1,282.23,236.91Z"/><path class="cls-1" d="M366.38,190.81a5.58,5.58,0,0,0-4.63-2,8.93,8.93,0,0,0-8.73,7c-.68,3.38-2.86,6.52-6.52,9.35.15-1.17.27-2.32.38-3.43a73.13,73.13,0,0,0-1.11-23c-2.27-9.39-7.16-16.91-13.76-21.18a26.43,26.43,0,0,0-17.1-4.4c-5.15.28-10.65,2.31-17.34,6.41-9.54,6.21-17.59,16-22.64,27.56a67.6,67.6,0,0,0-3.34,8.12,1.17,1.17,0,0,0,0,.2,4.23,4.23,0,0,0-.24.84,92.72,92.72,0,0,0-4.13,18.46,68.34,68.34,0,0,0-.65,14.91c.68,9.43,4.18,17.7,10.1,23.91s14.52,9.26,23.71,8.13l1.42-.2c10.21-1.72,18.83-8.2,24.34-13.46a60.73,60.73,0,0,0,14.16-20.8l1.65-4c.44-.18.86-.38,1.26-.58s.73-.34,1.15-.51c12.9-6.11,21.14-15.35,23.2-26A6.32,6.32,0,0,0,366.38,190.81Zm-44.31,41.44-.35.39a1.88,1.88,0,0,0-.32.49l-.14.25c-.27.33-.55.67-.81,1s-.6.78-.9,1.12l-3.16,3.58a2.53,2.53,0,0,0-.42.31,3.28,3.28,0,0,0-.87.74,22.13,22.13,0,0,1-1.89,1.41,1,1,0,0,0-.17.12,21.47,21.47,0,0,1-2,1.51,2.18,2.18,0,0,0-.42.33,1.63,1.63,0,0,0-.87.43.19.19,0,0,0-.08,0,46.49,46.49,0,0,1-5.08,2.44,6.48,6.48,0,0,0-1.64.49l-3.33.56a1.78,1.78,0,0,0-.94-.06,4,4,0,0,1-1.21-.06c-.41,0-.84-.09-1.32-.11a1.87,1.87,0,0,0-.36-.09,2.35,2.35,0,0,0-.42-.1.51.51,0,0,0-.17,0,1.26,1.26,0,0,0-.58-.16l-.78-.22-.61-.16a4.33,4.33,0,0,0-.62-.38,3.24,3.24,0,0,1-.48-.31,1.48,1.48,0,0,0-.27-.16,1.26,1.26,0,0,0-.47-.21,4.85,4.85,0,0,0-.74-.46,3.24,3.24,0,0,1-.48-.31l-1.74-1.39-.06,0a1.34,1.34,0,0,0-.35-.5h0a0,0,0,0,0,0,0l-.2-.15a1.33,1.33,0,0,0-.14-.19,1.19,1.19,0,0,0-.58-.55,25.82,25.82,0,0,1-2.27-3.43.5.5,0,0,0-.1-.14,4.89,4.89,0,0,1-.46-.92c-.11-.24-.22-.49-.35-.73a.25.25,0,0,1,0-.07,1.66,1.66,0,0,0-.16-.49,7.26,7.26,0,0,1-.58-1.21,32,32,0,0,1-1.47-4.84,9.52,9.52,0,0,1-.18-1,10.89,10.89,0,0,0-.2-1.21v0a5.13,5.13,0,0,0-.22-1.72c0-1.45,0-2.78.06-4.08a.1.1,0,0,1,.05,0c6.78,4.53,16.67,7.17,27.82,7.41a73.49,73.49,0,0,0,15.31-1.07l.21,0C323.83,229.47,323.09,230.68,322.07,232.25Zm10.5-32.7a44.17,44.17,0,0,1-.42,5.08c-.06.3-.12.57-.15.8a3.33,3.33,0,0,0-.09.74,9.76,9.76,0,0,1-.38,2.21c-.24.92-.41,1.83-.57,2.7-.09.5-.18,1-.28,1.46a73.82,73.82,0,0,1-18.91,2.25c-13.25-.33-28-5.11-26.2-17.45l1.24-3.2a1.4,1.4,0,0,0,.11-.4.89.89,0,0,1,.06-.15c.16-.33.29-.65.42-.94a7.24,7.24,0,0,1,.57-1.15l.09-.19a59.75,59.75,0,0,1,3.57-6.71,1.48,1.48,0,0,0,.13-.21c.09-.19.23-.44.37-.69s.26-.46.36-.66l.5-.56a2.15,2.15,0,0,0,.34-.56l.15-.21a1,1,0,0,0,.13-.2,2,2,0,0,0,.44-.48c.19-.31.38-.58.57-.84s.43-.59.64-.93l2.13-2.41a8.65,8.65,0,0,0,1.2-1.14,2.52,2.52,0,0,0,.64-.58l.11-.09a66.61,66.61,0,0,1,5.4-4.21,2.78,2.78,0,0,0,.72-.33,1.93,1.93,0,0,0,.38-.19l0,0,.41-.21a1.46,1.46,0,0,1,.3-.16,2.49,2.49,0,0,0,.45-.18,20.72,20.72,0,0,1,3.28-1.5l.3-.05a1.75,1.75,0,0,0,.66-.26,4.26,4.26,0,0,1,.87-.21l2.11-.35a18.63,18.63,0,0,0,2.45.27l.51,0s0,0,.05,0a2.21,2.21,0,0,0,.48.1l1.06.34c.4.16.76.33,1.11.49s.91.42,1.35.58a1.39,1.39,0,0,0,.46.29l1.31,1a.91.91,0,0,0,.16.11,8,8,0,0,1,1.87,1.7,1,1,0,0,0,.38.28,1,1,0,0,0,.2.2,3.63,3.63,0,0,1,.39.4,6.13,6.13,0,0,0,.51.53c.23.37.48.72.72,1.06s.47.64.65.94a7.32,7.32,0,0,0,.7,1.43c.05.09.14.3.24.5s.23.48.38.72c.29.75.61,1.5.94,2.28.17.39.35.79.52,1.2.19.63.34,1.27.49,2s.32,1.35.52,2a8.18,8.18,0,0,0,.43,2.26v1.23a1.21,1.21,0,0,0,0,.19A51.58,51.58,0,0,1,332.57,199.55Z"/><path class="cls-1" d="M431.25,202.31l.11-.23,0-.06v0m-15.89-47.9h0a0,0,0,0,1,0,0m-31.37,5.16,0,0m46.92,43.42a0,0,0,0,0,0,0m0,0v0"/><path class="cls-1" d="M448.3,195.25a38.83,38.83,0,0,1-2.07,6.54c-4,11.05-9.35,20.11-16.06,26.94a61.85,61.85,0,0,1-29.78,16.83c-.89.2-1.79.38-2.68.53-19.27,3.23-37.28-7.32-42.8-25.09,0,0,0-.05,0-.07a68.44,68.44,0,0,1-2.28-20.64.28.28,0,0,1,0-.09,80.54,80.54,0,0,1,4.75-22.68c6.4-17.55,17.66-30.81,31.7-37.35a45.27,45.27,0,0,1,12.16-3.81,43.82,43.82,0,0,1,10.78-.51.06.06,0,0,0,.06,0c9.78,1,16.85,6.57,18.47,14.53,1,4.59-1.56,9.37-6.17,11.63l-.06,0a8.89,8.89,0,0,1-2.3.71c-4.11.69-7.83-1.46-8.69-5-.09-.34-.19-.65-.28-.95s-.09-.3-.15-.45a2.43,2.43,0,0,1-.16-.37,2.31,2.31,0,0,1-.25-.36,1.94,1.94,0,0,0-.13-.18c-.1-.13-.22-.29-.36-.5a2.85,2.85,0,0,0-.26-.17l-.18-.13a3.18,3.18,0,0,1-.81-.42l-.47-.16c-.25-.07-.52-.16-.82-.27-.15,0-.3-.06-.45-.09l-.37-.09-.33-.13c-.47,0-.87-.11-1.26-.17a10.43,10.43,0,0,1-1.94,0,7.4,7.4,0,0,1-.74.05h0a2.15,2.15,0,0,1-.43,0,28.57,28.57,0,0,0-3.81.46,12.3,12.3,0,0,1-2.12.57,5.13,5.13,0,0,1-.93.34,28.4,28.4,0,0,0-3.58,1.48,6.81,6.81,0,0,1-.71.36l-.08.06a.1.1,0,0,0-.05,0c-.52.32-.89.56-1.19.7a10.61,10.61,0,0,1-.92.56c-1.09.72-2.23,1.65-3.43,2.62a4.08,4.08,0,0,1-.33.25l-.16.12a4.74,4.74,0,0,1-.78.64,2.84,2.84,0,0,0-.23.25,10.29,10.29,0,0,1-1.05,1.08c-1,1.13-1.91,2.18-2.63,3.17a3.87,3.87,0,0,1-.49.57.05.05,0,0,0,0,0,3.76,3.76,0,0,1-.88,1.17l-.2.27c-.07.12-.16.32-.23.46a4.52,4.52,0,0,1-.3.51,49.83,49.83,0,0,0-4.43,8.17,3.15,3.15,0,0,1-.39,1,2.14,2.14,0,0,1-.1.22,15.2,15.2,0,0,0-.7,1.82c0,.08-.06.17-.09.26a31.85,31.85,0,0,0-1.14,3.61c-.08.28-.15.55-.23.82-.4,1.63-.81,3.1-1.21,4.51a13.68,13.68,0,0,1-.43,2.51,2.18,2.18,0,0,1,0,.25c0,.13,0,.26,0,.4a2.83,2.83,0,0,1,0,.41,66.35,66.35,0,0,0-.62,8.94c0,.76,0,1.48.11,2.23s.1,1.43.11,2.18c0,0,0,0,0,.06s.05.17.07.27a8.14,8.14,0,0,1,.35,2.5q.24.86.42,1.65c.16.68.32,1.34.5,1.85a1.72,1.72,0,0,1,.07.21c.2.7.39,1.22.59,1.78a3.63,3.63,0,0,1,.15.67c0,.07,0,.14.08.22l0,.09a3.05,3.05,0,0,1,.45,1c0,.09.06.17.09.27a22.42,22.42,0,0,0,2.06,3.2l.69.8a4.13,4.13,0,0,1,1.22,1.29l.11.09.44.35.16.13a26.62,26.62,0,0,0,3.73,2.82,2.41,2.41,0,0,1,1.14.67l.05,0a8.63,8.63,0,0,1,1.59.7,5.71,5.71,0,0,0,.84.37c.83.27,1.69.55,2.75,1h.07a4.75,4.75,0,0,1,1.26.22,1.61,1.61,0,0,1,.33.12l.09.05a24.25,24.25,0,0,0,4.93.3l.28,0a7.21,7.21,0,0,1,1.35-.06h.26l2.67-.44a6.19,6.19,0,0,1,1.1-.37l.35-.14a4.59,4.59,0,0,1,.56-.13,4.92,4.92,0,0,1,.5-.06c.87-.31,1.64-.6,2.27-.86l.14-.05a36.2,36.2,0,0,0,3.58-1.64c.44-.22.87-.45,1.32-.66a7.38,7.38,0,0,1,1.21-.68c.59-.44,1-.74,1.39-1l.23-.14a9.18,9.18,0,0,0,1.92-1.42,4.29,4.29,0,0,1,.69-.49,9.4,9.4,0,0,0,1.67-1.25,4.44,4.44,0,0,1,.84-.84c.18-.18.35-.33.49-.45a4,4,0,0,0,.33-.3,1.54,1.54,0,0,1,.17-.19,46.25,46.25,0,0,0,3.59-4.24,7.81,7.81,0,0,1,.53-.83,3.21,3.21,0,0,1,.34-.41l.15-.18.08-.09a4.34,4.34,0,0,1,.57-.87,6.55,6.55,0,0,0,.67-1c.19-.31.4-.65.65-1,1-1.9,1.81-3.61,2.6-5.48a4.12,4.12,0,0,1,.56-.92l.1-.21,0-.17,0-.06a2.33,2.33,0,0,1,.07-.25,18.92,18.92,0,0,1,.77-2.12c.12-.28.24-.58.36-.89,0,0,0-.09,0-.12a26.92,26.92,0,0,0,1.75-5.53,3.31,3.31,0,0,1,.12-.45,11.27,11.27,0,0,1,8.56-7.4,9.51,9.51,0,0,1,2.38-.11,6.72,6.72,0,0,1,5.47,3.18A7.75,7.75,0,0,1,448.3,195.25Z"/><path class="cls-1" d="M554,201a.07.07,0,0,1,0,.05,22.34,22.34,0,0,1-2.08,5.28c-2.37,5.76-7.73,11.17-14.33,14.48a27.71,27.71,0,0,1-18.9,2.08c-6.27-1.66-11.17-6.61-13.46-13.59-2.13-7.12-1.43-15.6,2.2-26.7.76-2.17,1.53-4.23,2.29-6.31S511.2,172.1,512,170c.51-1.4,1.21-3.46,1.69-5.38l.62-2.47a5.06,5.06,0,0,1,.14-.8,1.67,1.67,0,0,0,.06-.29v-.14a1,1,0,0,1,0-.17,4.7,4.7,0,0,1,.14-1.18,36.29,36.29,0,0,0,.28-4v-2.43a4.14,4.14,0,0,1-.21-1.52s0-.13,0-.25a1.64,1.64,0,0,1,0-.22l-.12-.53a8.74,8.74,0,0,1-.25-1.45,5.09,5.09,0,0,0-.61-1.57,1.3,1.3,0,0,1-.26-.8,1.87,1.87,0,0,0-.22-.76l-.08-.2a8,8,0,0,1-.55-1,3.44,3.44,0,0,0-.42-.73l-.09-.16a6.34,6.34,0,0,0-.63-.84q-.27-.3-.54-.66a1.13,1.13,0,0,1-.56-.52,1.48,1.48,0,0,0-.37-.38l-1.59-1.28a1,1,0,0,1-.42-.14,2.82,2.82,0,0,1-.68-.31c-.27-.13-.59-.25-.91-.37l-1.15-.48h-.09a3,3,0,0,1-.85-.16l-.83-.1-1.15-.14a6.77,6.77,0,0,0-.91,0,8.06,8.06,0,0,1-1.3,0,4,4,0,0,1-.5,0,1.67,1.67,0,0,0-.3,0l-1.95.32a2.81,2.81,0,0,1-1.09.4l-.65.11c-.34.14-.66.25-.95.35a6.3,6.3,0,0,0-.75.28l-.12,0c-.77.32-1.58.65-2.18.94l-.59.37a2.42,2.42,0,0,1-.4.25,1.37,1.37,0,0,1-.29.2A29.19,29.19,0,0,0,486,144.8h0a1.94,1.94,0,0,1-.23.29,1.88,1.88,0,0,1-.39.35l-.32.22a1.79,1.79,0,0,1-.39.44,17.29,17.29,0,0,0-1.72,1.77l-.1.11a24.39,24.39,0,0,0-2.49,3.08c-.27.35-.53.72-.79,1.06l-.09.12a1.88,1.88,0,0,1-.25.24c-.11.22-.21.39-.32.57a3.81,3.81,0,0,0-.23.4,1.6,1.6,0,0,1-.29.44,8.81,8.81,0,0,0-.93,1.43c-.13.23-.27.46-.4.67a29.58,29.58,0,0,0-2.44,4.93,2.11,2.11,0,0,1-.16.34,5.17,5.17,0,0,0-.65,1.32,2.73,2.73,0,0,1-.31.78c-.19.62-.44,1.23-.7,1.88l-.37.91h0c-.62,1.93-1.27,3.91-1.9,6.06-.83,3-1.71,6.09-2.35,9.28l-8.47,48a9.37,9.37,0,0,1-7.35,7.09l-1.09.18a1.15,1.15,0,0,1-.32,0,6,6,0,0,1-5.74-7.52l7.8-44V184a1.69,1.69,0,0,1,0-.38c.22-.84.43-1.71.65-2.42L471.91,78.25A9.56,9.56,0,0,1,480.55,71h.11a6,6,0,0,1,5.74,7.52l-10.13,57.1a60.68,60.68,0,0,1,5.08-4.1c7.35-5.13,15.73-7.86,23.62-7.69a24.07,24.07,0,0,1,19.26,10c5.26,7.25,5.74,16.36,5.22,22.71a58.49,58.49,0,0,1-2.23,12c-.69,2.11-1.47,4.23-2.21,6.28s-1.52,4.11-2.16,6.08a65.36,65.36,0,0,0-3.61,12,2.4,2.4,0,0,1-.21,1v.81a1.67,1.67,0,0,1-.06.38,17,17,0,0,0,0,5,1.36,1.36,0,0,1,0,.29V201a2.61,2.61,0,0,0,0,.28l.05.08a1.48,1.48,0,0,1,.12.29c.11.41.21.88.32,1.34.07.27.13.54.2.79a1.36,1.36,0,0,1,.23.34,1.67,1.67,0,0,1,.32.66.43.43,0,0,1,0,.11l.09.13h0a1.21,1.21,0,0,1,.21.28c.06.1.12.23.19.36a2.21,2.21,0,0,0,.4.62,3,3,0,0,1,.58.68l1.08.87h0l.07,0,.2.15.21.11a1.23,1.23,0,0,1,.48.25l.12,0,.62.27a1.25,1.25,0,0,1,.52.13,5.13,5.13,0,0,1,.81.11,1.23,1.23,0,0,0,.32.06,1.69,1.69,0,0,1,.67,0,1.57,1.57,0,0,0,.84.12l.44-.07a1.48,1.48,0,0,1,.47,0,4.36,4.36,0,0,0,1.27-.08L530,209a3.54,3.54,0,0,1,1-.34l.43-.08c.06,0,.1,0,.21-.09a1.69,1.69,0,0,1,.66-.26,5.92,5.92,0,0,0,1-.44,3.61,3.61,0,0,1,.68-.42,16.31,16.31,0,0,0,2.1-1.53l1.65-1.87a2.5,2.5,0,0,1,.46-.59c.2-.53.39-.93.57-1.3a2.32,2.32,0,0,1,.28-.44,1.38,1.38,0,0,1,.06-.26,5.65,5.65,0,0,0,.36-1.47,1.65,1.65,0,0,1,.06-.43,9.57,9.57,0,0,1,9.15-6.57C552.43,193.32,554.81,197,554,201Z"/><path class="cls-1" d="M650,169.72a9,9,0,0,0-8.74,7.31c-2.17,12.76-7.58,13.23-9.81,13.43a2.29,2.29,0,0,1-1.7-.5c-1.31-1.46-1.72-5.63-1-9.59.13-.48.36-1.74,2-10.93,1.72-9.81,5-28.56,11.33-64.55a6.23,6.23,0,0,0-6-7.39H636a9.57,9.57,0,0,0-8.65,7.33s-.6,4-1.66,10.11a30.45,30.45,0,0,0-7.19-6.84,27.82,27.82,0,0,0-17.08-4.38c-5.28.29-11,2.46-17.32,6.6-9.42,5.94-17.48,15.76-22.65,27.58a64.63,64.63,0,0,0-3.55,8.73,95,95,0,0,0-4.21,18.67,67.79,67.79,0,0,0-.66,14.92c.7,9.58,4.2,17.92,10.11,24.12a26.69,26.69,0,0,0,23.7,7.92l1.42-.2c8.19-1.38,16.79-6,24.4-13.3.86-.85,1.73-1.72,2.58-2.64a15.66,15.66,0,0,0,2.64,4.49c3,3.25,7.24,4.76,12.35,4.38l2.1-.36a26,26,0,0,0,15.64-9.16c4-4.74,6.67-11,8-18.5a.15.15,0,0,1,0-.06A6.17,6.17,0,0,0,650,169.72ZM619,150.13a41.12,41.12,0,0,1-.41,5.13,1,1,0,0,0,0,.18,1.48,1.48,0,0,1-.07.29,3.41,3.41,0,0,0-.13.59,20.12,20.12,0,0,0-.45,3.45c-1,4-1.83,7-2.75,10-.07.21-.17.43-.27.66a10.1,10.1,0,0,0-.49,1.26,1.59,1.59,0,0,0-.38.82,2.19,2.19,0,0,0-.18.46,4.65,4.65,0,0,0-.21.63c-.81,1.68-1.65,3.23-2.47,4.76a34.24,34.24,0,0,1-2.67,4.43,1.69,1.69,0,0,0-.19.32l-.14.26h0a2.79,2.79,0,0,0-.53.82L606,186.1l-.09.12a33.91,33.91,0,0,1-2.24,2.56c-.31.34-.61.66-.9,1a2.31,2.31,0,0,0-.23.18,1.63,1.63,0,0,0-.45.38l-.07.08a1.9,1.9,0,0,0-.58.44,8,8,0,0,1-1.78,1.5.66.66,0,0,0-.17.12,6.94,6.94,0,0,1-1.7,1.14,1.71,1.71,0,0,0-.67.47,6.57,6.57,0,0,1-.55.38,3.28,3.28,0,0,0-.69.43,48.3,48.3,0,0,1-5,2.18,1,1,0,0,0-.31.15l-.11,0c-.22,0-.49.12-.79.2a3.17,3.17,0,0,0-.57.14,6.31,6.31,0,0,1-2.39.39,1,1,0,0,0-.29,0l-1.12.18a17.15,17.15,0,0,1-2.46-.32,1.25,1.25,0,0,0-.39,0l-.1,0a1.49,1.49,0,0,0-.47-.07h0a1.08,1.08,0,0,0-.52-.1,9.39,9.39,0,0,1-1-.31,8.58,8.58,0,0,0-.9-.31c-.1,0-.27-.14-.42-.22l-.38-.21a1.92,1.92,0,0,0-.35-.18,1,1,0,0,0-.22-.13.43.43,0,0,0-.11-.12.9.9,0,0,0-.19-.15.83.83,0,0,0-.3-.14,3.22,3.22,0,0,1-.41-.21,6.11,6.11,0,0,0-.63-.32c-.23-.2-.43-.39-.63-.6s-.6-.59-1-.88l-.07-.05a1.21,1.21,0,0,0-.58-.64l-.06-.06a1.21,1.21,0,0,0-.74-.74,24.51,24.51,0,0,1-1.66-2.39c-.19-.3-.37-.58-.52-.79a11.19,11.19,0,0,1-.47-1c-.17-.39-.34-.8-.56-1.21a8.66,8.66,0,0,0-.67-1.39,32.56,32.56,0,0,1-1.22-3.95l-.21-.82a7.24,7.24,0,0,1-.18-1.13l0-.25a5.26,5.26,0,0,0-.08-.6c0-.15-.07-.32-.11-.48a5.46,5.46,0,0,0-.21-1.7,58.83,58.83,0,0,1,.21-6v-.15a17.06,17.06,0,0,1,.2-3.3,1.63,1.63,0,0,0,0-.31,4.8,4.8,0,0,1,.13-1.42,1.45,1.45,0,0,0,.08-.5V164c.45-2.88,1.14-5.78,1.7-8a.5.5,0,0,0,0-.12A54.57,54.57,0,0,1,572,148.3c.43-1.12.89-2.28,1.33-3.66l.16-.48a9.9,9.9,0,0,0,.52-1c.15-.31.28-.59.44-.85.05-.08.09-.16.13-.24a47.31,47.31,0,0,1,3.55-6.87c0-.07.08-.13.12-.21a2.42,2.42,0,0,1,.2-.33,7.16,7.16,0,0,0,.6-1.1l.42-.47a.35.35,0,0,0,.08-.1l.15-.16a.64.64,0,0,0,.1-.13,1.89,1.89,0,0,0,.48-.74l.06-.08a1.57,1.57,0,0,0,.2-.25,9.53,9.53,0,0,1,1.12-1.44c.31-.35.59-.7.88-1a12.67,12.67,0,0,1,1.34-1.49,1.29,1.29,0,0,0,.16-.17,7.18,7.18,0,0,1,.91-.92,2.18,2.18,0,0,0,.4-.35l.57-.65a38.9,38.9,0,0,1,5.49-4.05l.18-.13a1.79,1.79,0,0,0,.54-.23,7.27,7.27,0,0,1,.64-.37c.28-.16.57-.32.81-.47a18.56,18.56,0,0,1,1.76-.8c.5-.21,1-.44,1.56-.69l1.72-.29a1.41,1.41,0,0,0,.48-.15,1,1,0,0,1,.8-.13,1.24,1.24,0,0,0,.47,0l.51-.08a10.08,10.08,0,0,1,2.51.26,1.52,1.52,0,0,0,.53.06l.13,0,1.3.42.11,0a8.48,8.48,0,0,1,2.42,1,2.12,2.12,0,0,0,.6.27l1,.84a16.93,16.93,0,0,1,2,1.8l.14.13a1.75,1.75,0,0,0,.26.18,1.37,1.37,0,0,0,.17.17,3.41,3.41,0,0,1,.57.66l.28.37c.24.41.52.79.79,1.17s.5.69.69,1a7.13,7.13,0,0,1,.56,1.17,1,1,0,0,0,.08.18c0,.08.12.23.2.38l.37.65c.43,1.19,1,2.35,1.53,3.49.22.7.38,1.44.55,2.21s.27,1.26.45,1.94a10.72,10.72,0,0,0,.43,2.22v1.07a1.23,1.23,0,0,0,0,.19A51,51,0,0,1,619,150.13Z"/><text class="cls-2" transform="translate(352.57 340.12)">THE RACCOON</text><text class="cls-2" transform="translate(0 88)">hi, i’m</text></g></g></svg>