<svg xmlns="http://www.w3.org/2000/svg" viewBox="0 0 1050.07 885.31"><defs><style>.cls-1{fill:#fff;}.cls-2{fill:#999;}.cls-3{fill:#4d4d4d;}</style></defs><g id="Layer_2" data-name="Layer 2"><g id="Layer_1-2" data-name="Layer 1"><path d="M568,865.31c-2.8,0-5.79,0-9.69-.07h-.46l-2.62-.06-2.37,0c-2.51,0-10.56,0-30.53,0h-6l-24.24,0h-.26c-3.88,0-6.87.07-9.68.07-101.49,0-193.93-23.88-274.77-71C139.92,755,98.74,709.8,80.19,686.35a57.48,57.48,0,0,1-10.68-48.18,54.55,54.55,0,0,1,32.69-38.85,168.27,168.27,0,0,0,29.62-15.66q2.43-1.6,4.74-3.35c-18.49-21.24-42.87-50.41-61.33-76.7-36.49-52-48.66-76.09-54.25-107.52-5.37-30.33,11.82-59.83,40-68.63l.39-.12a39.08,39.08,0,0,1,10.93-1.66l76.49-.93c3.13-33.88,9.11-84.78,19.82-133.52,8-36.32,17.58-66.76,28.57-90.45C213.6,65.32,234.68,42.17,259.83,32a73.14,73.14,0,0,1,27.61-5.37c18,0,36.59,6.47,55.38,19.27a33.15,33.15,0,0,1,1.4-3.5c4.1-8.88,11.25-15.08,19.61-17A208.2,208.2,0,0,1,409.77,20c22.82,0,43.59,4.19,61.74,12.46,22,10,39.09,25.57,51.81,40.89,14.58-15.74,34.09-31.43,58.73-40.29a142.08,142.08,0,0,1,48.16-8c24.32,0,45.9,5.27,59.73,9.68A27.92,27.92,0,0,1,705.2,47.29,134.23,134.23,0,0,1,725,35.59c12.72-6,25.36-9,37.59-9A73.08,73.08,0,0,1,790.25,32c25.15,10.21,46.24,33.37,62.68,68.83,11,23.76,20.62,54.19,28.58,90.45,10.7,48.77,16.68,99.65,19.8,133.51l76.49.93a39.28,39.28,0,0,1,11.1,1.71l.4.12c28.05,8.87,45.15,38.32,39.8,68.58-5.6,31.44-17.77,55.55-54.26,107.52-18.41,26.24-42.79,55.41-61.32,76.7,1.54,1.17,3.13,2.3,4.75,3.37a167.52,167.52,0,0,0,29.61,15.64c16.37,6.5,28.6,21,32.69,38.85a57.47,57.47,0,0,1-10.68,48.18c-18.6,23.49-59.83,68.74-127.16,108C761.9,841.43,669.46,865.31,568,865.31Zm-9.39-709.38a338.22,338.22,0,0,0-3.31,48.36,320.07,320.07,0,0,0,2.22,38.63c2.31-.74,4.31-1.47,6-2.16,9.7-18.57,28.62-53.42,51.56-88.8a146.6,146.6,0,0,1-38.43,4.9A178.49,178.49,0,0,1,558.58,155.93Zm-124.83-6c15.05,23.07,28.41,46,38.66,64.45-.08-3.38-.11-6.86-.1-10.42a451.74,451.74,0,0,1,2.49-47.24A152.91,152.91,0,0,1,433.75,150Z"/><path class="cls-1" d="M409.77,40c16.85,0,35.71,2.58,53.45,10.66,28.64,13.06,48,37.58,59.16,55.69,12.17-17.4,34.51-43,66.43-54.47a122.18,122.18,0,0,1,41.4-6.79c22.12,0,41.87,5,53.64,8.73,4.64,1.48,8,10.41,5.4,14.49C678.8,84.88,654.74,116.85,618,130.08a121.9,121.9,0,0,1-41.36,6.78,170.88,170.88,0,0,1-34.35-3.67l-.25,3.5c-.07.23-6.58,22.92-6.73,67.53A321.26,321.26,0,0,0,541,266.88c19.27-2.52,31.44-7.86,37.11-10.91,8.72-17,33.11-63.06,62.58-106.54,22.17-32.69,43-57.8,62-74.61q15.82-14.05,30.88-21.14t29.06-7.09a53.17,53.17,0,0,1,20.1,3.9c20.29,8.24,37.81,28,52.06,58.71,10.38,22.42,19.53,51.47,27.18,86.32,12.41,56.53,18.37,115.88,20.95,149l94.68,1.16a19.23,19.23,0,0,1,5.49.84l.06,0c18.59,5.81,29.87,25.6,26.25,46.06-5,28-16.41,50.35-50.93,99.51-19.31,27.52-45.5,58.51-64.06,79.66a14,14,0,0,0-3.24,10.15,13.7,13.7,0,0,0,4.22,9.39,110.11,110.11,0,0,0,11.85,9.05,187.83,187.83,0,0,0,33.23,17.53,34.66,34.66,0,0,1,20.61,24.75,37.37,37.37,0,0,1-6.88,31.3c-17.71,22.37-57,65.51-121.54,103.11C754.93,822.34,665.88,845.31,568,845.31c-2.76,0-5.71,0-9.57-.07h-.13l-2.73-.06-2.57,0c-2,0-10.17,0-30.69,0-13.66,0-29.13,0-30.52.06h-.1c-3.84,0-6.79.07-9.55.07-97.91,0-187-23-264.7-68.26C152.87,739.42,113.56,696.3,95.88,673.94A37.33,37.33,0,0,1,89,642.64c2.61-11.41,10.31-20.66,20.58-24.74a187.91,187.91,0,0,0,33.25-17.55,106.82,106.82,0,0,0,11.83-9,13.69,13.69,0,0,0,4.24-9.43,14,14,0,0,0-3.24-10.12c-18.56-21.15-44.74-52.14-64.06-79.66C57.08,443,45.66,420.63,40.67,392.58c-3.62-20.44,7.67-40.23,26.25-46l.07,0a19.16,19.16,0,0,1,5.48-.84l94.68-1.16c2.58-33.09,8.54-92.46,21-149,7.66-34.9,16.8-63.94,27.18-86.33,14.25-30.72,31.76-50.46,52.06-58.7a53.16,53.16,0,0,1,20.09-3.9c18.68,0,38.84,9.5,59.94,28.23,19,16.81,39.83,41.92,62,74.61C439,193.07,463.26,239,472,256a97.49,97.49,0,0,0,25,8.81,373.27,373.27,0,0,1-4.66-60.7c.12-32.93,3.31-55.48,5.78-68.06-5.35.53-11.09.85-17.1.85-16.84,0-35.71-2.58-53.45-10.66-35.53-16.19-56.8-50-65.81-67.39-2.21-4.27,1.86-12.89,6.61-14A187.89,187.89,0,0,1,409.77,40m0-40a228.34,228.34,0,0,0-50.42,5.85,46.93,46.93,0,0,0-23,13c-16.33-8.18-32.69-12.3-48.95-12.3a92.86,92.86,0,0,0-35.13,6.84c-30,12.17-54.66,38.73-73.3,78.93-11.6,25-21.68,56.84-30,94.59-9.16,41.7-14.92,84.86-18.42,118l-58.52.72a58.81,58.81,0,0,0-16.43,2.47l-.69.21c-37.73,11.8-60.81,51-53.7,91.19,6.8,38.2,24,67.69,57.59,115.54,14.12,20.11,31.52,41.76,47.27,60.44-4.5,2.31-8.39,4-11.41,5.22-22.47,9-39.18,28.75-44.72,53a77.63,77.63,0,0,0,14.52,65.06c19.4,24.54,62.47,71.86,132.73,112.83,83.94,48.91,179.78,73.7,284.85,73.7,3,0,6.06,0,9.85-.07h.33c1.57,0,14.74,0,25.33,0h4.72l30.33,0,2.19,0,2.53.05h.73c3.81,0,6.85.07,9.85.07,105.07,0,200.9-24.79,284.83-73.69C923,770.71,966.1,723.36,985.56,698.77a77.68,77.68,0,0,0,14.51-65.08,74.67,74.67,0,0,0-44.82-53c-3-1.19-6.85-2.88-11.32-5.17,15.77-18.71,33.19-40.37,47.29-60.46,33.59-47.84,50.77-77.32,57.56-115.48,7.1-40.13-15.83-79.23-53.37-91.14l-.71-.22A58.76,58.76,0,0,0,978,305.69L919.45,305C916,271.82,910.2,228.67,901,187c-8.27-37.68-18.34-69.49-29.95-94.55-18.66-40.23-43.32-66.79-73.31-79a93,93,0,0,0-35.15-6.84c-15.2,0-30.7,3.67-46.07,10.89q-4.17,2-8.32,4.28a45.73,45.73,0,0,0-12.23-6c-15.17-4.85-38.9-10.63-65.8-10.63A155.58,155.58,0,0,0,524.07,44.8a159.35,159.35,0,0,0-44.25-30.53C459,4.8,435.47,0,409.77,0Z"/><path class="cls-2" d="M896.88,571.77a14,14,0,0,0-3.24,10.15,13.7,13.7,0,0,0,4.22,9.39,110.11,110.11,0,0,0,11.85,9.05,187.83,187.83,0,0,0,33.23,17.53,34.66,34.66,0,0,1,20.61,24.75,37.37,37.37,0,0,1-6.88,31.3c-17.71,22.37-57,65.51-121.54,103.11-77.73,45.29-166.78,68.26-264.69,68.26-2.76,0-5.71,0-9.57-.07h-.13l-2.73-.06-2.57,0c-2,0-10.17,0-30.69,0-13.66,0-29.13,0-30.52.06h-.1c-3.84,0-6.79.07-9.55.07-97.91,0-187-23-264.7-68.26C155.34,739.42,116,696.3,98.35,673.94a37.33,37.33,0,0,1-6.88-31.3c2.61-11.41,10.31-20.66,20.58-24.74a187.91,187.91,0,0,0,33.25-17.55,106.82,106.82,0,0,0,11.83-9,13.69,13.69,0,0,0,4.24-9.43,14,14,0,0,0-3.24-10.12c-18.56-21.15-44.74-52.14-64.06-79.66C59.55,443,48.13,420.63,43.14,392.58c-3.62-20.44,7.67-40.23,26.25-46l.07,0a19.16,19.16,0,0,1,5.48-.84l94.68-1.16c2.58-33.09,8.54-92.46,21-149,7.66-34.9,16.8-63.94,27.18-86.33,14.25-30.72,31.76-50.46,52.06-58.7a53.16,53.16,0,0,1,20.09-3.9c18.68,0,38.84,9.5,59.94,28.23,19,16.81,39.83,41.92,62,74.61C441.43,193.07,465.73,239,474.42,256c6.61,3.56,22.07,10.24,47.37,11.94,1.85.12,3.76.22,5.72.29,28.68-1,46-8.4,53.07-12.22,8.72-17,33.11-63.06,62.58-106.54,22.17-32.69,43-57.8,62-74.61Q721,60.77,736,53.68t29.06-7.09a53.17,53.17,0,0,1,20.1,3.9c20.29,8.24,37.81,28,52.06,58.71,10.38,22.42,19.53,51.47,27.18,86.32,12.41,56.53,18.37,115.88,20.95,149l94.68,1.16a19.23,19.23,0,0,1,5.49.84l.06,0c18.59,5.81,29.87,25.6,26.25,46.06-5,28-16.41,50.35-50.93,99.51C941.63,519.63,915.44,550.62,896.88,571.77Z"/><path class="cls-3" d="M644.34,273.27c1.82,6.63,6.19,11.47,11.68,12.94l153.62,41.54a14.08,14.08,0,0,0,6.45.21,18.49,18.49,0,0,0,10.86-7.3,27.55,27.55,0,0,0,4.89-22.05c-10.56-50.86-34.4-138.1-75.3-151-38.75-12.24-85.39,60.69-109.74,105.25A28,28,0,0,0,644.34,273.27Z"/><path class="cls-3" d="M413.37,273.27c-1.82,6.63-6.2,11.47-11.69,12.94L248.07,327.75a14.12,14.12,0,0,1-6.46.21,18.55,18.55,0,0,1-10.86-7.3,27.58,27.58,0,0,1-4.88-22.05c10.56-50.86,34.39-138.1,75.29-151,38.76-12.24,85.4,60.69,109.75,105.25A28,28,0,0,1,413.37,273.27Z"/><rect class="cls-1" x="312.17" y="390.91" width="425.74" height="230.52"/><path d="M841.68,449.54c-46.33-42.29-118.13-92.27-198.74-92.27-39.83,0-77.52,12.21-111,29.67a7.67,7.67,0,0,1-7.24,0c-33.52-17.46-71.2-29.67-111-29.67-80.6,0-152.41,50-198.73,92.27-34.82,31.79-34.82,83.92,0,115.71C261.2,607.54,333,657.53,413.61,657.53c39.85,0,77.53-12.22,111.06-29.67a7.65,7.65,0,0,1,7.23,0c33.51,17.45,71.21,29.67,111,29.67,80.61,0,152.42-50,198.74-92.28C876.51,533.46,876.51,481.33,841.68,449.54Zm-454.32,151c-21.61,1.45-40.21-20.2-41.34-48.12l-4-97.48c0-.89-.05-1.78-.05-2.66,0-26.78,16.37-49.36,37.28-50.78,21.61-1.46,40.21,20.19,41.34,48.11l3.95,97.48C425.72,575,409,599.09,387.36,600.56ZM718.93,455l-4,97.48c-1.13,27.92-19.73,49.57-41.34,48.12S635.27,575,636.4,547.11l4-97.48c1.11-27,18.57-48.18,39.29-48.18.69,0,1.37,0,2.06.07C703.3,403,720.05,427,718.93,455Z"/><path d="M527.3,317.05h0Z"/><path d="M960.94,492.11c34.52-49.16,45.94-71.48,50.93-99.51,3.62-20.46-7.66-40.25-26.25-46.06l-.06,0a19.23,19.23,0,0,0-5.49-.84l-94.68-1.16c-2.58-33.12-8.54-92.47-20.95-149-7.65-34.85-16.8-63.9-27.18-86.32C823,78.48,805.49,58.73,785.2,50.49a53.17,53.17,0,0,0-20.1-3.9q-14,0-29.06,7.09T705.16,74.82c-19,16.81-39.83,41.92-62,74.61C613.69,192.91,589.3,239,580.58,256c-5.67,3-17.84,8.39-37.11,10.91a321.26,321.26,0,0,1-5.73-62.66c.15-44.61,6.66-67.3,6.73-67.53l.25-3.5c20.64,4.27,48.88,6.54,75.71-3.11,36.78-13.23,60.84-45.2,71.29-61.77,2.57-4.08-.76-13-5.4-14.49-18.88-6-58.27-15.17-95-1.94C559.36,63.35,537,89,524.85,106.35c-11.14-18.11-30.52-42.63-59.16-55.69-35.53-16.19-75.55-10.3-94.88-5.84-4.75,1.1-8.82,9.72-6.61,14,9,17.38,30.28,51.2,65.81,67.39,24.06,11,50.19,11.8,70.55,9.81-2.47,12.58-5.66,35.13-5.78,68.06a373.27,373.27,0,0,0,4.66,60.7,97.49,97.49,0,0,1-25-8.81c-8.69-16.94-33-62.89-62.57-106.53-22.17-32.69-43-57.8-62-74.61-21.1-18.73-41.26-28.23-59.94-28.23a53.16,53.16,0,0,0-20.09,3.9c-20.3,8.24-37.81,28-52.06,58.7-10.38,22.39-19.52,51.43-27.18,86.33-12.42,56.54-18.38,115.91-21,149l-94.68,1.16a19.16,19.16,0,0,0-5.48.84l-.07,0c-18.58,5.81-29.87,25.6-26.25,46,5,28.05,16.41,50.37,50.93,99.53,19.32,27.52,45.5,58.51,64.06,79.66a14,14,0,0,1,3.24,10.12,13.69,13.69,0,0,1-4.24,9.43,106.82,106.82,0,0,1-11.83,9,187.91,187.91,0,0,1-33.25,17.55c-10.27,4.08-18,13.33-20.58,24.74a37.33,37.33,0,0,0,6.88,31.3c17.68,22.36,57,65.48,121.53,103.11,77.73,45.29,166.79,68.26,264.7,68.26,2.76,0,5.71,0,9.55-.07h.1c1.39,0,16.86,0,30.52-.06,20.52,0,28.7,0,30.69,0l2.57,0,2.73.06h.13c3.86,0,6.81.07,9.57.07,97.91,0,187-23,264.69-68.26,64.5-37.6,103.83-80.74,121.54-103.11a37.37,37.37,0,0,0,6.88-31.3,34.66,34.66,0,0,0-20.61-24.75,187.83,187.83,0,0,1-33.23-17.53,110.11,110.11,0,0,1-11.85-9.05,13.7,13.7,0,0,1-4.22-9.39,14,14,0,0,1,3.24-10.15C915.44,550.62,941.63,519.63,960.94,492.11Zm-101.15,92c.79,13.76,6.78,26.56,16.47,35.09a139.79,139.79,0,0,0,15.59,11.93,226,226,0,0,0,33.27,18.16,4.09,4.09,0,0,1,1.53,6.37c-35.09,42.25-147.5,153.51-356.37,153.51-3,0-6,0-9-.07l-5.8-.11c-1.92,0-59.9.08-61.84.11-3,0-6,.07-9,.07-208.87,0-321.28-111.26-356.38-153.51a4.09,4.09,0,0,1,1.53-6.37,226,226,0,0,0,33.28-18.16,140.61,140.61,0,0,0,15.58-11.93c9.69-8.53,15.69-21.33,16.47-35.09a52,52,0,0,0-12.31-37.05c-18-20.54-43.33-50.49-61.7-76.65C89.85,425.89,80.45,409,76.33,385.84a5,5,0,0,1-.06-.54,4.09,4.09,0,0,1,4.15-4.12L181.22,380a4.49,4.49,0,0,0,1.21-.19C193.76,376.3,202,365.25,203,352.06c1.83-24.82,7.49-89,20.51-148.26C238.59,135,258.76,93.63,281.8,84.28c22.24-9,58.62,21.6,102.47,86.22,35.31,52.06,63.12,108.2,63.4,108.76l.62,1.25a4.1,4.1,0,0,0,1.08,1.36l1,.82c1.05.86,25.15,20.11,76.93,21.67h.31c51.78-1.56,75.89-20.81,76.93-21.67l1-.82a4.07,4.07,0,0,0,1.07-1.36l.62-1.25c.28-.56,28.09-56.7,63.41-108.76,43.84-64.62,80.23-95.24,102.46-86.22,23,9.35,43.21,50.68,58.34,119.52,13,59.3,18.68,123.44,20.5,148.26,1,13.19,9.2,24.24,20.53,27.71a4.49,4.49,0,0,0,1.21.19l100.8,1.22a4.08,4.08,0,0,1,4.15,4.12,5,5,0,0,1-.06.54c-4.12,23.13-13.51,40.05-44.76,84.56-18.36,26.16-43.69,56.11-61.7,76.65A52,52,0,0,0,859.79,584.1Z"/><path d="M527.45,317.05h0Z"/><path d="M538.94,771.86a16.11,16.11,0,0,1-21.31,0L478,736.68l-19.48-17.3c-10.84-9.61-3.93-27.33,10.65-27.33H587.38c14.58,0,21.49,17.72,10.65,27.33l-19.48,17.3Z"/></g></g></svg>