<svg xmlns="http://www.w3.org/2000/svg" viewBox="0 0 1558.62 401.66"><defs><style>.cls-1{fill:#fff;}</style></defs><g id="Layer_2" data-name="Layer 2"><g id="Layer_3" data-name="Layer 3"><path class="cls-1" d="M265.13,399a26.27,26.27,0,0,1-16.44-13.84q-5.19-10.38-.87-24.23Q257.33,322,289.36,211.2q10.38-38.94,1.73-45-9.54-6-28.56,18.17L227.05,236.3q-26,36.34-50.19,35.48-10.38-.86-17.3-6.06t-11.69-16A122.89,122.89,0,0,1,141,230.24q-2.16-8.64-4.76-25.09-3.47-19.9-7.79-21.64a16.8,16.8,0,0,0-5.19-.86q-9.52,0-17.3,21.63Q83.4,265.74,66.1,327.16q-5.19,23.37-15.58,33.75t-25.09,6.92A34.9,34.9,0,0,1,6,354Q-1.41,343.6.33,329.76,2.93,300.34,35,209.91T91.19,65.83q16.44-40.66,44.14-40.67,17.29,0,29.42,17.3t16.87,34.62q4.75,17.31,9.95,45.86,2.61,15.57,13,17.31,9.52.87,24.23-18.18A587.16,587.16,0,0,1,287.63,61.5q31.15-27.69,51.05-27.69,29.42,0,38.08,36.34,6,27.71-14.71,111.63-41.54,174.81-57.11,202.49Q290.21,408.5,265.13,399Z"/><path class="cls-1" d="M542.89,355.72q-28.54,24.24-58.84,19.9T433,340.14q-32-58.83-11.69-138T495.3,65a152.27,152.27,0,0,1,39.81-30.29q30.27-12.1,51,12.12a51.54,51.54,0,0,0,20.77,16.44q19,10.38,26,40.24a155,155,0,0,1,1.73,61Q608.66,300.34,542.89,355.72Zm-46.72-52.79q16.43,2.6,36.77-35t31.16-84.81q10.8-47.16,4.75-67.93Q560.2,91.78,536,116q-58.86,71-58.84,145.37Q477.13,300.35,496.17,302.93Z"/><path class="cls-1" d="M794.7,386q-48.47,18.18-86.53-11.25T671.82,290q2.59-66.63,43.27-155.33t85.67-119q50.18-35.47,91.73,9.52a98,98,0,0,1,20.33,38.07q5.63,20.78-1.3,34.61-7.78,15.59-24.66,16.88T859.6,102.17A100.23,100.23,0,0,1,851.81,87q-4.34-9.94-11.25-12.55-25.95-5.19-66.19,86.1T737.59,296.87q.85,20.78,14.71,27.26t31.15-5.62q8.64-6.92,29.42-29T838,264.86q12.1-6,24.23-2.17a27.52,27.52,0,0,1,17.31,15.15q12.11,23.36-20.34,59.27T794.7,386Z"/><path class="cls-1" d="M1121.8,373.89q-30.3-9.51-18.17-51.06L1114,292.55q6.91-22.5,2.6-29.42t-27.69-7.79q-26-1.72-39.81-1.73-19.92-1.73-27.69,19-24.24,75.28-30.29,85.67-11.25,19.92-36.34,12.12-22.51-7.79-19.9-32,1.73-19,47.16-150.14t56.68-144.08q14.7-16.42,35.48-9.52,19.89,8.67,17.3,32-.87,10.38-31.15,94.32-9.52,27.7,19.9,28.56h48.46a36.13,36.13,0,0,0,6.06-.43,15.52,15.52,0,0,0,4.33-1.3c1.15-.57,2.45-1.3,3.89-2.16s2.6-1.59,3.46-2.17,1.73-1.86,2.6-3.89a29.31,29.31,0,0,1,2.16-4.33,25.42,25.42,0,0,0,2.17-5.19,45.86,45.86,0,0,1,2.16-5.62,69,69,0,0,0,2.6-6.93c1.14-3.46,2-6.05,2.59-7.79q36.35-94.3,44.13-107.3,15.59-25.08,39.81-14.71,28.56,13,13,52.79l-56.25,154q-6.93,20.76-19,55.38-18.16,55.4-29,72.69T1121.8,373.89Z"/><path class="cls-1" d="M1492.16,390.33a46.85,46.85,0,0,1-8.65-2.16,21.59,21.59,0,0,1-6.49-3.9,35.39,35.39,0,0,1-4.76-4.76,19.24,19.24,0,0,1-3-6.92,75.32,75.32,0,0,1-1.73-7.35c-.3-1.74-.58-4.76-.87-9.09s-.43-7.49-.43-9.52V323.7q1.72-19.89-17.31-21.63l-55.38-2.6q-13,0-22.5,14.71-36.35,57.12-44.13,64-18.17,13-37.21,0-26-16.44,0-56.25l72.69-121.15q25.08-42.39,69.66-99.08t66.2-69.66q20.76-12.1,38.51-3.9t21.2,30.72q3.45,25.11-10.39,153.6t-21.63,156.2a31,31,0,0,1-12.55,17.3Q1504.29,392.08,1492.16,390.33Zm-35.48-153.16q20.77,0,23.37-19,4.32-32,4.32-41.54t-6-11.25q-13-6-33.32,22.5t-13.41,40.67Q1435,237.17,1456.68,237.17Z"/></g></g></svg>