<svg xmlns="http://www.w3.org/2000/svg" viewBox="0 0 1032.21 251.62"><defs><style>.cls-1{fill:#fff;}.cls-2{fill:none;stroke:#000;stroke-miterlimit:10;stroke-width:27.28px;}</style></defs><g id="Layer_2" data-name="Layer 2"><g id="Layer_1-2" data-name="Layer 1"><path d="M236.63,62.5A108.1,108.1,0,0,1,253.1,37.73C248.82,23.73,236.15,14,219.81,14c-15.14,0-15.14,0-34.51,16l-3.75,4.17L140.93,69.55l-30.1-35.36-1.84-3C93.75,14,93.75,14,78.61,14,56.33,14,35.45,32.13,32.14,54.41L14.08,175.51c-3.31,22.28,12.16,40.33,34.44,40.33s43-18.05,46.34-40.33l2-13.68c6.14,8.35,16.12,13.68,28.23,13.68s23.69-5.33,32.32-13.68l-2,13.68c-3.32,22.28,12,40.33,34.32,40.33,17.19,0,33.53-10.75,41.63-25.89-10.92-17.83-14.8-45.83-10.14-77.1A171.56,171.56,0,0,1,236.63,62.5Z"/><path d="M412.73,112.85c-3.43,23-2.24,44.26,3,61-4.75,7-10,12.55-15.35,16.34-14,15-44.76,25.67-79,25.67s-62-10.66-71.49-25.67c-5.44-4.83-9.71-12.58-12.51-22.42-4-14.13-5-32.57-2-52.79s9.48-38.7,17.72-52.87c5.72-9.87,12.31-17.64,19.19-22.45,14-15,44.87-25.67,79.14-25.67s61.87,10.65,71.38,25.67c3.91,3.46,7.21,8.44,9.79,14.63q-2.31,3.93-4.45,8.23A171.26,171.26,0,0,0,412.73,112.85Z"/><path d="M612,28.59A59.61,59.61,0,0,0,603,52.05L598,85.7a45.8,45.8,0,0,1-26.76,9H531c-11.22,0-21.73,9.14-23.41,20.36s6.13,20.25,17.35,20.25h40.29a34.73,34.73,0,0,1,24.06,9.08L585,173.29a51,51,0,0,0,2.85,26.55C579,209.63,566.39,216,553.2,216H512.84c-34.27,0-62-10.66-71.48-25.67-7.68-6.81-13.05-19.48-15.19-35.61a143.43,143.43,0,0,1,.73-39.58A160.2,160.2,0,0,1,438,75.48c6.95-16.17,16.08-28.88,25.8-35.69,14-15,44.87-25.67,79.13-25.67h40.35C595.67,14.12,605.91,19.76,612,28.59Z"/><path class="cls-1" d="M819.09,54.08l-9.5,63.74-19.27,29.67a14.25,14.25,0,0,0-1.23,2.35,60.43,60.43,0,0,0-9,23.56A50.35,50.35,0,0,0,784.7,204a46.63,46.63,0,0,1-30,11.56c-22.28,0-37.75-18-34.44-40.33C721.92,164,714.32,155,703.18,155S681.6,164,679.94,175.18c-3.32,22.29-24.06,40.33-46.34,40.33-20.89,0-35.8-15.88-34.83-36.23a38.93,38.93,0,0,1,.4-4.1l.78-5.27L616.33,60.05l.89-6a38.08,38.08,0,0,1,.75-3.8c5-20.5,24.71-36.64,45.72-36.64C686,13.64,701.3,31.8,698,54.08c-1.66,11.14,6.09,20.11,17.23,20.11s21.43-9,23.1-20.11c3.31-22.28,24.18-40.44,46.46-40.44S822.41,31.8,819.09,54.08Z"/><path d="M804.5,151.93,823.28,123l57.31-87.93.24-.27C889.58,22.44,904,14,919.29,14s27.08,8.47,32.14,20.83l.17.46,41.57,118.83.49,1.2a36.35,36.35,0,0,1,2.44,20.22c-3.32,22.28-24.05,40.33-46.34,40.33-15,0-26.77-8.12-32-20.22L912,180.3l-3.8-10.84a17.68,17.68,0,0,0-11.5-4.12A22.72,22.72,0,0,0,884,169.46l-17,25.47-.48.69c-8.71,12.1-23,20.22-37.88,20.22-10.46,0-19.41-4-25.63-10.49a33,33,0,0,1-7.88-13.83,37.79,37.79,0,0,1-.94-16,46.51,46.51,0,0,1,8.47-20.22Z"/><path class="cls-2" d="M258.65,84.51a108.32,108.32,0,0,1,16.47-24.77c-4.29-14-17-23.75-33.29-23.75-15.14,0-15.14,0-34.51,16l-3.75,4.17L163,91.57l-30.1-35.36-1.84-3C115.76,36,115.76,36,100.63,36,78.34,36,57.47,54.15,54.16,76.43L36.1,197.53c-3.31,22.28,12.16,40.33,34.44,40.33s43-18.05,46.33-40.33l2-13.68c6.13,8.35,16.12,13.68,28.23,13.68s23.69-5.33,32.32-13.68l-2.05,13.68c-3.31,22.28,12,40.33,34.33,40.33,17.18,0,33.53-10.75,41.62-25.9-10.92-17.82-14.79-45.83-10.13-77.09A171.63,171.63,0,0,1,258.65,84.51Z"/><path class="cls-2" d="M434.75,134.87c-3.43,23-2.24,44.25,3,61-4.76,7-10,12.55-15.36,16.33-14,15-44.75,25.68-79,25.68s-62-10.66-71.49-25.68c-5.44-4.82-9.71-12.57-12.51-22.41-4-14.14-5-32.58-2-52.79s9.48-38.71,17.72-52.87c5.72-9.87,12.3-17.64,19.18-22.45,14-15,44.88-25.67,79.15-25.67s61.87,10.65,71.38,25.67c3.91,3.46,7.21,8.44,9.79,14.63q-2.33,3.93-4.45,8.22A171.33,171.33,0,0,0,434.75,134.87Z"/><path class="cls-2" d="M634,50.61a59.4,59.4,0,0,0-8.93,23.46l-5,33.65a45.79,45.79,0,0,1-26.76,9H553c-11.22,0-21.73,9.15-23.4,20.37s6.13,20.24,17.35,20.24h40.29a34.7,34.7,0,0,1,24,9.09L607,195.3a51.09,51.09,0,0,0,2.84,26.56c-8.79,9.79-21.43,16.12-34.62,16.12H534.86c-34.27,0-62-10.66-71.48-25.67-7.69-6.81-13.05-19.48-15.19-35.61a143.41,143.41,0,0,1,.72-39.58A160.72,160.72,0,0,1,460,97.49c6.94-16.17,16.08-28.87,25.8-35.68,14-15,44.86-25.67,79.13-25.67h40.35C617.68,36.14,627.92,41.78,634,50.61Z"/><path class="cls-2" d="M841.11,76.1l-9.51,63.73-19.26,29.68a14.31,14.31,0,0,0-1.24,2.35,60.41,60.41,0,0,0-9,23.56A50.31,50.31,0,0,0,806.72,226a46.6,46.6,0,0,1-30,11.56c-22.28,0-37.75-18-34.43-40.32,1.66-11.14-5.95-20.22-17.09-20.22S703.62,186.06,702,197.2c-3.32,22.28-24.06,40.32-46.34,40.32-20.9,0-35.81-15.87-34.84-36.22.06-1.35.2-2.71.4-4.1l.79-5.28L638.34,82.07l.89-6c.19-1.28.45-2.54.76-3.8,5-20.5,24.71-36.64,45.72-36.64,22.28,0,37.61,18.16,34.3,40.44-1.67,11.14,6.09,20.11,17.23,20.11s21.43-9,23.1-20.11c3.31-22.28,24.18-40.44,46.46-40.44S844.42,53.82,841.11,76.1Z"/><path class="cls-2" d="M826.52,174,845.3,145l57.31-87.93.23-.28C911.6,44.46,926.05,36,941.31,36s27.08,8.47,32.13,20.82l.17.47,41.58,118.83.49,1.2a36.33,36.33,0,0,1,2.44,20.22c-3.33,22.28-24.06,40.33-46.34,40.33-15,0-26.77-8.12-32-20.23l-5.74-15.31-3.8-10.84a17.7,17.7,0,0,0-11.5-4.12A22.72,22.72,0,0,0,906,191.48L889,217l-.47.68c-8.71,12.11-23,20.23-37.89,20.23-10.45,0-19.4-4-25.62-10.5a33.17,33.17,0,0,1-7.89-13.82,38,38,0,0,1-.93-16,46.57,46.57,0,0,1,8.46-20.22Z"/><path class="cls-2" d="M256.45,82.31a108.32,108.32,0,0,1,16.47-24.77c-4.29-14-17-23.76-33.3-23.76-15.13,0-15.13,0-34.5,16.06L201.37,54,160.75,89.37,130.65,54l-1.84-3c-15.25-17.2-15.25-17.2-30.39-17.2C76.14,33.78,55.27,52,52,74.23L33.9,195.33c-3.31,22.28,12.15,40.32,34.44,40.32s43-18,46.33-40.32l2-13.69c6.13,8.36,16.12,13.69,28.23,13.69s23.69-5.33,32.32-13.69l-2.05,13.69c-3.31,22.28,12,40.32,34.33,40.32,17.18,0,33.53-10.74,41.62-25.89-10.92-17.82-14.79-45.83-10.14-77.09A171.94,171.94,0,0,1,256.45,82.31Z"/><path class="cls-2" d="M432.54,132.67c-3.42,23-2.23,44.25,3,61-4.76,7-10,12.55-15.36,16.34-14,15-44.75,25.67-79,25.67S279.17,225,269.66,210c-5.44-4.82-9.71-12.57-12.51-22.41-4-14.14-5-32.58-2-52.79s9.48-38.71,17.71-52.88c5.73-9.86,12.31-17.63,19.19-22.44,14-15,44.87-25.68,79.15-25.68s61.87,10.66,71.38,25.68c3.91,3.45,7.21,8.44,9.78,14.63Q450.09,78,448,82.31A171.64,171.64,0,0,0,432.54,132.67Z"/><path class="cls-2" d="M631.79,48.41a59.52,59.52,0,0,0-8.94,23.46l-5,33.65a45.74,45.74,0,0,1-26.75,9H550.8c-11.22,0-21.73,9.15-23.4,20.37s6.13,20.24,17.35,20.24H585a34.7,34.7,0,0,1,24.05,9.09L604.8,193.1a51.09,51.09,0,0,0,2.84,26.56c-8.79,9.79-21.43,16.12-34.62,16.12H532.65c-34.26,0-62-10.66-71.48-25.67-7.68-6.82-13-19.49-15.19-35.61a143.43,143.43,0,0,1,.73-39.58,160.29,160.29,0,0,1,11.1-39.63c6.94-16.17,16.08-28.87,25.8-35.68,14-15,44.86-25.67,79.13-25.67h40.35C615.48,33.94,625.72,39.58,631.79,48.41Z"/><path class="cls-2" d="M838.91,73.9l-9.51,63.73-19.26,29.68a14.22,14.22,0,0,0-1.24,2.34,60.37,60.37,0,0,0-9,23.56,50.4,50.4,0,0,0,4.62,30.55,46.56,46.56,0,0,1-30,11.56c-22.28,0-37.75-18-34.43-40.32,1.66-11.14-6-20.22-17.09-20.22s-21.58,9.08-23.24,20.22c-3.31,22.28-24,40.32-46.33,40.32-20.9,0-35.81-15.87-34.84-36.23.06-1.34.2-2.71.4-4.09l.78-5.28L636.14,79.87l.89-6c.19-1.28.44-2.54.75-3.8,5-20.51,24.72-36.65,45.72-36.65,22.28,0,37.62,18.17,34.31,40.45C716.14,85,723.9,94,735,94s21.43-9,23.09-20.1c3.31-22.28,24.19-40.45,46.47-40.45S842.22,51.62,838.91,73.9Z"/><path class="cls-2" d="M824.32,171.75l18.78-28.93,57.31-87.94.23-.27c8.76-12.35,23.21-20.83,38.47-20.83s27.08,8.48,32.13,20.83l.17.46L1013,173.91l.48,1.2a36.33,36.33,0,0,1,2.45,20.22c-3.33,22.28-24.06,40.32-46.34,40.32-15,0-26.77-8.11-32-20.22l-5.74-15.31L928,189.27a17.7,17.7,0,0,0-11.49-4.11,22.85,22.85,0,0,0-12.73,4.11l-17,25.48-.48.68c-8.7,12.11-23,20.22-37.88,20.22-10.46,0-19.41-4-25.63-10.49A33.26,33.26,0,0,1,815,211.34a37.8,37.8,0,0,1-.93-16,46.57,46.57,0,0,1,8.46-20.22Z"/><path class="cls-2" d="M254.24,80.11a109,109,0,0,1,16.47-24.77c-4.28-14-16.95-23.76-33.29-23.76-15.13,0-15.13,0-34.5,16.05l-3.75,4.18L158.54,87.17,128.45,51.81l-1.84-3c-15.25-17.2-15.25-17.2-30.39-17.2C73.94,31.58,53.07,49.75,49.75,72l-18,121.1c-3.31,22.28,12.15,40.32,34.43,40.32s43-18,46.34-40.32l2-13.69c6.13,8.36,16.12,13.69,28.23,13.69s23.69-5.33,32.32-13.69l-2,13.69c-3.31,22.28,12,40.32,34.33,40.32,17.18,0,33.53-10.74,41.62-25.89-10.92-17.82-14.8-45.83-10.14-77.1A172.16,172.16,0,0,1,254.24,80.11Z"/><path class="cls-2" d="M430.34,130.46c-3.42,23-2.23,44.26,3,61-4.76,7-10,12.55-15.36,16.34-14,15-44.75,25.67-79,25.67s-62-10.65-71.5-25.67C262,203,257.74,195.21,255,185.37c-4-14.14-5-32.58-2-52.79s9.48-38.71,17.71-52.88c5.73-9.86,12.31-17.63,19.19-22.44,14-15,44.87-25.68,79.14-25.68s61.87,10.66,71.39,25.68c3.9,3.45,7.21,8.44,9.78,14.63q-2.31,3.93-4.45,8.22A171.86,171.86,0,0,0,430.34,130.46Z"/><path class="cls-2" d="M629.59,46.21a59.38,59.38,0,0,0-8.94,23.45l-5,33.66a45.79,45.79,0,0,1-26.75,9H548.6c-11.22,0-21.73,9.15-23.4,20.37S531.33,153,542.55,153h40.29a34.73,34.73,0,0,1,24,9.09l-4.3,28.85a51.19,51.19,0,0,0,2.85,26.56c-8.79,9.79-21.44,16.11-34.62,16.11H530.45c-34.26,0-62-10.65-71.48-25.66-7.68-6.82-13-19.49-15.19-35.61a143.43,143.43,0,0,1,.73-39.58A160.72,160.72,0,0,1,455.6,93.09c6.95-16.17,16.09-28.87,25.81-35.68,14-15,44.86-25.67,79.13-25.67h40.35C613.28,31.74,623.52,37.37,629.59,46.21Z"/><path class="cls-2" d="M836.7,71.7l-9.5,63.73-19.26,29.68a13.5,13.5,0,0,0-1.24,2.34,60.37,60.37,0,0,0-9,23.56,50.4,50.4,0,0,0,4.62,30.55,46.56,46.56,0,0,1-30,11.56c-22.28,0-37.75-18-34.43-40.33,1.66-11.14-6-20.22-17.09-20.22s-21.58,9.08-23.24,20.22c-3.31,22.29-24.06,40.33-46.34,40.33-20.89,0-35.8-15.87-34.83-36.23a39.19,39.19,0,0,1,.4-4.1l.78-5.27L633.94,77.67l.89-6c.19-1.28.44-2.54.75-3.8,5-20.51,24.71-36.65,45.72-36.65,22.28,0,37.62,18.17,34.31,40.45-1.67,11.14,6.08,20.1,17.22,20.1s21.44-9,23.1-20.1c3.31-22.28,24.19-40.45,46.47-40.45S840,49.42,836.7,71.7Z"/><path class="cls-2" d="M822.12,169.55l18.78-28.94,57.31-87.93.23-.27c8.75-12.35,23.21-20.83,38.47-20.83S964,40.06,969,52.41l.17.46,41.58,118.84.48,1.19a36.38,36.38,0,0,1,2.45,20.23c-3.33,22.28-24.06,40.32-46.34,40.32-15,0-26.77-8.11-32-20.22l-5.74-15.31-3.81-10.85A17.71,17.71,0,0,0,914.35,183a22.86,22.86,0,0,0-12.73,4.12l-17,25.48-.48.68c-8.71,12.11-23,20.22-37.88,20.22-10.46,0-19.41-4-25.63-10.49a33.23,33.23,0,0,1-7.88-13.83,37.9,37.9,0,0,1-.94-16,46.79,46.79,0,0,1,8.47-20.23Z"/><path class="cls-2" d="M252,77.91a108.76,108.76,0,0,1,16.47-24.77c-4.28-14-16.95-23.76-33.29-23.76-15.14,0-15.14,0-34.51,16.05L197,49.6,156.34,85,126.24,49.6l-1.83-3c-15.25-17.2-15.25-17.2-30.39-17.2-22.28,0-43.15,18.17-46.47,40.45l-18,121.1c-3.32,22.28,12.15,40.32,34.43,40.32s43-18,46.34-40.32l2-13.69c6.13,8.36,16.11,13.69,28.22,13.69s23.7-5.33,32.33-13.69l-2.05,13.69c-3.32,22.28,12,40.32,34.32,40.32,17.19,0,33.54-10.74,41.63-25.89-10.92-17.83-14.8-45.83-10.14-77.1A172.16,172.16,0,0,1,252,77.91Z"/><path class="cls-2" d="M428.14,128.26c-3.42,23-2.23,44.26,3,61-4.76,7-10,12.55-15.36,16.34-14,15-44.75,25.67-79,25.67s-62-10.66-71.49-25.67c-5.44-4.82-9.71-12.57-12.5-22.42-4-14.13-5-32.57-2-52.78s9.48-38.71,17.71-52.88c5.73-9.86,12.31-17.64,19.19-22.45,14-15,44.87-25.67,79.14-25.67S428.7,40,438.21,55.05c3.91,3.46,7.21,8.45,9.79,14.63q-2.31,3.93-4.45,8.23A171.86,171.86,0,0,0,428.14,128.26Z"/><path class="cls-2" d="M627.38,44a59.51,59.51,0,0,0-8.93,23.45l-5,33.66a45.85,45.85,0,0,1-26.75,9H546.4c-11.22,0-21.73,9.15-23.41,20.36s6.14,20.25,17.35,20.25h40.3a34.69,34.69,0,0,1,24.05,9.09l-4.3,28.85a51.16,51.16,0,0,0,2.85,26.55c-8.79,9.79-21.44,16.12-34.62,16.12H528.25c-34.26,0-62-10.65-71.48-25.67-7.68-6.81-13-19.48-15.19-35.6a143.51,143.51,0,0,1,.73-39.59A160.33,160.33,0,0,1,453.4,90.89c7-16.17,16.08-28.87,25.8-35.69,14-15,44.87-25.66,79.13-25.66h40.36C611.08,29.54,621.32,35.17,627.38,44Z"/><path class="cls-2" d="M834.5,69.5,825,133.23l-19.26,29.68a13.5,13.5,0,0,0-1.24,2.34,60.31,60.31,0,0,0-9,23.56,50.33,50.33,0,0,0,4.62,30.55,46.56,46.56,0,0,1-30,11.56c-22.28,0-37.75-18-34.44-40.33,1.67-11.14-5.94-20.22-17.08-20.22s-21.58,9.08-23.24,20.22C692,212.88,671.29,230.92,649,230.92c-20.89,0-35.8-15.88-34.83-36.23a38.93,38.93,0,0,1,.4-4.1l.78-5.27L631.74,75.47l.89-6c.19-1.28.44-2.54.75-3.8,5-20.51,24.71-36.65,45.72-36.65,22.28,0,37.62,18.17,34.31,40.45-1.67,11.14,6.08,20.1,17.22,20.1s21.43-9,23.1-20.1C757,47.22,777.92,29.05,800.2,29.05S837.82,47.22,834.5,69.5Z"/><path class="cls-2" d="M819.91,167.34l18.79-28.93L896,50.48l.24-.27C905,37.86,919.45,29.38,934.7,29.38s27.09,8.48,32.14,20.83l.17.46,41.58,118.83.48,1.2a36.38,36.38,0,0,1,2.44,20.23c-3.32,22.28-24,40.32-46.33,40.32-15,0-26.78-8.11-32-20.22l-5.74-15.32-3.81-10.84a17.71,17.71,0,0,0-11.49-4.12,22.86,22.86,0,0,0-12.73,4.12l-17,25.47L882,211c-8.71,12.11-23,20.22-37.88,20.22-10.46,0-19.41-4-25.63-10.49a33.23,33.23,0,0,1-7.88-13.83,37.75,37.75,0,0,1-.94-16,46.67,46.67,0,0,1,8.47-20.23Z"/><path class="cls-2" d="M249.84,75.71a108.1,108.1,0,0,1,16.47-24.77C262,36.94,249.36,27.18,233,27.18c-15.14,0-15.14,0-34.51,16l-3.75,4.17L154.14,82.76,124,47.4l-1.83-3C107,27.18,107,27.18,91.82,27.18c-22.28,0-43.16,18.16-46.47,40.45l-18,121.09C24,211,39.45,229.05,61.73,229.05s43-18,46.34-40.33L110.12,175c6.13,8.36,16.11,13.68,28.22,13.68S162,183.4,170.66,175l-2,13.68c-3.32,22.29,12,40.33,34.32,40.33,17.19,0,33.54-10.75,41.63-25.89-10.92-17.83-14.8-45.83-10.14-77.1A171.86,171.86,0,0,1,249.84,75.71Z"/><path class="cls-2" d="M425.94,126.06c-3.42,23-2.24,44.26,3,61-4.75,7-10,12.55-15.35,16.34-14,15-44.76,25.67-79,25.67s-62-10.66-71.49-25.67c-5.44-4.83-9.71-12.58-12.5-22.42-4-14.13-5-32.57-2-52.79s9.47-38.7,17.71-52.87c5.72-9.87,12.31-17.64,19.19-22.45,14-15,44.87-25.67,79.14-25.67S426.5,37.84,436,52.85c3.91,3.46,7.21,8.45,9.79,14.63q-2.31,3.93-4.45,8.23A171.56,171.56,0,0,0,425.94,126.06Z"/><path class="cls-2" d="M625.18,41.8a59.61,59.61,0,0,0-8.93,23.46l-5,33.66a45.86,45.86,0,0,1-26.76,9H544.2c-11.22,0-21.73,9.14-23.41,20.36s6.13,20.25,17.35,20.25h40.3a34.73,34.73,0,0,1,24,9.08l-4.3,28.86A51.05,51.05,0,0,0,601,213.05c-8.79,9.79-21.44,16.12-34.62,16.12H526.05c-34.27,0-62-10.65-71.48-25.67-7.68-6.81-13-19.48-15.19-35.61a143.44,143.44,0,0,1,.73-39.58A160.2,160.2,0,0,1,451.2,88.69C458.15,72.52,467.28,59.82,477,53c14-15,44.87-25.67,79.13-25.67h40.35C608.88,27.33,619.12,33,625.18,41.8Z"/><path class="cls-2" d="M832.3,67.29,822.8,131,803.53,160.7a14.25,14.25,0,0,0-1.23,2.35,60.49,60.49,0,0,0-9,23.56,50.34,50.34,0,0,0,4.63,30.55,46.63,46.63,0,0,1-30,11.56c-22.28,0-37.75-18-34.44-40.33,1.66-11.14-5.94-20.22-17.08-20.22s-21.58,9.08-23.24,20.22c-3.32,22.29-24.06,40.33-46.34,40.33-20.89,0-35.8-15.88-34.83-36.23a38.93,38.93,0,0,1,.4-4.1l.78-5.27L629.54,73.26l.89-6a38.65,38.65,0,0,1,.75-3.8c5-20.5,24.71-36.64,45.72-36.64,22.28,0,37.61,18.16,34.3,40.44-1.66,11.15,6.09,20.11,17.23,20.11s21.43-9,23.1-20.11C754.84,45,775.71,26.85,798,26.85S835.62,45,832.3,67.29Z"/><path class="cls-2" d="M817.71,165.14l18.78-28.93L893.8,48.28,894,48c8.75-12.35,23.2-20.83,38.46-20.83S959.58,35.66,964.64,48l.17.46,41.58,118.83.48,1.2a36.35,36.35,0,0,1,2.44,20.22c-3.32,22.29-24,40.33-46.33,40.33-15,0-26.78-8.11-32-20.22l-5.73-15.32-3.81-10.84A17.73,17.73,0,0,0,910,178.55a22.83,22.83,0,0,0-12.73,4.12l-17,25.47-.48.69c-8.71,12.11-23,20.22-37.88,20.22-10.46,0-19.41-4-25.63-10.49a33.13,33.13,0,0,1-7.88-13.83,37.78,37.78,0,0,1-.94-16,46.63,46.63,0,0,1,8.47-20.22Z"/><path class="cls-2" d="M247.64,73.5a108.32,108.32,0,0,1,16.47-24.77c-4.28-14-17-23.75-33.29-23.75-15.14,0-15.14,0-34.51,16.05l-3.75,4.17L151.94,80.56,121.84,45.2l-1.84-3C104.75,25,104.75,25,89.62,25,67.33,25,46.46,43.14,43.15,65.42L25.09,186.52c-3.31,22.28,12.16,40.33,34.44,40.33s43-18,46.34-40.33l2-13.68c6.14,8.35,16.12,13.68,28.23,13.68s23.69-5.33,32.32-13.68l-2.05,13.68c-3.31,22.28,12,40.33,34.33,40.33,17.19,0,33.53-10.75,41.63-25.9-10.93-17.82-14.8-45.83-10.14-77.09A171.72,171.72,0,0,1,247.64,73.5Z"/><path class="cls-2" d="M423.74,123.86c-3.43,23-2.24,44.25,3,61-4.75,7-10,12.55-15.36,16.33-14,15-44.75,25.68-79,25.68s-62-10.66-71.49-25.68c-5.44-4.82-9.71-12.57-12.51-22.41-4-14.14-5-32.57-2-52.79s9.48-38.7,17.72-52.87c5.72-9.87,12.31-17.64,19.19-22.45,14-15,44.87-25.67,79.14-25.67s61.87,10.65,71.38,25.67c3.91,3.46,7.21,8.44,9.79,14.63q-2.31,3.93-4.45,8.22A171.42,171.42,0,0,0,423.74,123.86Z"/><path class="cls-2" d="M623,39.6a59.4,59.4,0,0,0-8.93,23.46l-5,33.65a45.8,45.8,0,0,1-26.76,9H542c-11.21,0-21.72,9.14-23.4,20.36s6.13,20.25,17.35,20.25h40.29a34.69,34.69,0,0,1,24,9.08L596,184.29a51.08,51.08,0,0,0,2.84,26.56C590,220.64,577.4,227,564.21,227H523.85c-34.27,0-62-10.66-71.48-25.67-7.69-6.81-13.05-19.48-15.19-35.61a143.8,143.8,0,0,1,.72-39.58A160.64,160.64,0,0,1,449,86.49c6.94-16.17,16.08-28.88,25.8-35.69,14-15,44.86-25.67,79.13-25.67h40.35C606.68,25.13,616.92,30.77,623,39.6Z"/><path class="cls-2" d="M830.1,65.09l-9.5,63.74L801.33,158.5a14.25,14.25,0,0,0-1.23,2.35,60.43,60.43,0,0,0-9,23.56A50.35,50.35,0,0,0,795.71,215a46.65,46.65,0,0,1-30,11.55c-22.28,0-37.74-18-34.43-40.32,1.66-11.14-5.94-20.22-17.09-20.22s-21.57,9.08-23.23,20.22c-3.32,22.29-24.06,40.32-46.34,40.32-20.89,0-35.8-15.87-34.83-36.22a38.93,38.93,0,0,1,.4-4.1l.78-5.27L627.33,71.06l.9-6a38.08,38.08,0,0,1,.75-3.8c5-20.5,24.71-36.64,45.72-36.64,22.28,0,37.61,18.16,34.3,40.44-1.66,11.14,6.09,20.11,17.23,20.11s21.43-9,23.1-20.11c3.31-22.28,24.18-40.44,46.46-40.44S833.41,42.81,830.1,65.09Z"/><path class="cls-2" d="M815.51,162.94,834.29,134,891.6,46.08l.24-.27C900.59,33.45,915,25,930.3,25s27.08,8.47,32.14,20.83l.16.46,41.58,118.83.49,1.2a36.33,36.33,0,0,1,2.44,20.22c-3.32,22.28-24.05,40.33-46.34,40.33-15,0-26.77-8.12-32-20.23L923,191.31l-3.8-10.84a17.7,17.7,0,0,0-11.5-4.12A22.72,22.72,0,0,0,895,180.47l-17,25.47-.47.68c-8.71,12.11-23,20.23-37.88,20.23-10.46,0-19.41-4-25.63-10.49a33.27,33.27,0,0,1-7.89-13.83,38,38,0,0,1-.93-16,46.57,46.57,0,0,1,8.46-20.22Z"/><path class="cls-2" d="M245.44,71.3a108.32,108.32,0,0,1,16.47-24.77c-4.29-14-17-23.75-33.29-23.75-15.14,0-15.14,0-34.51,16L190.36,43,149.74,78.36,119.64,43l-1.84-3c-15.25-17.19-15.25-17.19-30.38-17.19C65.13,22.78,44.26,40.94,41,63.22L22.89,184.32c-3.31,22.28,12.16,40.33,34.44,40.33s43-18.05,46.33-40.33l2-13.68c6.13,8.35,16.12,13.68,28.23,13.68s23.69-5.33,32.32-13.68l-2,13.68c-3.31,22.28,12,40.33,34.33,40.33,17.18,0,33.53-10.75,41.62-25.9-10.92-17.82-14.79-45.83-10.14-77.09A171.94,171.94,0,0,1,245.44,71.3Z"/><path class="cls-2" d="M421.54,121.66c-3.43,23-2.24,44.25,3,61-4.76,7-10,12.55-15.36,16.33-14,15-44.75,25.68-79,25.68S268.16,214,258.65,199c-5.44-4.82-9.71-12.57-12.51-22.41-4-14.14-5-32.58-2-52.79s9.48-38.71,17.72-52.87c5.72-9.87,12.3-17.64,19.18-22.45,14-15,44.88-25.67,79.15-25.67s61.87,10.65,71.38,25.67c3.91,3.45,7.21,8.44,9.79,14.63Q439.08,67,437,71.3A171.33,171.33,0,0,0,421.54,121.66Z"/><path class="cls-2" d="M620.78,37.4a59.35,59.35,0,0,0-8.93,23.46l-5,33.65a45.74,45.74,0,0,1-26.75,9H539.79c-11.22,0-21.73,9.15-23.4,20.37s6.13,20.24,17.35,20.24H574a34.7,34.7,0,0,1,24.05,9.09l-4.29,28.85a51.09,51.09,0,0,0,2.84,26.56c-8.79,9.79-21.43,16.12-34.62,16.12H521.65c-34.27,0-62-10.66-71.48-25.67-7.69-6.82-13.05-19.48-15.19-35.61a143.41,143.41,0,0,1,.72-39.58,160.72,160.72,0,0,1,11.1-39.63c6.94-16.17,16.08-28.87,25.8-35.68,14-15,44.86-25.67,79.13-25.67h40.35C604.47,22.93,614.71,28.57,620.78,37.4Z"/><path class="cls-2" d="M827.9,62.89l-9.51,63.73L799.13,156.3a14.31,14.31,0,0,0-1.24,2.35,60.26,60.26,0,0,0-9,23.56,50.31,50.31,0,0,0,4.63,30.54,46.6,46.6,0,0,1-30,11.56c-22.28,0-37.75-18-34.43-40.32,1.66-11.14-6-20.22-17.09-20.22s-21.57,9.08-23.24,20.22c-3.31,22.28-24,40.32-46.33,40.32-20.9,0-35.81-15.87-34.84-36.23.06-1.34.2-2.7.4-4.09l.79-5.28L625.13,68.86l.89-6c.19-1.28.45-2.54.76-3.8,5-20.5,24.71-36.65,45.71-36.65,22.29,0,37.62,18.17,34.31,40.45C705.13,74,712.89,83,724,83s21.43-9,23.1-20.11c3.31-22.28,24.18-40.45,46.46-40.45S831.21,40.61,827.9,62.89Z"/><path class="cls-2" d="M813.31,160.74l18.78-28.93L889.4,43.88l.23-.28c8.76-12.35,23.21-20.82,38.47-20.82s27.08,8.47,32.13,20.82l.17.47L1002,162.9l.48,1.2a36.25,36.25,0,0,1,2.45,20.22c-3.33,22.28-24.06,40.33-46.34,40.33-15,0-26.77-8.12-32-20.23l-5.74-15.31L917,178.27a17.7,17.7,0,0,0-11.5-4.12,22.72,22.72,0,0,0-12.72,4.12l-17,25.47-.47.68c-8.71,12.11-23,20.23-37.89,20.23-10.45,0-19.4-4-25.62-10.5A33.17,33.17,0,0,1,804,200.33a37.8,37.8,0,0,1-.93-16,46.57,46.57,0,0,1,8.46-20.22Z"/><path class="cls-2" d="M243.24,69.1A108.63,108.63,0,0,1,259.7,44.33c-4.28-14-16.95-23.76-33.29-23.76-15.13,0-15.13,0-34.5,16.06l-3.75,4.17L147.53,76.16,117.44,40.8l-1.84-3c-15.25-17.2-15.25-17.2-30.39-17.2C62.93,20.57,42.06,38.74,38.74,61l-18,121.1c-3.31,22.28,12.15,40.32,34.44,40.32s43-18,46.33-40.32l2.05-13.69c6.13,8.36,16.12,13.69,28.23,13.69s23.69-5.33,32.32-13.69L162,182.12c-3.31,22.28,12,40.32,34.33,40.32,17.18,0,33.53-10.74,41.62-25.89-10.92-17.82-14.79-45.83-10.14-77.09A171.94,171.94,0,0,1,243.24,69.1Z"/><path class="cls-2" d="M419.33,119.46c-3.42,23-2.23,44.25,3,61-4.76,7-10,12.55-15.36,16.34-14,15-44.75,25.67-79,25.67s-62-10.65-71.49-25.67c-5.44-4.82-9.71-12.57-12.51-22.41-4-14.14-5-32.58-2-52.79s9.48-38.71,17.71-52.88c5.73-9.86,12.31-17.63,19.19-22.44,14-15,44.87-25.68,79.14-25.68s61.88,10.66,71.39,25.68c3.9,3.45,7.21,8.44,9.78,14.63q-2.31,3.93-4.44,8.22A171.64,171.64,0,0,0,419.33,119.46Z"/><path class="cls-2" d="M618.58,35.2a59.36,59.36,0,0,0-8.94,23.46l-5,33.65a45.79,45.79,0,0,1-26.75,9H537.59c-11.22,0-21.73,9.15-23.4,20.37S520.32,142,531.54,142h40.29a34.71,34.71,0,0,1,24,9.09l-4.3,28.85a51.19,51.19,0,0,0,2.85,26.56c-8.79,9.79-21.44,16.12-34.62,16.12H519.44c-34.26,0-62-10.66-71.48-25.67-7.68-6.82-13-19.49-15.19-35.61a143.43,143.43,0,0,1,.73-39.58,160.29,160.29,0,0,1,11.1-39.63c6.94-16.17,16.08-28.87,25.8-35.68,14-15,44.86-25.67,79.13-25.67h40.35C602.27,20.73,612.51,26.36,618.58,35.2Z"/><path class="cls-2" d="M825.7,60.69l-9.51,63.73L796.93,154.1a14.22,14.22,0,0,0-1.24,2.34,60.37,60.37,0,0,0-9,23.56,50.4,50.4,0,0,0,4.62,30.55,46.56,46.56,0,0,1-30,11.56c-22.28,0-37.75-18-34.43-40.32,1.66-11.14-6-20.22-17.09-20.22s-21.58,9.08-23.24,20.22c-3.31,22.28-24,40.32-46.33,40.32-20.9,0-35.81-15.87-34.84-36.23.06-1.34.2-2.71.4-4.09l.78-5.28L622.93,66.66l.89-6c.19-1.28.44-2.54.75-3.8,5-20.51,24.71-36.65,45.72-36.65,22.28,0,37.62,18.17,34.31,40.45-1.67,11.14,6.08,20.1,17.22,20.1s21.44-9,23.1-20.1c3.31-22.28,24.19-40.45,46.47-40.45S829,38.41,825.7,60.69Z"/><path class="cls-2" d="M811.11,158.54l18.78-28.93L887.2,41.67l.23-.27c8.75-12.35,23.21-20.83,38.47-20.83S953,29.05,958,41.4l.17.46L999.78,160.7l.48,1.19a36.38,36.38,0,0,1,2.45,20.23c-3.33,22.28-24.06,40.32-46.34,40.32-15,0-26.77-8.11-32-20.22l-5.74-15.31-3.81-10.85A17.7,17.7,0,0,0,903.34,172a22.85,22.85,0,0,0-12.73,4.11l-17,25.48-.48.68c-8.7,12.11-23,20.22-37.88,20.22-10.46,0-19.41-4-25.63-10.49a33.26,33.26,0,0,1-7.88-13.82,37.8,37.8,0,0,1-.93-16,46.66,46.66,0,0,1,8.46-20.23Z"/><path class="cls-2" d="M241,66.9A109,109,0,0,1,257.5,42.13c-4.28-14-16.95-23.76-33.29-23.76-15.14,0-15.14,0-34.5,16.05L186,38.6,145.33,74,115.23,38.6l-1.83-3C98.15,18.37,98.15,18.37,83,18.37c-22.28,0-43.15,18.17-46.47,40.45l-18,121.1c-3.32,22.28,12.15,40.32,34.43,40.32s43-18,46.34-40.32l2-13.69c6.13,8.36,16.12,13.69,28.23,13.69s23.69-5.33,32.32-13.69l-2.05,13.69c-3.31,22.28,12,40.32,34.33,40.32,17.18,0,33.53-10.74,41.62-25.89-10.92-17.82-14.8-45.83-10.14-77.1A172.16,172.16,0,0,1,241,66.9Z"/><path class="cls-2" d="M417.13,117.25c-3.42,23-2.23,44.26,3,61-4.76,7-10,12.55-15.36,16.34-14,15-44.75,25.67-79,25.67s-62-10.65-71.5-25.67c-5.43-4.82-9.71-12.57-12.5-22.41-4-14.14-5-32.58-2-52.79s9.48-38.71,17.71-52.88c5.73-9.86,12.31-17.63,19.19-22.45,14-15,44.87-25.67,79.14-25.67S417.69,29,427.2,44c3.91,3.46,7.22,8.45,9.79,14.64q-2.31,3.93-4.45,8.22A171.86,171.86,0,0,0,417.13,117.25Z"/><path class="cls-2" d="M616.38,33a59.38,59.38,0,0,0-8.94,23.45l-5,33.66a45.79,45.79,0,0,1-26.75,9H535.39c-11.22,0-21.73,9.15-23.4,20.37s6.13,20.24,17.35,20.24h40.29a34.73,34.73,0,0,1,24,9.09l-4.3,28.85a51.14,51.14,0,0,0,2.85,26.55c-8.79,9.79-21.44,16.12-34.62,16.12H517.24c-34.26,0-62-10.65-71.48-25.67-7.68-6.81-13-19.48-15.19-35.6a143.43,143.43,0,0,1,.73-39.58,160.28,160.28,0,0,1,11.09-39.63c6.95-16.17,16.09-28.87,25.8-35.69,14-15,44.87-25.66,79.13-25.66h40.36C600.07,18.53,610.31,24.16,616.38,33Z"/><path class="cls-2" d="M823.49,58.49,814,122.22,794.73,151.9a13.5,13.5,0,0,0-1.24,2.34,60.37,60.37,0,0,0-9,23.56,50.4,50.4,0,0,0,4.62,30.55,46.56,46.56,0,0,1-30,11.56c-22.28,0-37.75-18-34.43-40.33,1.66-11.14-5.95-20.22-17.09-20.22s-21.58,9.08-23.24,20.22C681,201.87,660.28,219.91,638,219.91c-20.89,0-35.8-15.88-34.83-36.23a39.19,39.19,0,0,1,.4-4.1l.78-5.27L620.73,64.46l.89-6c.19-1.28.44-2.54.75-3.8,5-20.51,24.71-36.65,45.72-36.65,22.28,0,37.62,18.17,34.31,40.45-1.67,11.14,6.08,20.1,17.22,20.1s21.44-9,23.1-20.1C746,36.21,766.91,18,789.19,18S826.81,36.21,823.49,58.49Z"/><path class="cls-2" d="M808.91,156.34l18.78-28.94L885,39.47l.23-.27C894,26.85,908.44,18.37,923.7,18.37s27.08,8.48,32.13,20.83l.17.46,41.58,118.83.48,1.2a36.29,36.29,0,0,1,2.44,20.23c-3.32,22.28-24,40.32-46.33,40.32-15,0-26.78-8.11-32-20.22l-5.74-15.31-3.81-10.85a17.71,17.71,0,0,0-11.49-4.12,22.86,22.86,0,0,0-12.73,4.12l-17,25.47L871,200c-8.71,12.11-23,20.22-37.88,20.22-10.46,0-19.41-4-25.63-10.49a33.23,33.23,0,0,1-7.88-13.83,37.91,37.91,0,0,1-.94-16,46.67,46.67,0,0,1,8.47-20.23Z"/><path class="cls-2" d="M238.83,64.7A108.43,108.43,0,0,1,255.3,39.93c-4.28-14-17-23.76-33.29-23.76-15.14,0-15.14,0-34.51,16l-3.75,4.17L143.13,71.75,113,36.39l-1.83-3C96,16.17,96,16.17,80.81,16.17c-22.28,0-43.16,18.16-46.47,40.45L16.29,177.71C13,200,28.44,218,50.72,218s43-18,46.34-40.33l2-13.68c6.13,8.36,16.11,13.68,28.22,13.68S151,172.39,159.66,164l-2,13.68C154.29,200,169.64,218,191.93,218c17.19,0,33.54-10.74,41.63-25.89-10.92-17.83-14.8-45.83-10.14-77.1A171.86,171.86,0,0,1,238.83,64.7Z"/><path class="cls-2" d="M414.93,115.05c-3.42,23-2.23,44.26,3,61-4.75,7-10,12.55-15.35,16.34-14,15-44.75,25.67-79,25.67s-62-10.66-71.49-25.67c-5.44-4.82-9.71-12.57-12.5-22.42-4-14.13-5-32.57-2-52.78s9.48-38.71,17.71-52.88c5.72-9.86,12.31-17.64,19.19-22.45,14-15,44.87-25.67,79.14-25.67S415.49,26.83,425,41.84c3.91,3.46,7.21,8.45,9.79,14.63q-2.31,3.93-4.45,8.23A171.86,171.86,0,0,0,414.93,115.05Z"/><path class="cls-2" d="M614.17,30.79a59.61,59.61,0,0,0-8.93,23.46l-5,33.66a45.85,45.85,0,0,1-26.75,9H533.19c-11.22,0-21.73,9.14-23.41,20.36s6.13,20.25,17.35,20.25h40.3a34.73,34.73,0,0,1,24.05,9.08l-4.3,28.86A51.16,51.16,0,0,0,590,202c-8.79,9.79-21.44,16.12-34.62,16.12H515c-34.26,0-62-10.65-71.48-25.67-7.68-6.81-13-19.48-15.19-35.6a143.51,143.51,0,0,1,.73-39.59,160.33,160.33,0,0,1,11.09-39.62C447.14,61.51,456.27,48.81,466,42c14-15,44.87-25.67,79.13-25.67h40.35C597.87,16.32,608.11,22,614.17,30.79Z"/><path class="cls-2" d="M821.29,56.29,811.79,120l-19.26,29.67a14,14,0,0,0-1.24,2.35,60.31,60.31,0,0,0-9,23.56,50.34,50.34,0,0,0,4.62,30.55,46.63,46.63,0,0,1-30,11.56c-22.28,0-37.75-18-34.44-40.33,1.66-11.14-5.94-20.22-17.08-20.22s-21.58,9.08-23.24,20.22c-3.32,22.29-24.06,40.33-46.34,40.33-20.89,0-35.8-15.88-34.83-36.23a38.93,38.93,0,0,1,.4-4.1l.78-5.27L618.53,62.26l.89-6c.19-1.28.44-2.54.75-3.8,5-20.51,24.71-36.65,45.72-36.65,22.28,0,37.61,18.16,34.31,40.45-1.67,11.14,6.08,20.1,17.22,20.1s21.43-9,23.1-20.1C743.83,34,764.7,15.84,787,15.84S824.61,34,821.29,56.29Z"/><path class="cls-2" d="M806.7,154.13l18.79-28.93,57.3-87.93L883,37c8.75-12.35,23.21-20.83,38.46-20.83S948.58,24.65,953.63,37l.17.46,41.58,118.83.48,1.2a36.35,36.35,0,0,1,2.44,20.22C995,200,974.25,218,952,218c-15,0-26.78-8.11-32-20.22l-5.73-15.32-3.81-10.84a17.73,17.73,0,0,0-11.49-4.12,22.83,22.83,0,0,0-12.73,4.12l-17,25.47-.48.69C860,209.93,845.76,218,830.87,218c-10.46,0-19.41-4-25.63-10.49a33.13,33.13,0,0,1-7.88-13.83,37.78,37.78,0,0,1-.94-16,46.63,46.63,0,0,1,8.47-20.22Z"/><path class="cls-2" d="M236.63,62.5A108.1,108.1,0,0,1,253.1,37.73C248.82,23.73,236.15,14,219.81,14c-15.14,0-15.14,0-34.51,16l-3.75,4.17L140.93,69.55l-30.1-35.36-1.84-3C93.75,14,93.75,14,78.61,14,56.33,14,35.45,32.13,32.14,54.41L14.08,175.51c-3.31,22.28,12.16,40.33,34.44,40.33s43-18.05,46.34-40.33l2-13.68c6.14,8.35,16.12,13.68,28.23,13.68s23.69-5.33,32.32-13.68l-2,13.68c-3.32,22.28,12,40.33,34.32,40.33,17.19,0,33.53-10.75,41.63-25.89-10.92-17.83-14.8-45.83-10.14-77.1A171.56,171.56,0,0,1,236.63,62.5Z"/><path class="cls-2" d="M412.73,112.85c-3.43,23-2.24,44.26,3,61-4.75,7-10,12.55-15.35,16.34-14,15-44.76,25.67-79,25.67s-62-10.66-71.49-25.67c-5.44-4.83-9.71-12.58-12.51-22.42-4-14.13-5-32.57-2-52.79s9.48-38.7,17.72-52.87c5.72-9.87,12.31-17.64,19.19-22.45,14-15,44.87-25.67,79.14-25.67s61.87,10.65,71.38,25.67c3.91,3.46,7.21,8.44,9.79,14.63q-2.31,3.93-4.45,8.23A171.26,171.26,0,0,0,412.73,112.85Z"/><path class="cls-2" d="M612,28.59A59.61,59.61,0,0,0,603,52.05L598,85.7a45.8,45.8,0,0,1-26.76,9H531c-11.22,0-21.73,9.14-23.41,20.36s6.13,20.25,17.35,20.25h40.29a34.73,34.73,0,0,1,24.06,9.08L585,173.29a51,51,0,0,0,2.85,26.55C579,209.63,566.39,216,553.2,216H512.84c-34.27,0-62-10.66-71.48-25.67-7.68-6.81-13.05-19.48-15.19-35.61a143.43,143.43,0,0,1,.73-39.58A160.2,160.2,0,0,1,438,75.48c6.95-16.17,16.08-28.88,25.8-35.69,14-15,44.87-25.67,79.13-25.67h40.35C595.67,14.12,605.91,19.76,612,28.59Z"/><path class="cls-2" d="M819.09,54.08l-9.5,63.74-19.27,29.67a14.25,14.25,0,0,0-1.23,2.35,60.43,60.43,0,0,0-9,23.56A50.35,50.35,0,0,0,784.7,204a46.63,46.63,0,0,1-30,11.56c-22.28,0-37.75-18-34.44-40.33C721.92,164,714.32,155,703.18,155S681.6,164,679.94,175.18c-3.32,22.29-24.06,40.33-46.34,40.33-20.89,0-35.8-15.88-34.83-36.23a38.93,38.93,0,0,1,.4-4.1l.78-5.27L616.33,60.05l.89-6a38.08,38.08,0,0,1,.75-3.8c5-20.5,24.71-36.64,45.72-36.64C686,13.64,701.3,31.8,698,54.08c-1.66,11.14,6.09,20.11,17.23,20.11s21.43-9,23.1-20.11c3.31-22.28,24.18-40.44,46.46-40.44S822.41,31.8,819.09,54.08Z"/><path class="cls-2" d="M804.5,151.93,823.28,123l57.31-87.93.24-.27C889.58,22.44,904,14,919.29,14s27.08,8.47,32.14,20.83l.17.46,41.57,118.83.49,1.2a36.35,36.35,0,0,1,2.44,20.22c-3.32,22.28-24.05,40.33-46.34,40.33-15,0-26.77-8.12-32-20.22L912,180.3l-3.8-10.84a17.68,17.68,0,0,0-11.5-4.12A22.72,22.72,0,0,0,884,169.46l-17,25.47-.48.69c-8.71,12.1-23,20.22-37.88,20.22-10.46,0-19.41-4-25.63-10.49a33,33,0,0,1-7.88-13.83,37.79,37.79,0,0,1-.94-16,46.51,46.51,0,0,1,8.47-20.22Z"/><path class="cls-1" d="M236.63,62.5A108.1,108.1,0,0,1,253.1,37.73C248.82,23.73,236.15,14,219.81,14c-15.14,0-15.14,0-34.51,16l-3.75,4.17L140.93,69.55l-30.1-35.36-1.84-3C93.75,14,93.75,14,78.61,14,56.33,14,35.45,32.13,32.14,54.41L14.08,175.51c-3.31,22.28,12.16,40.33,34.44,40.33s43-18.05,46.34-40.33l2-13.68c6.14,8.35,16.12,13.68,28.23,13.68s23.69-5.33,32.32-13.68l-2,13.68c-3.32,22.28,12,40.33,34.32,40.33,17.19,0,33.53-10.75,41.63-25.89-10.92-17.83-14.8-45.83-10.14-77.1A171.56,171.56,0,0,1,236.63,62.5Z"/><path class="cls-1" d="M412.73,112.85c-3.43,23-2.24,44.26,3,61-4.75,7-10,12.55-15.35,16.34-14,15-44.76,25.67-79,25.67s-62-10.66-71.49-25.67c-5.44-4.83-9.71-12.58-12.51-22.42-4-14.13-5-32.57-2-52.79s9.48-38.7,17.72-52.87c5.72-9.87,12.31-17.64,19.19-22.45,14-15,44.87-25.67,79.14-25.67s61.87,10.65,71.38,25.67c3.91,3.46,7.21,8.44,9.79,14.63q-2.31,3.93-4.45,8.23A171.26,171.26,0,0,0,412.73,112.85Z"/><path class="cls-1" d="M612,28.59A59.61,59.61,0,0,0,603,52.05L598,85.7a45.8,45.8,0,0,1-26.76,9H531c-11.22,0-21.73,9.14-23.41,20.36s6.13,20.25,17.35,20.25h40.29a34.73,34.73,0,0,1,24.06,9.08L585,173.29a51,51,0,0,0,2.85,26.55C579,209.63,566.39,216,553.2,216H512.84c-34.27,0-62-10.66-71.48-25.67-7.68-6.81-13.05-19.48-15.19-35.61a143.43,143.43,0,0,1,.73-39.58A160.2,160.2,0,0,1,438,75.48c6.95-16.17,16.08-28.88,25.8-35.69,14-15,44.87-25.67,79.13-25.67h40.35C595.67,14.12,605.91,19.76,612,28.59Z"/><path class="cls-1" d="M819.09,54.08l-9.5,63.74-19.27,29.67a14.25,14.25,0,0,0-1.23,2.35,60.43,60.43,0,0,0-9,23.56A50.35,50.35,0,0,0,784.7,204a46.63,46.63,0,0,1-30,11.56c-22.28,0-37.75-18-34.44-40.33C721.92,164,714.32,155,703.18,155S681.6,164,679.94,175.18c-3.32,22.29-24.06,40.33-46.34,40.33-20.89,0-35.8-15.88-34.83-36.23a38.93,38.93,0,0,1,.4-4.1l.78-5.27L616.33,60.05l.89-6a38.08,38.08,0,0,1,.75-3.8c5-20.5,24.71-36.64,45.72-36.64C686,13.64,701.3,31.8,698,54.08c-1.66,11.14,6.09,20.11,17.23,20.11s21.43-9,23.1-20.11c3.31-22.28,24.18-40.44,46.46-40.44S822.41,31.8,819.09,54.08Z"/><path class="cls-1" d="M804.5,151.93,823.28,123l57.31-87.93.24-.27C889.58,22.44,904,14,919.29,14s27.08,8.47,32.14,20.83l.17.46,41.57,118.83.49,1.2a36.35,36.35,0,0,1,2.44,20.22c-3.32,22.28-24.05,40.33-46.34,40.33-15,0-26.77-8.12-32-20.22L912,180.3l-3.8-10.84a17.68,17.68,0,0,0-11.5-4.12A22.72,22.72,0,0,0,884,169.46l-17,25.47-.48.69c-8.71,12.1-23,20.22-37.88,20.22-10.46,0-19.41-4-25.63-10.49a33,33,0,0,1-7.88-13.83,37.79,37.79,0,0,1-.94-16,46.51,46.51,0,0,1,8.47-20.22Z"/></g></g></svg>