<svg xmlns="http://www.w3.org/2000/svg" viewBox="0 0 190.33 36.11"><defs><style>.cls-1{fill:#fff;}</style></defs><g id="Layer_2" data-name="Layer 2"><g id="Layer_2-2" data-name="Layer 2"><polygon class="cls-1" points="43.33 9.03 52.33 9.03 48.66 18.05 45 27.08 41.33 36.11 36 27.08 39.66 18.05 43.33 9.03"/><polygon class="cls-1" points="75 27.08 71.33 36.11 62.33 36.11 57 27.08 75 27.08"/><path class="cls-1" d="M44.55,6,43.33,9h-9l-3.67,9-3.66,9-3.67,9-5.33-9,3.66-9,3.67-9h-9l-3.67,9L9,27.08l-3.67,9L0,27.08l3.66-9L7.33,9l1.4-3.46C10,2.49,13.48,0,16.55,0H41C44.31,0,45.9,2.69,44.55,6Z"/><path class="cls-1" d="M60.66,18.05l-3.66,9H48l3.66-9,.75-1.83C54,12.25,58.54,9,62.5,9h1.83Z"/><path class="cls-1" d="M88.82,15.21l-1.16,2.84-3.66,9H75l3.66-9,3.67-9h2.83C88.57,9,90.21,11.8,88.82,15.21Z"/><path class="cls-1" d="M64.33,9l1-2.51C66.81,2.92,70.91,0,74.5,0H86L82.33,9Z"/><path class="cls-1" d="M99.66,18.05l-3.66,9h18l-3.67,9h-18l-5.33-9,3.66-9,3.67-9a15.16,15.16,0,0,1,5.23-6.39A13.25,13.25,0,0,1,107,0h18l-3.67,9h-18Z"/><path class="cls-1" d="M155,0l-3.67,9-3.67,9-3.66,9-3.67,9-5.33-9h-9l-3.67,9-5.33-9,3.66-9,3.67-9,0-.11C126.38,4,132,0,136.89,0H137l-3.67,9-3.67,9h9l3.67-9,.18-.45c1.93-4.74,7.32-8.58,12-8.58Z"/><path class="cls-1" d="M185,0l-3.67,9h-18a15.16,15.16,0,0,1,5.23-6.39A13.25,13.25,0,0,1,176,0Z"/><polygon class="cls-1" points="190.33 9.03 186.66 18.05 183 27.08 179.33 36.11 170.33 36.11 174 27.08 177.66 18.05 181.33 9.03 190.33 9.03"/><path class="cls-1" d="M162.22,9h1.11l-3.67,9-3.66,9-3.67,9-5.33-9,3.66-9,.46-1.11C152.89,12.57,157.86,9,162.22,9Z"/></g></g></svg>