<?xml version="1.0" encoding="UTF-8"?>
<!DOCTYPE svg PUBLIC "-//W3C//DTD SVG 1.1//EN" "http://www.w3.org/Graphics/SVG/1.1/DTD/svg11.dtd">
<svg xmlns="http://www.w3.org/2000/svg" version="1.1" width="1315px" height="259px" style="shape-rendering:geometricPrecision; text-rendering:geometricPrecision; image-rendering:optimizeQuality; fill-rule:evenodd; clip-rule:evenodd" xmlns:xlink="http://www.w3.org/1999/xlink">
<g><path style="opacity:0.987" fill="#fefffe" d="M -0.5,-0.5 C 32.1667,-0.5 64.8333,-0.5 97.5,-0.5C 107.798,10.2984 118.298,20.9651 129,31.5C 139.702,20.9651 150.202,10.2984 160.5,-0.5C 193.167,-0.5 225.833,-0.5 258.5,-0.5C 258.333,32.835 258.5,66.1683 259,99.5C 273.57,44.7586 308.404,11.4253 363.5,-0.5C 378.5,-0.5 393.5,-0.5 408.5,-0.5C 464.496,11.3239 499.996,44.9905 515,100.5C 529.966,44.7026 565.799,11.0359 622.5,-0.5C 637.167,-0.5 651.833,-0.5 666.5,-0.5C 709.781,8.20877 741.948,31.8754 763,70.5C 764.914,73.2975 765.914,76.2975 766,79.5C 744,96.006 722.167,112.673 700.5,129.5C 693.277,114.581 683.277,101.748 670.5,91C 647.6,78.3435 626.766,81.1769 608,99.5C 596.541,117.556 595.541,136.222 605,155.5C 617.969,171.826 634.802,178.326 655.5,175C 663.292,173.03 670.292,169.53 676.5,164.5C 680.485,160.015 684.651,155.682 689,151.5C 693.444,144.932 697.61,138.266 701.5,131.5C 722.691,147.859 744.025,164.025 765.5,180C 766.804,180.804 767.471,181.971 767.5,183.5C 750.399,213.765 726.066,236.265 694.5,251C 685.895,254.147 677.228,256.647 668.5,258.5C 652.833,258.5 637.167,258.5 621.5,258.5C 574.599,249.43 541.433,223.096 522,179.5C 518.894,172.076 516.56,164.409 515,156.5C 500.498,212.173 465.332,246.173 409.5,258.5C 394.5,258.5 379.5,258.5 364.5,258.5C 309.338,246.972 274.172,213.972 259,159.5C 258.5,192.498 258.333,225.498 258.5,258.5C 225.833,258.5 193.167,258.5 160.5,258.5C 160.666,248.494 160.5,238.494 160,228.5C 149.964,238.368 140.131,248.368 130.5,258.5C 129.5,258.5 128.5,258.5 127.5,258.5C 117.535,248.035 107.369,237.702 97,227.5C 96.5002,237.828 96.3335,248.161 96.5,258.5C 64.1667,258.5 31.8333,258.5 -0.5,258.5C -0.5,172.167 -0.5,85.8333 -0.5,-0.5 Z"/></g>
<g><path style="opacity:0.991" fill="#fefffe" d="M 772.5,-0.5 C 804.833,-0.5 837.167,-0.5 869.5,-0.5C 869.5,10.1667 869.5,20.8333 869.5,31.5C 890.833,31.5 912.167,31.5 933.5,31.5C 933.5,20.8333 933.5,10.1667 933.5,-0.5C 966.167,-0.5 998.833,-0.5 1031.5,-0.5C 1031.33,83.5007 1031.5,167.501 1032,251.5C 1079.14,167.543 1125.97,83.5432 1172.5,-0.5C 1173.5,-0.5 1174.5,-0.5 1175.5,-0.5C 1221.34,85.1877 1267.67,170.521 1314.5,255.5C 1314.5,256.5 1314.5,257.5 1314.5,258.5C 1187.5,258.5 1060.5,258.5 933.5,258.5C 933.5,247.833 933.5,237.167 933.5,226.5C 912.167,226.5 890.833,226.5 869.5,226.5C 869.5,237.167 869.5,247.833 869.5,258.5C 837.167,258.5 804.833,258.5 772.5,258.5C 772.5,172.167 772.5,85.8333 772.5,-0.5 Z"/></g>
</svg>
