<svg xmlns="http://www.w3.org/2000/svg" viewBox="0 0 1515.35 365.86"><defs><style>.cls-1{fill:#fff;}</style></defs><g id="Layer_2" data-name="Layer 2"><g id="Layer_1-2" data-name="Layer 1"><path d="M193.11,72.36,181,57.21A36.15,36.15,0,0,1,193.11,72.36Z"/><path d="M770.19,179.61c0-.25,0-.51,0-.77v-.48C770.16,178.78,770.17,179.2,770.19,179.61Z"/><path d="M771.54,186.7a19.55,19.55,0,0,1-.67-2.26C771.06,185.21,771.28,186,771.54,186.7Z"/><path d="M774.74,192.75a21.4,21.4,0,0,1-1.26-1.89Q774.07,191.83,774.74,192.75Z"/><path d="M928.2,142.74l-2,10L926,153q-1.5,1.14-3.06,2.19l2-9.89h0l3.08-2.33h0Z"/><path d="M916.4,31.18c.79.48,1.56,1,2.31,1.51C918,32.16,917.19,31.65,916.4,31.18Zm-3.63-2h0l0,0Z"/><path d="M925.19,315.39c-1.06-.54-2.09-1.11-3.09-1.73C923.1,314.27,924.13,314.85,925.19,315.39Z"/><path d="M1059.39,102.79a20.31,20.31,0,0,1-1.68-3A23,23,0,0,0,1059.39,102.79Z"/><path d="M928,142.92h0l-2,10,.23-.17,2-10Z"/><path d="M181,57.21l12.1,15.15A36.15,36.15,0,0,0,181,57.21Z"/><path d="M1511,250.21l-.51-1.6-51-170.85-1.16-3.86-.15-.5-.18-.5a65.56,65.56,0,0,0-12.78-21.61l-1.06-3.53-.18-.61-.21-.59a68.85,68.85,0,0,0-25.91-33.82A74.23,74.23,0,0,0,1375.54,0a92.83,92.83,0,0,0-43.68,11.37,105.11,105.11,0,0,0-33.41,28.54l-2.9,3.66-.45.57-.41.59L1271,78.61a65.76,65.76,0,0,0-12.74-25.33c-.57-.7-1.16-1.38-1.76-2.05a69.63,69.63,0,0,0-13.14-25.48,68.65,68.65,0,0,0-24.8-19A76.09,76.09,0,0,0,1186.78,0c-21.45,0-43.07,8.17-60.89,23-17.05,14.2-28.9,33.06-33.56,53.36a65.58,65.58,0,0,0-12.13-23.1c-.57-.7-1.16-1.38-1.76-2.05h0a69.59,69.59,0,0,0-13.14-25.47,68.5,68.5,0,0,0-24.79-19A76,76,0,0,0,1008.72,0c-22.37,0-45.22,9.17-63.16,25C932.19,9.16,912,0,889.62,0H830.34C803.47,0,776.72,4.07,753,11.77c-23.51,7.63-43,18.49-56.43,31.47A118.82,118.82,0,0,0,674.72,64a72.4,72.4,0,0,0-12.2-17.39C643.4,17.79,597.21,0,540.67,0c-26.88,0-53.62,4.07-77.34,11.77-23.42,7.6-42.8,18.4-56.26,31.31A68.78,68.78,0,0,0,389.45,18.2C376.35,6.46,358.79,0,340,0,310.39,0,284.2,12.72,266.1,35.85l-.33.36L223.24,71.62,198.13,40.19l0,0C191.75,24.2,175.06,0,132.39,0,111,0,89.32,8.17,71.5,23S41.7,57.55,37.43,78.75L1.64,256.83c-4.6,22.86.6,45.53,14.25,62.2a68.06,68.06,0,0,0,15,13.53A63,63,0,0,0,37,341.49c12.87,15.72,32,24.37,53.76,24.37,20.5,0,41.17-7.81,58.21-22a96.21,96.21,0,0,0,29.71-42.63,73.22,73.22,0,0,0,27.81,5.32,81.94,81.94,0,0,0,8.83-.49,67.41,67.41,0,0,0,8.38,13.05,68.3,68.3,0,0,0,15,13.6,63.39,63.39,0,0,0,6.09,8.87c12.82,15.65,31.84,24.27,53.58,24.27,17.81,0,36.25-6.08,51.94-17.12a100,100,0,0,0,28-30c.58.68,1.19,1.33,1.81,2,18.24,27.93,63.36,45.16,118.89,45.16,26.46,0,52.75-4,76-11.58,23-7.48,42-18.09,55-30.75a115.81,115.81,0,0,0,21.86-20.88,78.07,78.07,0,0,0,13.91,13.51,60.21,60.21,0,0,0,4,4.54c18.24,27.93,63.37,45.16,118.9,45.16H848c22.71,0,45.94-9.88,63.51-26.73C924,356,944.3,365.86,967,365.86c20.52,0,41.2-7.81,58.23-22,16.08-13.38,27.32-31.12,31.92-50.24a69.48,69.48,0,0,0,13.1,25.41,68.1,68.1,0,0,0,15,13.53,63,63,0,0,0,6.12,8.93c12.86,15.71,31.94,24.36,53.73,24.36,18,0,35.82-5.86,51.62-16.94l.85-.6c.74.68,1.5,1.33,2.27,2,12.27,10.19,27.83,15.57,45,15.57a88.33,88.33,0,0,0,41-10.51,99.24,99.24,0,0,0,25.38-19.23H1313l6-8.47,18.64-26.42a68.38,68.38,0,0,0,25.61,31.52c11.81,20.66,33.84,33.11,59.7,33.11,20.51,0,41.19-7.81,58.22-22s28.51-33.06,32.59-53.37C1516.59,276.41,1515.64,262.49,1511,250.21ZM334.21,231.56c1.36,18.34,5.23,34.2,11.52,47.23-12.33,24.36-38.6,42.07-65.37,42.07-11.07,0-20.81-3-28.61-8.3a45.28,45.28,0,0,1-19.39-31.42,56.84,56.84,0,0,1,.63-19.58l4-20.12c-13.33,12.29-30.74,20.12-48.55,20.12s-32.1-7.83-40.49-20.12l-4,20.12c-6.59,32.77-38.47,59.3-71.21,59.3a50.76,50.76,0,0,1-28.81-8.39C33,305,25.81,293.14,24.29,279a57.08,57.08,0,0,1,.88-17.44L61,83.48C67.55,50.72,99.63,24,132.39,24c10.11,0,18.75,1.72,25.8,5.3,8.47,4.28,14.62,11.27,18.17,21.18l1.88,3.26L181,57.21a36.15,36.15,0,0,1,12.1,15.15l26.66,33.38L234,93.92l48.26-40.18,2.14-2.26C298.17,33.32,317.75,24,340,24a52,52,0,0,1,23.19,5.18A45,45,0,0,1,386.73,57.4c.34,1.17.64,2.36.89,3.57-10.37,11.88-20,26.94-28.11,43.88a272.61,272.61,0,0,0-20.75,63C334.24,190.31,332.7,211.76,334.21,231.56ZM641.35,123.09v0l0,0a280.36,280.36,0,0,0-12.88,44.63,251.68,251.68,0,0,0-5,45A175.76,175.76,0,0,0,627,253.4c-8.62,12.93-18.11,23.15-27.8,29.71-21.71,22.08-67.77,37.75-118.17,37.75-43.05,0-78.46-11.44-95.88-28.54-.15-.14-.3-.29-.43-.43h0a43.4,43.4,0,0,1-6.85-8.77,41.12,41.12,0,0,1-5.24-5.95,53.31,53.31,0,0,1-3.13-4.82c-6.11-10.66-10-25.3-11.31-42.6-.4-5.24-.55-10.73-.44-16.42,0-.71,0-1.42,0-2.14a231.28,231.28,0,0,1,4.55-38.66,247.71,247.71,0,0,1,18.88-57.34,173.55,173.55,0,0,1,22.49-36q2.38-2.87,4.81-5.44c1.45-1.53,2.91-3,4.38-4.33a76.65,76.65,0,0,1,6-5.13c1.15-.89,2.29-1.72,3.44-2.49C444,39.67,490.27,24,540.67,24c22.43,0,42.76,3.11,59.54,8.51,20.91,6.72,36.33,17,43.45,29.25a49.94,49.94,0,0,1,11.12,16.18h0a80.93,80.93,0,0,1,3.59,9.56A242.5,242.5,0,0,0,641.35,123.09Zm257.07,11c-.4.23-.81.44-1.22.65l-1.64.83-1.27.62-.13.06-.11.05-.15.07-1.6.71-1.61.68-.16.06-.11.05-1.06.41c-.44.18-.89.34-1.34.5s-1,.37-1.57.54c-.34.12-.67.23-1,.33s-1,.31-1.44.45h0c-.91.27-1.83.52-2.75.74l-1.38.33c-.46.11-.92.21-1.39.3-.31.07-.63.13-.95.18s-.54.11-.81.15l-1.09.19c-.92.14-1.83.27-2.75.37l-1.05.11-.9.08-.9.07h-.11l-1.27.07c-.48,0-1,0-1.42,0l-1.42,0h-59.3c-16.38,0-32.43,13.36-35.71,29.74-.2,1-.35,2-.45,3s-.14,1.94-.14,2.88c0,.42,0,.84,0,1.25v0c0,.4,0,.8.09,1.19s.08.82.14,1.22.12.8.2,1.2.16.78.25,1.17c.19.77.41,1.52.67,2.26.13.36.26.73.41,1.08s.3.71.46,1.06.33.69.51,1,.37.67.56,1q.59,1,1.26,1.89c.22.3.46.6.7.89s.48.57.74.85.51.55.78.81.5.48.76.72l.07.06c.28.25.57.49.87.73s.6.47.91.69.56.4.85.59l.19.12c.29.19.59.37.89.54l.84.46.88.43c.19.1.39.19.58.27l.48.2.59.24.08,0,.62.23.07,0,.31.11.93.29.12,0c.32.09.64.18,1,.25l.27.07.78.17.13,0,.6.11.78.12.48.06h.07c.27,0,.55.07.83.09.43,0,.86.07,1.3.09s.89,0,1.34,0h59.3l1.41,0,.89,0h.14l.65,0,.78,0,.54,0,.7.05.17,0,.8.08,1.23.14.86.12h.07l1.22.19.41.08h.06c.55.09,1.1.2,1.65.32l1.11.25c.41.09.81.19,1.21.3s.76.2,1.14.31l.08,0a.13.13,0,0,1,.08,0c.45.12.9.26,1.34.4l1.37.46,1,.36.17.06.44.17c.78.3,1.55.63,2.3,1l1.36.65,1.24.64.16.08,1,.55c.38.21.75.43,1.11.65l.1.06c.5.3,1,.61,1.46.93s.8.54,1.19.82.91.66,1.36,1,.63.48.93.74l1.1.92-2.95,14.68L878,256.83a77.86,77.86,0,0,0,2.73,41.82l-.19.18c-.36.37-.73.72-1.1,1.07s-.74.72-1.13,1.07l-.07.06-1.13,1L876,303l-.58.49L874,304.63l-1.06.82c-.35.27-.71.55-1.07.81l-1.09.8-1.1.77-1.48,1-1.51,1c-.5.32-1,.63-1.52.93s-.84.5-1.26.73l-.18.11,0,0-.12.07-.12.07-.19.1-.6.33-.6.32-.79.42-.79.4-1.59.78,0,0-.07,0-1.52.7-1.57.68-1.57.64c-1.19.47-2.39.9-3.6,1.3L849,318l-1.67.48-1.26.34-.81.21-1.54.35c-.45.1-.89.2-1.33.28l-.36.07-1.08.2-.09,0-1.16.19c-.12,0-.25,0-.37.06-.46.08-.92.13-1.38.19h-.09c-.37,0-.75.1-1.12.13l-.14,0-.67.07-.68.06c-.5.05-1,.08-1.51.11h-.1c-.29,0-.57,0-.86,0h-.09c-.31,0-.62,0-.94,0-.58,0-1.16,0-1.75,0h-59.3l-2.83,0h-.28l-1.58,0c-.46,0-.92,0-1.38,0l-1.38,0-1.31,0c-1.73-.06-3.44-.15-5.13-.25l-1.51-.09c-1.48-.1-2.95-.21-4.4-.34l-1.49-.13-2.24-.22c-1.22-.12-2.42-.26-3.61-.4l-.13,0c-1.23-.15-2.46-.31-3.67-.48s-2.27-.33-3.39-.51l-1.25-.2-2-.34-1-.18-1.34-.24-1.33-.25L729,317l-1.71-.35-.45-.1c-.6-.12-1.21-.25-1.8-.39l-1.95-.44-1.2-.29-1.27-.31-.4-.1L718,314.4l-1.24-.34-1.21-.34c-.61-.17-1.22-.35-1.82-.54-1.11-.32-2.2-.67-3.27-1-.78-.26-1.55-.51-2.3-.78-1-.34-2-.69-2.94-1.05-1.28-.47-2.54-1-3.76-1.46l-1.36-.57-1.57-.68-1.55-.69c-1-.46-2-.92-2.94-1.4l-.07,0-1.46-.74c-.48-.25-1-.5-1.43-.76l-1-.53c-.43-.23-.85-.47-1.26-.71l-.83-.48-.81-.49-1.28-.79-.56-.35-.55-.36c-1-.64-1.94-1.3-2.87-2-.29-.21-.59-.42-.87-.64-.92-.68-1.81-1.38-2.66-2.09-.28-.23-.56-.46-.84-.71-.57-.48-1.12-1-1.66-1.48-.25-.22-.49-.45-.72-.67l-.85-.84h0c-.35-.34-.69-.69-1-1l-.47-.51c-.16-.16-.3-.33-.45-.5s-.37-.41-.54-.62-.36-.41-.52-.62c-.35-.41-.68-.83-1-1.25s-.43-.56-.63-.84-.41-.57-.61-.86l-.09-.12c-.54-.79-1-1.59-1.52-2.4q-.59-.54-1.14-1.11l-.52-.54c-.18-.18-.35-.36-.52-.55-.38-.42-.76-.85-1.14-1.3l-.47-.57c-.16-.19-.31-.39-.47-.59-.32-.4-.62-.8-.93-1.22l-.06-.09c-.32-.44-.63-.88-.94-1.34s-.54-.79-.8-1.2l-.43-.69c-.2-.32-.4-.65-.59-1s-.4-.68-.6-1c-.42-.75-.83-1.51-1.23-2.29,0,0,0-.05,0-.08-.16-.32-.33-.65-.49-1a1.3,1.3,0,0,0-.08-.17l-.21-.45c-.22-.45-.43-.91-.64-1.38s-.5-1.14-.74-1.72l0-.09c-.21-.5-.41-1-.61-1.52s-.47-1.22-.69-1.84c-.14-.38-.28-.77-.41-1.16-.32-.91-.63-1.84-.92-2.78h0c-.21-.7-.43-1.41-.63-2.13s-.41-1.46-.6-2.2c-.13-.49-.26-1-.38-1.49a148.42,148.42,0,0,1-3.78-38.39V213a.09.09,0,0,1,0,0l0-1.8v0c0-.09,0-.18,0-.27,0-.8,0-1.6.09-2.41,0-.46,0-.91.06-1.37l0-.56v-.06l0-.62c0-.76.08-1.52.14-2.29.06-1,.13-2,.21-3,0-.62.1-1.24.16-1.86.12-1.32.25-2.64.39-4,0-.14,0-.29.05-.43,0-.38.08-.76.13-1.14s.08-.76.13-1.14c.08-.68.16-1.36.25-2s.2-1.62.32-2.44.21-1.52.33-2.29l.06-.44c.15-1,.3-2,.48-3h0c.08-.54.18-1.09.27-1.64.17-1,.35-2.05.54-3.08.27-1.48.55-3,.85-4.46a256,256,0,0,1,11.77-40.8c.32-.82.63-1.63,1-2.44.25-.64.51-1.28.77-1.91.35-.86.7-1.71,1.06-2.56l.09-.22c.43-1,.86-2,1.3-3q.95-2.13,1.91-4.22c.29-.63.58-1.26.88-1.88l1.08-2.24c.47-1,.94-1.9,1.42-2.84s1-1.9,1.47-2.84,1-1.89,1.51-2.82a.09.09,0,0,0,0-.06l1.52-2.71c.52-.91,1-1.81,1.57-2.7s1.05-1.77,1.59-2.64c1.09-1.77,2.2-3.51,3.32-5.19q1.44-2.18,2.93-4.24l.12-.17c.45-.63.9-1.24,1.35-1.85.18-.24.36-.47.53-.71.82-1.08,1.63-2.14,2.46-3.18l.4-.5c.37-.45.74-.91,1.11-1.35.5-.61,1-1.21,1.52-1.81,1-1.18,2-2.33,3.08-3.43l.14-.15.71-.75.71-.73.78-.79.78-.78c.39-.39.79-.76,1.18-1.14l1.18-1.1,1.19-1.07,1.19-1q.79-.68,1.59-1.32c.46-.37.92-.74,1.39-1.09l.69-.53.69-.51c.34-.25.68-.5,1-.73s.68-.48,1-.71C733.71,39.67,780,24,830.34,24h59.28c.59,0,1.19,0,1.77,0s1,0,1.42.06l1.06.07h.24l.4,0h.13l1,.11.37,0c.41,0,.81.09,1.22.15l.35,0q.51.06,1,.15l.15,0,.42.08c.18,0,.35.05.52.09l.52.1.38.07.84.17.64.15.08,0,.7.16.45.12c.95.24,1.89.51,2.81.81l1.37.46,1.35.5q.66.25,1.32.54c.24.09.48.19.71.3l.05,0,.09,0,.11.05.74.34.87.42h0l0,0h0l0,0c.39.18.77.38,1.15.59l.23.12.56.3.43.25c.4.23.8.46,1.19.7.79.47,1.56,1,2.31,1.51.37.26.74.52,1.11.8l1.08.83,1.05.86c.3.25.59.5.88.77s.87.78,1.3,1.19l.15.15c.22.22.44.43.65.65s.6.61.9.93L926,39c.25.26.49.51.71.78,0,0,0,0,0,0s.11.12.16.19l0,.05c.29.32.56.66.83,1,.17.19.32.39.47.58.37.47.73.95,1.08,1.43A96.65,96.65,0,0,0,924,51.45a93,93,0,0,0-10.25,27.29l-10.55,52.52c-.33.21-.66.42-1,.62l-1.23.75c-.41.25-.83.5-1.25.73S898.86,133.86,898.42,134.09Zm275.51,83.53a96.4,96.4,0,0,0-18.16,39.23c-3.31,16.39-1.68,32.58,4.72,46.76a67.35,67.35,0,0,0,3.21,6.28h0c-.85.53-1.71,1.05-2.58,1.53-.64.38-1.29.73-1.94,1.08s-1.6.84-2.4,1.23-1.63.78-2.45,1.14c-1.23.55-2.48,1.07-3.73,1.54l-1.51.55-1,.35-.42.14c-.4.14-.81.27-1.22.39-1,.31-2,.6-3,.85-.6.17-1.21.32-1.82.46l-1.3.29c-.87.19-1.74.35-2.62.5-.43.08-.87.15-1.31.21-.88.13-1.76.25-2.64.34-1.69.18-3.37.3-5.07.34l-1.57,0c-.7,0-1.38,0-2.07,0l-1.92-.09H1123c-.57,0-1.13-.09-1.69-.15l-.44-.05c-.53,0-1.06-.12-1.58-.19-1.51-.21-3-.48-4.45-.81-.45-.09-.9-.2-1.34-.31l-.35-.09-1.51-.43c-.67-.19-1.34-.4-2-.62l-1.51-.55-.33-.12-1.51-.61c-.36-.16-.72-.31-1.08-.48l-1.07-.5c-.82-.39-1.62-.81-2.4-1.25l-.6-.34c-.52-.3-1-.61-1.55-.94s-.83-.53-1.23-.8-.77-.53-1.15-.81a44.22,44.22,0,0,1-7.54-6.91c-.68-.78-1.33-1.58-2-2.41-.31-.41-.61-.82-.9-1.25s-.39-.56-.58-.85-.42-.64-.62-1-.4-.64-.59-1q-.55-.92-1-1.86c-.14-.26-.28-.53-.41-.8s-.33-.65-.48-1-.39-.82-.57-1.24c-.35-.78-.67-1.57-1-2.38-.11-.27-.21-.55-.3-.83a45.3,45.3,0,0,1-1.48-5c-.1-.43-.2-.87-.29-1.31a2.21,2.21,0,0,1,0-.25c-.09-.44-.18-.88-.25-1.33s-.14-.77-.19-1.17c-.1-.59-.18-1.18-.24-1.79s-.11-1-.15-1.5-.08-.95-.1-1.43-.07-1.11-.08-1.68,0-1,0-1.51a59.62,59.62,0,0,1,1.19-11.69q.18-.87.3-1.71c0-.19.05-.37.07-.55,0-.35.08-.7.11-1s0-.46,0-.69a.22.22,0,0,0,0-.08c0-.13,0-.27,0-.4s0-.49,0-.73a23.8,23.8,0,0,0-6.7-17.72c-.4-.4-.82-.78-1.24-1.15s-.88-.72-1.33-1.06a23.22,23.22,0,0,0-6.19-3.21,26.73,26.73,0,0,0-8.71-1.4c-16.38,0-32.43,13.36-35.72,29.74-6.58,32.77-38.46,59.3-71.23,59.3q-.88,0-1.77,0l-1,0c-.43,0-.86,0-1.28-.07h0c-.6,0-1.2-.09-1.79-.15l-.47-.05-1-.13c-.37,0-.74-.09-1.1-.15s-1-.14-1.43-.23c-.63-.1-1.26-.23-1.88-.36s-1.24-.27-1.84-.43-1.21-.31-1.8-.49-1.19-.35-1.77-.55-1.13-.38-1.68-.59l-.09,0c-.56-.2-1.11-.42-1.65-.65s-1.11-.47-1.65-.73-1.07-.5-1.6-.77h0c-1.06-.54-2.09-1.11-3.09-1.73-.5-.3-1-.61-1.48-1l0,0a1.43,1.43,0,0,1-.3-.2h0c-1-.69-2-1.42-3-2.2-.48-.38-.94-.77-1.4-1.17l0,0c-.46-.4-.9-.8-1.34-1.23s-.84-.81-1.25-1.23-.81-.85-1.2-1.29l-.31-.36c-.34-.37-.66-.75-1-1.14h0c-.38-.47-.76-.95-1.12-1.43l-.63-.85-.31-.44-.56-.82c-.48-.72-.94-1.45-1.38-2.2-.26-.45-.52-.9-.76-1.35s-.41-.77-.6-1.15c-.28-.54-.54-1.09-.79-1.65s-.42-.94-.62-1.42-.3-.74-.44-1.11-.23-.59-.33-.88c-.28-.77-.54-1.54-.77-2.31-.08-.25-.16-.5-.22-.76s-.18-.6-.26-.9c-.27-1-.51-2.08-.72-3.14-.08-.35-.14-.71-.2-1.07a1.55,1.55,0,0,0,0-.21c-.06-.4-.13-.8-.18-1.2s-.13-.83-.17-1.26a0,0,0,0,1,0,0s0-.08,0-.13a4.35,4.35,0,0,1-.06-.52h0c0-.35-.08-.71-.11-1.07s0-.57-.06-.86a54.84,54.84,0,0,1-.05-7c0-.72.1-1.44.17-2.17s.15-1.46.25-2.2.22-1.57.36-2.36c.09-.58.2-1.16.32-1.74l4.38-21.8,4.38-21.83,1.13-5.62,1.26-6.24,5.11-25.44,5.13-25.49,2-9.89h0l1.31-6.54,11.1-55.23c.14-.69.29-1.38.45-2.06a69.44,69.44,0,0,1,6.55-17c0-.08.09-.16.14-.24q.36-.68.75-1.35c.16-.29.33-.58.51-.86s.35-.61.54-.91.43-.7.65-1.05.39-.62.59-.92l.82-1.23c.15-.22.3-.45.47-.67s.43-.63.67-.94.52-.73.79-1.1l.39-.5q.5-.68,1-1.32,1.39-1.77,2.89-3.45c.54-.61,1.09-1.2,1.65-1.79l.06-.07c.8-.84,1.62-1.67,2.45-2.47q2.6-2.52,5.42-4.81l1.25-1c.45-.35.9-.7,1.36-1s1-.78,1.59-1.15.89-.63,1.34-.93,1-.65,1.47-1,1-.63,1.49-.94c2-1.23,4.09-2.38,6.19-3.42l1.15-.55c.77-.37,1.55-.72,2.33-1.06l1-.4.56-.23,1.34-.53c.54-.21,1.09-.41,1.63-.6s1.09-.38,1.64-.56c1.65-.55,3.32-1,5-1.44l1.68-.39c.47-.11.93-.2,1.4-.29l.46-.09,1-.19.87-.14,1-.15.75-.11c.37-.05.74-.1,1.11-.13.54-.07,1.07-.13,1.61-.17.36,0,.72-.06,1.08-.08.83-.07,1.67-.11,2.5-.14.63,0,1.27,0,1.9,0l1.6,0h0l1.56.07,1.28.08.78.07c1.73.15,3.43.39,5.08.7.32,0,.63.11.94.18l1.17.26c.43.09.86.2,1.29.31l.24.06c.79.21,1.57.43,2.34.68l.52.17,1,.32c.53.19,1.06.38,1.58.59s.81.32,1.21.49c.87.36,1.73.76,2.57,1.17h0l.2.11.86.44q.52.27,1,.57c.73.41,1.44.83,2.14,1.28.3.19.6.38.89.58l1,.67c.37.25.74.52,1.1.8l.7.53c.67.53,1.32,1.07,2,1.63l.79.71c.29.27.57.53.85.81l.77.77c.92.94,1.8,1.93,2.63,3,.24.29.47.58.7.88a44.88,44.88,0,0,1,4.29,6.7c.34.65.67,1.31,1,2a46.29,46.29,0,0,1,2.51,6.73,1.33,1.33,0,0,1,0,.19q.2.66.36,1.32l.09.35c.13.52.25,1,.36,1.58s.16.77.23,1.16.14.75.2,1.13c.14.79.25,1.6.34,2.41,0,.36.08.72.11,1.08.12,1.14.19,2.29.22,3.46,0,.56,0,1.13,0,1.7a59.8,59.8,0,0,1-1.2,11.79c-.2,1-.35,2-.45,3a27.24,27.24,0,0,0,.12,6.59c.07.5.16,1,.25,1.48,0,.24.1.49.16.73.11.48.24,1,.38,1.43s.3.93.47,1.38c.08.22.17.45.26.67a.17.17,0,0,0,0,0c.14.35.29.69.45,1a23,23,0,0,0,1.68,3c.21.31.42.62.65.92s.46.6.7.89.48.58.74.85.46.49.7.73.59.58.91.86.57.5.87.73.69.54,1,.79.46.33.69.47l.21.14c.29.19.59.37.89.54a22.66,22.66,0,0,0,3.37,1.6,7.08,7.08,0,0,0,.77.28c.44.16.9.3,1.36.43s.64.18,1,.25l.27.07.78.17.73.13q.39.08.78.12l.48.06c.3,0,.6.08.9.1s.86.07,1.3.09.89,0,1.34,0,1,0,1.42,0l.42,0,1.15-.08.23,0c.46-.05.91-.1,1.36-.17h0c.5-.07,1-.16,1.48-.26h0c.5-.1,1-.21,1.49-.33l1.26-.33.53-.16c.39-.11.78-.23,1.17-.37s.79-.27,1.18-.42l.52-.2,1-.43,1-.46.13-.06c.28-.14.57-.27.84-.42.7-.34,1.38-.71,2.05-1.11l.71-.43a1,1,0,0,0,.17-.1l.84-.54c.3-.2.61-.4.9-.61l.68-.48.33-.24c.55-.41,1.08-.83,1.61-1.26s.88-.74,1.3-1.12l.8-.75.34-.33c.43-.41.85-.84,1.25-1.28.24-.24.46-.49.68-.74a36.91,36.91,0,0,0,3-3.83l.38-.57q.31-.47.6-.93c.2-.31.39-.63.57-1,.28-.48.55-1,.81-1.46l.25-.49c.18-.38.37-.76.54-1.15a1,1,0,0,0,.07-.15c.19-.42.38-.85.55-1.28h0c.2-.48.38-1,.55-1.45s.34-1,.49-1.49.29-1,.41-1.5.25-1,.35-1.53C1121.94,50.72,1154,24,1186.78,24l1.6,0h0l1.56.07,1.28.08.78.07c1.74.15,3.43.39,5.08.7.32,0,.63.11.94.18l1.17.26c.43.09.86.2,1.29.31,1.08.27,2.13.58,3.16.93l.8.26.9.33,1,.38c.42.16.83.33,1.24.52.72.29,1.43.62,2.12,1l.21.1h0l.35.18c.24.12.48.24.71.37s.7.37,1,.57a44.26,44.26,0,0,1,6.12,4.12l.67.55c.2.16.4.32.59.5s.5.42.74.65l.73.67,1.07,1,.64.66.77.82c.3.34.61.69.91,1.05l.56.67c.24.28.46.57.69.86.48.63,1,1.28,1.41,1.93.2.29.4.58.58.87a43.82,43.82,0,0,1,2.24,3.79c.13.23.25.47.36.7a47,47,0,0,1,3.2,8.15,1.33,1.33,0,0,1,.05.19q.19.66.36,1.32l.09.35c.11.43.21.86.29,1.29s.21,1,.3,1.45.14.75.2,1.13c.14.79.25,1.6.34,2.41,0,.36.08.72.11,1.08.12,1.14.19,2.29.22,3.46,0,.56,0,1.13,0,1.7a59.77,59.77,0,0,1-1.2,11.78l-13.53,67.28h0l-3.16,4.52-28.36,40.63-11.78,16.89Zm302.21,43.94c-6.59,32.77-38.45,59.3-71.21,59.3-11,0-20.75-3-28.52-8.2a44.85,44.85,0,0,1-17-21.54l-1.08-3.64L1353.49,272l-6.08-19.35a24.9,24.9,0,0,0-16.61-6.06,35,35,0,0,0-19,6.06l-27.15,38.46h-.53c-13.73,17.81-35.36,29.74-57.26,29.74a50.74,50.74,0,0,1-28.44-8.15l-.34-.23-.57-.39h0c-1-.69-2-1.43-2.89-2.2a44.13,44.13,0,0,1-12.24-16.13,48.12,48.12,0,0,1-3.86-13.86c0-.2,0-.41-.07-.62a56.66,56.66,0,0,1,.86-17.71,72.36,72.36,0,0,1,14-29.74l3.7-5.28,11.77-16.88L1237.12,169l4-5.7,2-2.92,26.6-38.07h0l44.62-63.86,3.05-3.85C1331.2,36.47,1353.12,24,1375.54,24a51.69,51.69,0,0,1,23,5.16,45,45,0,0,1,22.63,25.47l.8,2.69.35,1.16,51,171,.74,2.34C1477.52,240.55,1478.33,250.7,1476.14,261.56Z"/><path class="cls-1" d="M658.37,87.51a242.5,242.5,0,0,0-17,35.58v0l0,0a280.36,280.36,0,0,0-12.88,44.63,251.68,251.68,0,0,0-5,45A175.76,175.76,0,0,0,627,253.4c-8.62,12.93-18.11,23.15-27.8,29.71-21.71,22.08-67.77,37.75-118.17,37.75-43.05,0-78.46-11.44-95.88-28.54-.15-.14-.3-.29-.43-.43h0a43.4,43.4,0,0,1-6.85-8.77,41.12,41.12,0,0,1-5.24-5.95,53.31,53.31,0,0,1-3.13-4.82c-6.11-10.66-10-25.3-11.31-42.6-.4-5.24-.55-10.73-.44-16.42,0-.71,0-1.42,0-2.14a231.28,231.28,0,0,1,4.55-38.66,247.71,247.71,0,0,1,18.88-57.34,173.55,173.55,0,0,1,22.49-36q2.38-2.87,4.81-5.44c1.45-1.53,2.91-3,4.38-4.33a76.65,76.65,0,0,1,6-5.13c1.15-.89,2.29-1.72,3.44-2.49C444,39.67,490.27,24,540.67,24c22.43,0,42.76,3.11,59.54,8.51,20.91,6.72,36.33,17,43.45,29.25a49.94,49.94,0,0,1,11.12,16.18h0A80.93,80.93,0,0,1,658.37,87.51Z"/><path class="cls-1" d="M338.76,167.8c-4.52,22.51-6.06,44-4.55,63.76,1.36,18.34,5.23,34.2,11.52,47.23-12.33,24.36-38.6,42.07-65.37,42.07-11.07,0-20.81-3-28.61-8.3a45.28,45.28,0,0,1-19.39-31.42,56.84,56.84,0,0,1,.63-19.58l4-20.12c-13.33,12.29-30.74,20.12-48.55,20.12s-32.1-7.83-40.49-20.12l-4,20.12c-6.59,32.77-38.47,59.3-71.21,59.3a50.76,50.76,0,0,1-28.81-8.39C33,305,25.81,293.14,24.29,279a57.08,57.08,0,0,1,.88-17.44L61,83.48C67.55,50.72,99.63,24,132.39,24c10.11,0,18.75,1.72,25.8,5.3,8.47,4.28,14.62,11.27,18.17,21.18l1.88,3.26L181,57.21l12.1,15.15,26.66,33.38L234,93.92l48.26-40.18,2.14-2.26C298.17,33.32,317.75,24,340,24a52,52,0,0,1,23.19,5.18A45,45,0,0,1,386.73,57.4c.34,1.17.64,2.36.89,3.57-10.37,11.88-20,26.94-28.11,43.88A272.61,272.61,0,0,0,338.76,167.8Z"/><path class="cls-1" d="M929.29,43.1A96.65,96.65,0,0,0,924,51.45a93,93,0,0,0-10.25,27.29l-10.55,52.52c-.33.21-.66.42-1,.62l-1.23.75c-.41.25-.83.5-1.25.73s-.87.5-1.31.73-.81.44-1.22.65l-1.64.83-1.27.62-.13.06-.11.05-.15.07-1.6.71-1.61.68-.16.06-.11.05-1.06.41-1.34.5c-.52.19-1,.37-1.57.54-.34.12-.67.23-1,.33s-1,.31-1.44.45h0c-.91.26-1.83.51-2.75.74l-1.38.33c-.46.11-.92.21-1.39.3-.31.07-.63.13-.95.18s-.54.11-.81.15l-1.09.19c-.92.14-1.83.27-2.75.37l-1.05.11-.9.08-.9.07h-.11l-1.27.07c-.48,0-1,0-1.42,0l-1.42,0h-59.3c-16.38,0-32.43,13.36-35.71,29.74-.2,1-.35,2-.45,3s-.14,1.94-.14,2.88v.48c0,.26,0,.52,0,.77v0c0,.4,0,.8.09,1.19s.08.82.14,1.22.12.8.2,1.2.16.78.25,1.17a19.55,19.55,0,0,0,.67,2.26c.13.36.26.73.41,1.08s.3.71.46,1.06.33.69.51,1,.37.67.56,1a21.4,21.4,0,0,0,1.26,1.89c.22.3.46.6.7.89s.48.57.74.85.51.55.78.81.5.48.76.72l.07.06c.28.25.57.49.87.73s.6.47.91.69.56.4.85.59l.19.12c.29.19.59.37.89.54l.84.46c.29.16.58.3.88.43s.39.19.58.27l.48.2.59.24.08,0,.62.23.07,0,.31.11.93.29.12,0c.32.09.64.18,1,.25l.27.07.78.17.13,0,.6.11.78.12.48.06h.07c.27,0,.55.07.83.09.43,0,.86.07,1.3.09s.89,0,1.34,0h59.3l1.41,0,.89,0h.14l.65,0,.78,0,.54,0,.7.05.17,0,.8.08,1.23.14.86.12h.07l1.22.19.41.08h.06c.55.09,1.1.2,1.65.32l1.11.25c.41.09.81.19,1.21.3s.76.2,1.14.31l.08,0a.13.13,0,0,1,.08,0c.45.12.9.26,1.34.4l1.37.46,1,.36.17.06.44.17c.78.3,1.55.63,2.3,1l1.36.65,1.24.64.16.08,1,.55c.38.21.75.43,1.11.65l.1.06c.5.3,1,.61,1.46.93s.8.54,1.19.82.91.66,1.36,1,.63.48.93.74l1.1.92-2.95,14.68L878,256.83a77.86,77.86,0,0,0,2.73,41.82l-.19.18c-.36.37-.73.72-1.1,1.07s-.74.72-1.13,1.07l-.07.06-1.13,1L876,303l-.58.49L874,304.63l-1.06.82c-.35.27-.71.55-1.07.81l-1.09.8-1.1.77-1.48,1-1.51,1c-.5.32-1,.63-1.52.93s-.84.5-1.26.73l-.18.11,0,0-.12.07-.12.07-.19.1-.6.33-.6.32-.79.42-.79.4-1.59.78,0,0-.07,0-1.52.7-1.57.68-1.57.64c-1.19.47-2.39.9-3.6,1.3L849,318l-1.67.48-1.26.34-.81.21-1.54.35c-.45.1-.89.2-1.33.28l-.36.07-1.08.2-.09,0-1.16.19c-.12,0-.25,0-.37.06-.46.08-.92.13-1.38.19h-.09c-.37,0-.75.1-1.12.13l-.14,0-.67.07-.68.06c-.5.05-1,.08-1.51.11h-.1l-.86,0h-.09c-.31,0-.62,0-.94,0-.58,0-1.16,0-1.75,0h-59.3l-2.83,0h-.28l-1.58,0c-.46,0-.92,0-1.38,0l-1.38,0-1.31,0c-1.73-.06-3.44-.15-5.13-.25l-1.51-.09c-1.48-.1-2.95-.21-4.4-.34l-1.49-.13-2.24-.22c-1.22-.12-2.42-.26-3.61-.4l-.13,0c-1.23-.15-2.46-.31-3.67-.48s-2.27-.33-3.39-.51l-1.25-.2-2-.34-1-.18-1.34-.24-1.33-.25L729,317l-1.71-.35-.45-.1c-.6-.12-1.21-.25-1.8-.39l-1.95-.44-1.2-.29-1.27-.31-.4-.1L718,314.4l-1.24-.34-1.21-.34c-.61-.17-1.22-.35-1.82-.54-1.11-.32-2.2-.67-3.27-1-.78-.26-1.55-.51-2.3-.78-1-.34-2-.69-2.94-1.05-1.28-.47-2.54-1-3.76-1.46l-1.36-.57-1.57-.68-1.55-.69c-1-.46-2-.93-2.94-1.4l-.07,0-1.46-.74c-.48-.25-1-.5-1.43-.76l-1-.53c-.43-.23-.85-.47-1.26-.71l-.83-.48-.81-.49-1.28-.79-.56-.35-.55-.36c-1-.64-1.94-1.3-2.87-2-.29-.21-.59-.42-.87-.64-.92-.68-1.81-1.38-2.66-2.09-.28-.23-.56-.46-.84-.71-.57-.48-1.12-1-1.66-1.48-.25-.22-.49-.45-.72-.67l-.85-.84h0c-.34-.34-.68-.69-1-1l-.47-.51c-.16-.16-.3-.33-.45-.5s-.37-.41-.54-.62-.35-.41-.52-.62c-.35-.41-.68-.83-1-1.25s-.43-.56-.63-.84-.41-.57-.61-.86l-.09-.12c-.54-.79-1-1.59-1.52-2.4q-.59-.54-1.14-1.11l-.52-.54c-.18-.18-.35-.36-.52-.55-.38-.42-.76-.85-1.14-1.3l-.47-.57c-.16-.19-.31-.39-.47-.59l-.93-1.22-.06-.09c-.32-.44-.63-.88-.94-1.34s-.54-.79-.8-1.2l-.43-.69c-.2-.32-.4-.65-.59-1s-.4-.68-.6-1c-.42-.75-.83-1.51-1.23-2.29,0,0,0-.05,0-.08-.16-.32-.33-.65-.49-1a1.3,1.3,0,0,0-.08-.17l-.21-.45c-.22-.45-.43-.91-.64-1.38s-.5-1.14-.74-1.72l0-.09c-.21-.5-.41-1-.61-1.52s-.47-1.22-.69-1.84c-.14-.38-.28-.77-.41-1.16-.32-.91-.63-1.84-.92-2.78h0c-.21-.7-.43-1.41-.63-2.13s-.41-1.46-.6-2.2c-.13-.49-.26-1-.38-1.49a148.42,148.42,0,0,1-3.78-38.39V213a.09.09,0,0,1,0,0l0-1.8v0c0-.09,0-.18,0-.27,0-.8,0-1.6.09-2.41,0-.46,0-.91.06-1.37l0-.56v-.06l0-.62c0-.76.09-1.52.14-2.29.06-1,.13-2,.21-3,0-.62.1-1.24.16-1.86.12-1.32.25-2.64.39-4,0-.14,0-.29.05-.43,0-.38.08-.76.13-1.14s.08-.76.13-1.14c.08-.68.16-1.36.25-2s.21-1.62.32-2.44.21-1.52.33-2.29l.06-.44c.15-1,.3-2,.48-3h0c.08-.54.18-1.09.27-1.64.17-1,.35-2.05.54-3.08.27-1.48.55-3,.85-4.46a256,256,0,0,1,11.77-40.8c.32-.82.63-1.63,1-2.44.25-.64.51-1.28.77-1.91.35-.86.7-1.71,1.06-2.56l.09-.22c.43-1,.86-2,1.3-3q.95-2.13,1.91-4.22c.29-.63.58-1.26.88-1.88l1.08-2.24c.47-1,.94-1.9,1.42-2.84s1-1.9,1.47-2.84,1-1.89,1.51-2.82a.09.09,0,0,0,0-.06l1.52-2.71c.52-.91,1-1.81,1.57-2.7s1.05-1.77,1.59-2.64c1.09-1.77,2.2-3.51,3.32-5.19q1.44-2.18,2.93-4.24l.12-.17c.45-.63.9-1.24,1.35-1.85.18-.24.36-.47.53-.71.82-1.08,1.63-2.14,2.46-3.18l.4-.5c.37-.45.74-.91,1.11-1.35.5-.61,1-1.21,1.52-1.81,1-1.18,2.05-2.33,3.08-3.43l.14-.15.71-.75.71-.73.78-.79.78-.78c.39-.39.79-.76,1.18-1.14l1.18-1.1,1.19-1.07,1.19-1q.79-.68,1.59-1.32c.46-.37.92-.74,1.39-1.09l.69-.53.69-.51c.34-.25.68-.5,1-.73s.68-.48,1-.71C733.71,39.67,780,24,830.34,24h59.28q.89,0,1.77,0c.48,0,1,0,1.42.06l1.06.07h.24l.4,0h.13l1,.11.37,0c.41,0,.81.09,1.22.15l.35,0q.51.06,1,.15l.15,0,.42.08c.18,0,.35.05.52.09l.52.1.38.07.84.17.64.15.08,0,.7.16.45.12c.95.24,1.89.51,2.81.81l1.37.46,1.35.5q.66.25,1.32.54c.24.09.48.19.71.3l.05,0,.09,0,.11.05.74.34.87.42,0,0h0l0,0c.39.18.77.38,1.15.59l.23.12.56.3.43.25c.4.23.8.46,1.19.7.79.48,1.56,1,2.31,1.51.37.26.74.52,1.11.8l1.08.83,1.05.86c.3.25.59.5.88.77s.87.78,1.3,1.19l.15.15c.22.22.44.43.65.65s.6.61.9.93L926,39c.25.26.49.51.71.78,0,0,0,0,0,0s.11.12.16.19l0,.05c.29.32.56.66.83,1,.17.19.32.39.47.58C928.58,42.14,928.94,42.62,929.29,43.1Z"/><path class="cls-1" d="M697.72,74.19c-1,1.1-2.06,2.25-3.08,3.43C695.66,76.44,696.68,75.29,697.72,74.19Z"/><path class="cls-1" d="M770.19,179.61c0-.25,0-.51,0-.77v-.48C770.16,178.78,770.17,179.2,770.19,179.61Z"/><path class="cls-1" d="M771.54,186.7a19.55,19.55,0,0,1-.67-2.26C771.06,185.21,771.28,186,771.54,186.7Z"/><path class="cls-1" d="M774.74,192.75a21.4,21.4,0,0,1-1.26-1.89Q774.07,191.83,774.74,192.75Z"/><path class="cls-1" d="M918.71,32.69c-.75-.53-1.52-1-2.31-1.51C917.19,31.65,918,32.16,918.71,32.69Z"/><path d="M694.64,77.62c1-1.18,2.05-2.33,3.08-3.43C696.68,75.29,695.66,76.44,694.64,77.62Zm75.52,100.74v.48c0,.26,0,.52,0,.77C770.17,179.2,770.16,178.78,770.16,178.36Zm.71,6.08a19.55,19.55,0,0,0,.67,2.26C771.28,186,771.06,185.21,770.87,184.44Zm2.61,6.42a21.4,21.4,0,0,0,1.26,1.89Q774.07,191.83,773.48,190.86ZM916.4,31.18c.79.48,1.56,1,2.31,1.51C918,32.16,917.19,31.65,916.4,31.18Z"/><path class="cls-1" d="M1235.33,71.7a59.77,59.77,0,0,1-1.2,11.78l-13.53,67.28h0l-3.16,4.52-28.36,40.63-11.78,16.89-3.37,4.81a96.4,96.4,0,0,0-18.16,39.23c-3.31,16.39-1.68,32.58,4.72,46.76a67.35,67.35,0,0,0,3.21,6.28h0c-.85.53-1.71,1.05-2.58,1.53-.64.38-1.29.73-1.94,1.08s-1.6.84-2.4,1.23-1.63.78-2.45,1.14c-1.23.55-2.48,1.07-3.73,1.54l-1.51.55-1,.35-.42.14c-.4.14-.81.27-1.22.39-1,.31-2,.6-3,.85-.6.17-1.21.32-1.82.46l-1.3.29c-.87.18-1.74.35-2.62.5-.43.08-.87.15-1.31.21-.88.13-1.76.25-2.64.34-1.69.18-3.37.3-5.07.34l-1.57,0c-.7,0-1.38,0-2.07,0l-1.92-.09H1123c-.57,0-1.13-.09-1.69-.15l-.44-.05c-.53,0-1.06-.12-1.58-.19-1.51-.21-3-.48-4.45-.81-.45-.09-.9-.2-1.34-.31l-.35-.09-1.51-.43c-.67-.19-1.34-.4-2-.62l-1.51-.55-.33-.12-1.51-.61c-.36-.16-.72-.31-1.08-.48l-1.07-.5c-.82-.39-1.62-.81-2.4-1.25l-.6-.34c-.52-.3-1-.61-1.55-.94s-.83-.53-1.23-.8-.77-.53-1.15-.81a44.22,44.22,0,0,1-7.54-6.91c-.68-.78-1.33-1.58-2-2.41-.31-.41-.61-.82-.9-1.25s-.39-.56-.58-.85-.42-.64-.62-1-.4-.64-.59-1q-.54-.92-1-1.86c-.14-.26-.28-.53-.41-.8s-.33-.65-.48-1-.39-.82-.57-1.24c-.35-.78-.67-1.57-1-2.38-.11-.27-.21-.55-.3-.83a45.3,45.3,0,0,1-1.48-5c-.1-.43-.2-.87-.29-1.31a2.21,2.21,0,0,1,0-.25c-.09-.44-.18-.88-.25-1.33s-.14-.77-.19-1.17c-.1-.59-.18-1.18-.24-1.79s-.11-1-.15-1.5-.08-.95-.1-1.43-.07-1.11-.08-1.68,0-1,0-1.51a59.62,59.62,0,0,1,1.19-11.69q.18-.87.3-1.71c0-.19.05-.37.07-.55,0-.35.08-.7.11-1s0-.46,0-.69a.22.22,0,0,0,0-.08c0-.13,0-.27,0-.4s0-.49,0-.73a23.8,23.8,0,0,0-6.7-17.72c-.4-.4-.82-.78-1.24-1.15s-.88-.72-1.33-1.06a23.22,23.22,0,0,0-6.19-3.21,26.73,26.73,0,0,0-8.71-1.4c-16.38,0-32.43,13.36-35.72,29.74-6.58,32.77-38.46,59.3-71.23,59.3q-.88,0-1.77,0l-1,0c-.43,0-.86,0-1.28-.07h0c-.6,0-1.2-.09-1.79-.15l-.47-.05-1-.13c-.37,0-.74-.09-1.1-.15s-1-.14-1.43-.23c-.63-.11-1.26-.23-1.88-.36s-1.23-.28-1.84-.43-1.2-.32-1.8-.49-1.18-.36-1.77-.55l-1.68-.59-.09,0-1.65-.65-1.65-.73-1.6-.77h0c-1.06-.54-2.09-1.12-3.09-1.73-.5-.31-1-.63-1.48-1l0,0a1.43,1.43,0,0,1-.3-.2h0c-1-.69-2-1.42-3-2.2-.48-.38-.94-.77-1.4-1.17l0,0c-.46-.4-.9-.81-1.34-1.23s-.84-.81-1.25-1.23-.81-.85-1.2-1.29l-.31-.36c-.33-.37-.66-.75-1-1.14h0c-.38-.47-.76-.95-1.12-1.43l-.63-.85-.31-.44-.56-.82c-.48-.72-.94-1.45-1.38-2.2-.26-.44-.51-.89-.76-1.35s-.41-.77-.6-1.15c-.28-.54-.54-1.09-.79-1.65s-.42-.94-.62-1.42-.3-.74-.44-1.11-.23-.59-.33-.88c-.28-.77-.54-1.54-.77-2.31-.08-.25-.15-.51-.22-.76s-.18-.6-.26-.9c-.27-1-.51-2.08-.72-3.14-.07-.35-.14-.71-.2-1.07a1.55,1.55,0,0,0,0-.21c-.06-.4-.13-.8-.18-1.2s-.12-.84-.17-1.26a0,0,0,0,1,0,0s0-.08,0-.13a4.35,4.35,0,0,1-.06-.52h0c0-.35-.08-.71-.11-1.07s0-.57-.06-.86a54.84,54.84,0,0,1-.05-7c0-.72.1-1.44.17-2.17s.15-1.46.25-2.2.22-1.57.36-2.36c.09-.58.2-1.16.32-1.74l4.38-21.8,4.38-21.83,1.13-5.62,1.26-6.24,5.11-25.44,5.13-25.49q1.56-1,3.06-2.19l.23-.17,2-10-.23.18h0l-3.08,2.33,1.31-6.54,11.1-55.23c.14-.69.29-1.38.45-2.06a69.44,69.44,0,0,1,6.55-17c0-.08.09-.16.14-.24q.36-.68.75-1.35c.16-.29.33-.58.51-.86s.35-.61.54-.91.43-.7.65-1.05.39-.62.59-.92l.82-1.23c.15-.22.3-.45.47-.67s.43-.63.67-.94.52-.73.79-1.1l.39-.5q.5-.68,1-1.32,1.39-1.77,2.89-3.45c.54-.61,1.09-1.2,1.65-1.79l.06-.07c.8-.84,1.62-1.67,2.45-2.47q2.6-2.52,5.42-4.81l1.25-1c.45-.35.9-.7,1.36-1s1-.78,1.59-1.15.89-.63,1.34-.93,1-.65,1.47-1,1-.63,1.49-.94c2-1.23,4.09-2.38,6.19-3.42l1.15-.55c.77-.37,1.55-.72,2.33-1.06l1-.4.56-.23,1.34-.53c.54-.21,1.09-.41,1.63-.6s1.09-.38,1.64-.56c1.65-.55,3.32-1,5-1.44l1.68-.39c.47-.11.93-.2,1.4-.29l.46-.09,1-.19.87-.14,1-.15.75-.11c.37-.05.74-.1,1.11-.13.54-.07,1.07-.13,1.61-.17.36,0,.72-.06,1.08-.08.83-.07,1.67-.11,2.5-.14.63,0,1.27,0,1.9,0l1.6,0h0l1.56.07,1.28.08.78.07c1.73.15,3.43.39,5.08.7.32,0,.63.11.94.18l1.17.26c.43.09.86.2,1.29.31l.24.06c.79.21,1.57.43,2.34.68l.52.17,1,.32c.53.19,1.06.38,1.58.59s.81.32,1.21.49c.87.36,1.73.76,2.57,1.17h0l.2.11.86.44q.52.27,1,.57c.73.41,1.44.83,2.14,1.28.3.19.6.38.89.58l1,.67c.37.25.74.52,1.1.8l.7.53c.67.53,1.32,1.07,2,1.63l.79.71c.29.27.57.53.85.81l.77.77c.92.94,1.8,1.93,2.63,3,.24.29.47.58.7.88a44.88,44.88,0,0,1,4.29,6.7c.34.65.67,1.31,1,2a46.29,46.29,0,0,1,2.51,6.73,1.33,1.33,0,0,1,0,.19q.2.66.36,1.32l.09.35c.13.52.25,1,.36,1.58s.16.77.23,1.16.14.75.2,1.13c.14.79.25,1.6.34,2.41,0,.36.08.72.11,1.08.12,1.14.19,2.29.22,3.46,0,.56,0,1.13,0,1.7a59.8,59.8,0,0,1-1.2,11.79c-.2,1-.35,2-.45,3a27.24,27.24,0,0,0,.12,6.59c.07.5.16,1,.25,1.48,0,.24.1.49.16.73.11.48.24,1,.38,1.43s.3.93.47,1.38c.08.22.17.45.26.67a.17.17,0,0,0,0,0c.14.35.29.69.45,1a20.31,20.31,0,0,0,1.68,3c.21.31.42.62.65.92s.46.6.7.89.48.58.74.85.46.49.7.73.59.58.91.86.57.5.87.73.69.54,1,.79.46.33.69.47l.21.14c.29.19.59.37.89.54a22.66,22.66,0,0,0,3.37,1.6,7.08,7.08,0,0,0,.77.28c.44.16.9.3,1.36.43s.64.18,1,.25l.27.07.78.17.73.13q.39.08.78.12l.48.06c.3,0,.6.08.9.1s.86.07,1.3.09.89,0,1.34,0,1,0,1.42,0l.42,0,1.15-.08.23,0c.46-.05.91-.1,1.36-.17h0c.5-.07,1-.16,1.48-.26h0c.5-.1,1-.21,1.49-.33l1.26-.33.53-.16c.39-.11.78-.23,1.17-.37s.79-.27,1.18-.42l.52-.2,1-.43,1-.46.13-.06c.28-.14.57-.27.84-.42.7-.34,1.38-.71,2.05-1.11a7.45,7.45,0,0,0,.71-.43,1,1,0,0,0,.17-.1l.84-.54c.3-.2.61-.4.9-.61l.68-.48.33-.24c.55-.4,1.09-.82,1.61-1.26s.88-.74,1.3-1.12l.8-.75.34-.33c.43-.41.85-.84,1.25-1.28.24-.24.46-.49.68-.74a36.91,36.91,0,0,0,3-3.83l.38-.57q.31-.47.6-.93c.2-.31.39-.63.57-1,.28-.48.55-1,.81-1.46l.25-.49c.18-.38.37-.76.54-1.15a1,1,0,0,0,.07-.15c.19-.42.38-.85.55-1.28h0c.2-.48.38-1,.55-1.45s.34-1,.49-1.49.29-1,.41-1.5.25-1,.35-1.53C1121.94,50.72,1154,24,1186.78,24l1.6,0h0l1.56.07,1.28.08.78.07c1.74.15,3.43.39,5.08.7.32,0,.63.11.94.18l1.17.26c.43.09.86.2,1.29.31,1.08.27,2.13.58,3.16.93l.8.26.9.33,1,.38c.42.16.83.33,1.24.52.72.3,1.42.62,2.12,1l.21.1h0l.35.18c.24.12.48.24.71.37s.7.37,1,.57a44.26,44.26,0,0,1,6.12,4.12l.67.55c.2.16.4.32.59.5s.5.42.74.65l.73.67,1.07,1,.64.66.77.82c.3.34.61.69.91,1.05l.56.67c.24.28.46.57.69.86.48.63,1,1.28,1.41,1.93.19.28.39.57.58.87a43.82,43.82,0,0,1,2.24,3.79c.13.23.25.47.36.7a47,47,0,0,1,3.2,8.15,1.33,1.33,0,0,1,.05.19q.19.66.36,1.32l.09.35c.11.43.21.86.29,1.29s.21,1,.3,1.45.14.75.2,1.13c.14.79.25,1.6.34,2.41,0,.36.08.72.11,1.08.12,1.14.19,2.29.22,3.46C1235.32,70.56,1235.33,71.13,1235.33,71.7Z"/><path class="cls-1" d="M925.19,315.39c-1.06-.54-2.09-1.11-3.09-1.73C923.1,314.27,924.13,314.85,925.19,315.39Z"/><path class="cls-1" d="M928.2,142.74l-2,10L926,153q-1.5,1.14-3.06,2.19l2-9.89h0l3.08-2.33h0Z"/><path class="cls-1" d="M1059.39,102.79a20.31,20.31,0,0,1-1.68-3A23,23,0,0,0,1059.39,102.79Z"/><path d="M1057.71,99.8a20.31,20.31,0,0,0,1.68,3A23,23,0,0,1,1057.71,99.8ZM922.1,313.66c1,.62,2,1.19,3.09,1.73C924.13,314.85,923.1,314.27,922.1,313.66Z"/><path class="cls-1" d="M1476.14,261.56c-6.59,32.77-38.45,59.3-71.21,59.3-11,0-20.75-3-28.52-8.2a44.85,44.85,0,0,1-17-21.54l-1.08-3.64L1353.49,272l-6.08-19.35a24.9,24.9,0,0,0-16.61-6.06,35,35,0,0,0-19,6.06l-27.15,38.46h-.53c-13.73,17.81-35.36,29.74-57.26,29.74a50.74,50.74,0,0,1-28.44-8.15l-.34-.23-.57-.39h0c-1-.69-2-1.43-2.89-2.2a44.13,44.13,0,0,1-12.24-16.13,48.12,48.12,0,0,1-3.86-13.86c0-.2,0-.41-.07-.62a56.66,56.66,0,0,1,.86-17.71,72.36,72.36,0,0,1,14-29.74l3.7-5.28,11.77-16.88L1237.12,169l4-5.7,2-2.92,26.6-38.07h0l44.62-63.86,3.05-3.85C1331.2,36.47,1353.12,24,1375.54,24a51.69,51.69,0,0,1,23,5.16,45,45,0,0,1,22.63,25.47l.8,2.69.35,1.16,51,171,.74,2.34C1477.52,240.55,1478.33,250.7,1476.14,261.56Z"/></g></g></svg>