<svg xmlns="http://www.w3.org/2000/svg" xmlns:xlink="http://www.w3.org/1999/xlink" viewBox="0 0 865.71 899.38"><defs><style>.cls-1{fill:#f2f2f2;}.cls-2{fill:#999;}.cls-3{fill:#5900ac;}.cls-4{fill:url(#linear-gradient);}.cls-5{fill:#fff;}.cls-6{fill:#4d4d4d;}</style><linearGradient id="linear-gradient" x1="492.04" y1="290.46" x2="492.04" y2="61.08" gradientUnits="userSpaceOnUse"><stop offset="0.38" stop-color="#999"/><stop offset="0.56" stop-color="#74a47a"/><stop offset="0.74" stop-color="#54ad60"/><stop offset="0.89" stop-color="#40b350"/><stop offset="1" stop-color="#39b54a"/></linearGradient></defs><g id="Layer_2" data-name="Layer 2"><g id="Layer_1-2" data-name="Layer 1"><path d="M492.06,886.88a27.33,27.33,0,0,1-19.43-8.1c-9.19-9.18-16.09-19.35-23.53-30.74-1.13-1.73-2.27-3.45-3.41-5.18-7.29-11-14.8-22.4-20.08-35.5l-1.43-.42c-19.69-5.73-40.06-11.66-59.12-22-3.75-2-7.23-4.24-10.59-6.38-1.56-1-3.06-1.93-4.54-2.84-18.72,2.19-37.51,2.64-55.7,3.08-5.93.14-12.07.29-18.07.5-8.11.27-16.31.36-23.54.44h-.49c-9.52,0-16.95-3.3-22.09-9.8-6-7.67-7.25-17.3-3.39-27.12,6.26-15.92,12.81-32,19.16-47.52l.93-2.28c.79-1.93,1.67-3.63,2.45-5.14.26-.49.53-1,.78-1.51a23.47,23.47,0,0,1-3.06-6.86c-.25-1-.44-1.9-.61-2.74A30.34,30.34,0,0,1,242,675.4c-26.32-10.7-60.37-26.06-90.37-50-3.88-3.1-7.57-6.25-11-9.38-6.62-6.1-10-14-9.5-22.37s5-16.11,12.29-21.42c4.72-3.41,9.5-6.68,14.24-9.77a258.64,258.64,0,0,1-46.7,9,11.85,11.85,0,0,1-1.33.07,12.5,12.5,0,0,1-12.5-12.16c0-1.44-.1-2.86-.16-4.27-.15-3.39-.31-6.89-.16-10.57.59-14.06,1.35-27.89,2.14-42,1-18.71,7-35.89,12.94-51.88,3-7.87,6.16-15.67,9.37-23.31-4.79,1-9.64,2-14.51,2.87a72.36,72.36,0,0,1-12.64,1c-5,0-10-.41-14.66-.83-1.12-.11-2.4-.12-3.62-.12h-2.4c-1.81,0-3.77,0-5.89-.22-5.92-.54-11.9-1.46-16.71-2.19-4.56-.7-9.16-1.45-13.6-2.18-3.68-.6-7.36-1.2-11-1.77-2.1-.33-8.49-1.33-11.93-7.53-2.28-4.11-2.31-8.84-.09-14.06.66-1.56,1.3-3.12,1.94-4.69,1.54-3.79,3.13-7.7,5.12-11.63,1.87-3.7,3.89-7.19,5.85-10.56,1.51-2.59,2.93-5,4.25-7.5,1.23-2.32,2.39-4.75,3.61-7.32s2.51-5.29,3.94-8c1.31-2.49,2.71-4.71,4.07-6.86.86-1.37,1.67-2.65,2.38-3.9.82-1.42,1.62-3,2.47-4.58A82.6,82.6,0,0,1,54,326.82c8.35-11.62,15.49-21,22.48-29.61,25.7-31.57,51.2-56.2,78-75.28.87-.62,1.73-1.23,2.6-1.83l-.34-.33c-1.82-1.78-3.67-3.53-5.52-5.28-4.09-3.86-8.31-7.85-12.31-12.22-6.64-7.24-12.76-14.79-19-22.52a78.22,78.22,0,0,1-6.54-10l-3.33-5.7c-5.36-9.16-10.9-18.63-16.18-28.12-3.36-6.05-6.21-12.29-8.71-17.8-1.7-3.72-3.16-7.44-4.57-11-.41-1.07-.83-2.13-1.25-3.19a15.22,15.22,0,0,1-1-5.62v0a12.51,12.51,0,0,1,9-12.79l6.76-1.94c5.22-1.49,10.4-3,15.58-4.48,1.73-.5,3.46-1,5.19-1.56,3.22-1,6.55-2,10-2.9l4.94-1.28c6.83-1.78,13.89-3.62,21.19-4.9a285.59,285.59,0,0,1,49.29-4.25c32.48,0,66,5.23,102.43,16,15,4.44,28.87,8.72,42.05,13.25a30.24,30.24,0,0,1-10.22-16.59,26.35,26.35,0,0,1,5.78-23.27,102.89,102.89,0,0,1,42-29.52,166.71,166.71,0,0,1,60.28-11.48c18.47,0,35.05,5,49.46,15a84.37,84.37,0,0,1,28.87-12.66,95.1,95.1,0,0,1,21.68-2.37,150.43,150.43,0,0,1,27.17,2.75c16.41,3,37.62,8.16,56.1,22a142,142,0,0,1,16.9,15.39,26.92,26.92,0,0,1,7.71,19.68,25.79,25.79,0,0,1-8.75,18.3,142.34,142.34,0,0,1-22.47,16.62,166.41,166.41,0,0,1-74,23.2l1.1,21.36c6.23.23,12.66.46,18.86.46,1.88,0,3.64,0,5.36-.06a32.94,32.94,0,0,0,4.76-2.64,632.53,632.53,0,0,1,84-44,206.09,206.09,0,0,1,45.79-13.82,52.08,52.08,0,0,1,9-.8c19.23,0,35.85,11.37,43.37,29.66,5.43,13.2,7.48,26.72,9.46,39.8l.12.82c4.95,32.65,4.45,67.54-1.54,106.66-1.93,12.66-4.24,25.39-6.47,37.7-1.15,6.34-2.35,12.91-3.46,19.35-.14.76-.22,1.77-.32,2.85,0,.14,0,.29,0,.44,25.58,18.32,46.34,40.46,63.39,59.87,7.34,8.37,11.89,17.92,16.28,27.78,5.35,12,1.29,25.82-9.85,33.58a123.41,123.41,0,0,1-19.3,11c-8.45,3.82-17.07,7.37-25.4,10.81l-2,.81a317,317,0,0,1,20.7,74l5.86,3.62c12.13,7.48,24.67,15.22,36.65,23.65A26.59,26.59,0,0,1,853.14,593c.63,8.21-2.68,16.24-9.3,22.59-12.87,12.36-27.37,21.9-39.86,29.6-20.32,12.54-42.23,22.13-62.87,30.62a27.8,27.8,0,0,1-3.27,1.09,25.66,25.66,0,0,1-.93,3,68.65,68.65,0,0,1-2.85,6.56c8.19,19.45,15.57,37.18,22.53,54.12a40.06,40.06,0,0,1,2.67,11.1A25,25,0,0,1,739,779a32.41,32.41,0,0,1-6.4.72h-.79c-27.87-.92-57.59-1.92-87.67-3-2.75-.1-5.34-.44-7.62-.74l-2.08-.27c-15.13,10.37-32.69,18.45-55,25.3-4.72,1.45-9.5,2.86-14.13,4.22l-7,2.06c-7,17.16-17.31,31.94-27.27,46.27-2,2.88-4,5.76-6,8.65a133.77,133.77,0,0,1-13.43,16.2A26.62,26.62,0,0,1,492.06,886.88ZM492.42,750a21.52,21.52,0,0,0-5.61.75,67.52,67.52,0,0,0-8.59,3.29c-1.27.55-2.54,1.1-3.81,1.63-2,.8-4.18,2.32-5.93,7.52-1.45,4.3-1.38,8.91.24,14.51,4.27,14.85,12.9,27.85,22,41.62l1.09,1.65c4.34-6.54,8.75-13.21,13-19.81a86.6,86.6,0,0,0,11-26.25c2.54-10-1.38-15.11-4.54-18.08a26.19,26.19,0,0,0-4.83-2.67l-2.27-1.09A26.72,26.72,0,0,0,492.42,750ZM341,672.5c-1.84.06-3.6.07-5.31.07-4.59,0-8.56,0-11.35,1.26a80,80,0,0,0-13.41,7.76,14.08,14.08,0,0,0-4.14,3.93c-7,14-13.75,28.49-20.25,42.55q27.12-1.12,54.23-2.29c3.94-7.9,7.46-15.06,10.59-22.44,2.71-6.38,3.85-13.55,3.48-21.91a10.27,10.27,0,0,0-.42-2.78c-5.18-3.73-8.91-6.16-13-6.16Zm302.2,53.3,44.38,1.86,9.31.4c-5.62-12.5-11.4-25.33-17.16-37.92-2.06-4.5-3.82-7-6.29-8.85-6.14-4.63-11.09-7.25-16.05-8.48a23.46,23.46,0,0,0-2.89-.2l-1.92-.07-2-.11c-2-.11-3.84-.21-5.57-.21-3.6,0-5.79.45-7.57,1.57a45.81,45.81,0,0,1-4.32,2.34,24.49,24.49,0,0,0-2.2,1.17c-.64.53-1.88,1.56-1.72,8.25a46.28,46.28,0,0,0,1.58,10.3A127.91,127.91,0,0,0,635.91,712a101.88,101.88,0,0,0,6.64,12.82C642.82,725.24,643,725.57,643.2,725.8ZM389.43,580.44a27.78,27.78,0,0,1,13.81,3.71c6.71,3.8,10,9.46,12.14,14C421,610,428.13,623.89,438,636.23c6.8,8.48,14.91,13.87,24.78,16.49,9.23,2.44,20.07,4.94,30.47,4.94a56.69,56.69,0,0,0,15.91-2.16,35.65,35.65,0,0,1,4.39-.94l.69-.11c14.69-2.56,26.05-9.77,34.73-22,6.89-9.73,13.11-20.66,20.19-35.44,5.09-10.63,14-16.48,25.22-16.48a35.15,35.15,0,0,1,6,.53,304.88,304.88,0,0,1,52.38,14.05l4.57,1.63,2-6.42c2-6.39,4.08-13,6.23-19.53a28.4,28.4,0,0,1,2.36-5.26,77.55,77.55,0,0,1-8.59,3.07,114.58,114.58,0,0,1-32.19,4.51c-2.92,0-5.9-.11-8.88-.31-17.33-1.19-35.61-4.92-55.88-11.4-11.91-3.81-27.59-8.86-43.28-14.2a84.38,84.38,0,0,0-27.16-4.65,83,83,0,0,0-26.83,4.59c-9.32,3.19-18.79,6.27-28,9.25L425.82,560c-22.63,7.42-41.66,11.46-59.88,12.72-3.22.22-6.43.33-9.52.33q-22.34,0-40.5-7.82a30.9,30.9,0,0,1,2.69,6c1.69,5.14,3.29,10.35,4.84,15.38,1,3.35,2.06,6.69,3.12,10,17-6.08,36.8-12.41,58.08-15.85A30.1,30.1,0,0,1,389.43,580.44ZM232.19,615.9q5.38,2.6,10.57,4.89l.61-7.47C239.68,614.18,235.94,615.05,232.19,615.9Zm509,4.88q5.22-2.32,10.66-4.94c-3.79-.85-7.56-1.71-11.27-2.57Zm-51-68.39a25.33,25.33,0,0,1,3.25.21l2.71.34c4.33.53,8.82,1.09,13.41,2.07,13,2.74,26.08,5.64,38.77,8.43l2.59.57c-4.19-29.27-11.42-55.33-22-79.19a120.21,120.21,0,0,1-20,45.57,121.52,121.52,0,0,1-19.94,22C689.4,552.4,689.79,552.39,690.19,552.39Zm-431-52.63c-4.74,4.12-9.56,8.28-14.38,12.37a1,1,0,0,0-.47.71c-5.3,16.42-8.33,33.23-11.17,50.83,5.5-1.32,11.12-2.63,16.76-3.76,6.93-1.4,13.93-2.59,20.69-3.75,5.43-.92,11-1.88,16.47-2.92a33.79,33.79,0,0,1,6.38-.63c.56,0,1.11,0,1.66,0a95.11,95.11,0,0,1-12.86-12.77A127.42,127.42,0,0,1,259.22,499.76ZM192.46,353.91a24.26,24.26,0,0,1,10.08,2.2,12.5,12.5,0,0,1,5.19,18.41L205,378.57c-2.08,3.05-4.07,6-6,8.89l-.39.58a46.85,46.85,0,0,0-2.74,4.39c-.93,1.78-1.82,3.67-2.76,5.67a97.48,97.48,0,0,1-6.78,12.74c-5.25,8-11.19,17.52-15.4,27.71l-.73,1.76c-3.53,8.55-7.18,17.38-10.24,26.09-5,14.24-10.39,30.52-14.18,47.52a178.49,178.49,0,0,0,24.56-11.38c21.95-12.4,43.34-28.71,69.34-52.88,20.56-19.11,39.74-40.56,58.29-61.3,5.63-6.29,11.45-12.8,17.24-19.17,9.52-10.46,16.78-18.56,23.54-26.25,8.19-9.31,14.94-17.17,21.24-24.73,6.79-8.15,13.42-16.16,19.72-24.5,3.8-5,7.35-10.2,11.1-15.68q2.52-3.7,5.08-7.38l4.77-6.8c3.6-5.12,7.32-10.41,10.85-15.62,1.13-1.67,2.22-3.52,3.37-5.47s2.46-4.17,3.89-6.33c3.79-5.68,7.72-11.31,11.52-16.76l2.14-3.08a14.37,14.37,0,0,1,5.44-4.61,12.5,12.5,0,0,1,13.81.93l.89.68a12.49,12.49,0,0,1,3.55,15.55l-33.32,66a153,153,0,0,1,11.84,12.22c5.72,6.79,11.09,13.86,16.28,20.7,2.46,3.24,5,6.59,7.52,9.83,14.58,18.73,25.41,35,33.83,50.8a169.65,169.65,0,0,1,10.57-18.41c12.5-18.37,26.38-37.46,41.26-56.74,14.07-18.24,32.39-33.21,54.46-44.49,10.7-5.46,21.44-8.23,31.92-8.23,13.66,0,26.73,4.63,38.85,13.78,10,7.52,17.61,16.2,22.7,25.79,3.61,6.81,7.94,15.13,12.15,24.12.73-5,1.51-9.6,2.18-13.49,1.2-6.84,2.49-13.75,3.74-20.43,2.14-11.44,4.35-23.27,6.07-34.86,5.29-35.55,5-67.41-.79-97.41-1.16-6-2.44-11.29-3.88-16.17-9.55,2.45-18.25,4.79-26.71,7.8-18.86,6.71-36.28,16.24-54.73,26.33q-4.63,2.53-9.27,5.05c-7.79,4.22-15.21,9.23-23.06,14.53l-2,1.34c-4.2,2.83-9.45,5.73-16.44,5.73h-.46l-15.63-.28c-13.68-.23-27.83-.47-41.76-.84-6.61-.17-11.71-1.75-15.59-4.82a26.72,26.72,0,0,1-9.31-15.25c-1.65-8.64-2.62-17.25-3.42-25.28q-.54-5.48-1.07-11c-.43,4.75-.88,9.51-1.35,14.24a178.73,178.73,0,0,1-3.46,23.11c-2.71,11.62-11.21,18.91-22.18,19-.94,0-2.06.1-3.25.19-1.59.12-3.39.26-5.33.26a28.17,28.17,0,0,1-12.52-2.67c-1.71-.83-3.42-1.64-5.14-2.45-3.73-1.76-7.59-3.58-11.42-5.6a149.94,149.94,0,0,1-15.68-9.17c-22.11-15.31-42.68-26.27-62.91-33.5-16.25-5.82-33.72-11.76-53.42-18.16a316.25,316.25,0,0,0-97.74-15.93,301,301,0,0,0-41.9,3c-6.09.86-12.15,2-18.41,3.2,1.13,1.65,2.27,3.29,3.44,4.91,6.09,8.46,12.42,17,18.81,25.38,2,2.58,4.12,5.11,6.41,7.79,1.28,1.51,2.56,3,3.82,4.54,1.82,2.2,3.6,4.43,5.31,6.59,3.59,4.51,7,8.78,10.64,12.64,5.44,5.73,11.28,11.07,17.47,16.72l3.48,3.19c2.43,2.23,5.08,4.4,7.89,6.69,1.36,1.12,2.74,2.25,4.13,3.41a12.51,12.51,0,0,1-.72,19.73l-3,2.1c-1.88,1.34-3.66,2.59-5.27,3.85-6.06,4.74-12.1,9.63-16.69,13.35l-3.4,2.74c-4,3.19-7.72,6.21-11.29,9.41-6,5.38-11.75,11-16.09,15.32l-.18.18c-9.43,9.35-19.17,19-28.47,28.71-6.56,6.83-12.92,14-19.39,21.4-4.21,4.79-8.43,9.88-12.88,15.55-2.06,2.62-4,5.37-6.1,8.28q-1.76,2.49-3.55,4.94c-.72,1-1.44,1.88-2.08,2.66a28.18,28.18,0,0,0-1.78,2.34c-3.58,5.75-6.52,10.59-9.24,15.49-.48.86-1,1.72-1.42,2.58,1.22,0,2.41,0,3.6,0A138.61,138.61,0,0,0,117,377c11.65-3.11,23.49-7,35-10.66l7.74-2.5c5.25-1.69,10.39-3.54,15.84-5.51,2.76-1,5.52-2,8.29-2.95A26.1,26.1,0,0,1,192.46,353.91Zm405,156.57a45.32,45.32,0,0,0,8.55.79c1.1,0,2.23,0,3.36-.12,12.43-.83,24.23-5.69,37.16-15.31a35.6,35.6,0,0,0,13.88-21.92A89.17,89.17,0,0,0,662,454.49a238.06,238.06,0,0,0-16.51-83C624.77,419.45,609,465.07,597.43,510.48ZM323.12,436.07c-.06,1.81-.13,3.62-.19,5.42-.33,9.15-.64,17.79-.4,26.47a32.22,32.22,0,0,0,8.8,21.89c13.59,14.12,29.32,21.28,46.75,21.28.92,0,1.86,0,2.79-.06a28.69,28.69,0,0,0,5.53-.94,864.52,864.52,0,0,0-34.92-107.27C342.14,413.77,332.55,425,323.12,436.07Zm396.79-71a278.59,278.59,0,0,1,12.53,71.42,34.88,34.88,0,0,1,4.16-2c12.83-5.22,25.84-10.69,38.43-16l1.67-.71c-2.37-2.83-4.71-5.59-7.11-8.35A273.28,273.28,0,0,0,719.91,365.06ZM421.47,128.31q8.49,5.22,16.82,11l.47-9A162.46,162.46,0,0,1,421.47,128.31Zm68.25-45.82A23.12,23.12,0,0,1,492,85.34a23.68,23.68,0,0,1,2.28-2.79,17.94,17.94,0,0,1-2.1.13A16.89,16.89,0,0,1,489.72,82.49ZM403,70.18a112.69,112.69,0,0,0,42.72,9.94c.42,0,.84,0,1.26,0,4.14,0,7.32-.7,9.72-2.16a25.94,25.94,0,0,1,13.62-4,23.88,23.88,0,0,1,4.38.41l-2.23-1.28c-5.46-3.1-10.61-6-15.7-7.76-5.4-1.83-12.2-2-16.85-2h-1.34c-10.26.09-21.33,2.2-34.82,6.64Zm110.79,3.61a22.25,22.25,0,0,1,11.17,3,27,27,0,0,0,13.9,3.31c1.39,0,2.88-.07,4.43-.2a117.31,117.31,0,0,0,37.56-9.69c-11.75-4.61-24.86-6.87-39.67-6.87q-2.08,0-4.17.06a33.15,33.15,0,0,0-10.53,2,92.38,92.38,0,0,0-17.77,8.94A22.5,22.5,0,0,1,513.77,73.79Z"/><path class="cls-1" d="M542.56,25a140.48,140.48,0,0,1,24.94,2.55c18.23,3.3,35.79,8.44,50.83,19.72a128.42,128.42,0,0,1,15.37,14c5.68,5.93,5.78,14.54-.34,20a130.13,130.13,0,0,1-20.49,15.16c-22.33,13.16-46.5,20.68-72.54,21.71-1,0-2,0-3,0-1.72,0-3.47,0-5.24,0,.78,15.23,1.56,30.27,2.34,45.48a11.09,11.09,0,0,0,1.48.28c9.76.27,19.53.8,29.28.8q3,0,6-.07c3.65-.1,7.49-2.51,10.8-4.57A617.42,617.42,0,0,1,664.29,117a193.62,193.62,0,0,1,43-13,39.22,39.22,0,0,1,6.83-.61c14.14,0,26.1,8,31.81,21.91,5,12.07,6.84,24.94,8.78,37.74,5.21,34.38,3.7,68.7-1.53,102.9-2.91,19-6.61,37.86-9.9,56.8-.47,2.7-.45,5.48-1,8.16s.63,3.92,2.59,5.28c24.39,16.87,44.87,38,64.33,60.11,6.36,7.24,10.39,15.92,14.26,24.61,2.87,6.45.72,13.86-5.57,18.23a109.54,109.54,0,0,1-17.32,9.89c-11.7,5.3-23.66,10-35.51,15-1,.41-2,.85-3.09,1.33.24.73.37,1.38.64,2,12.38,26.52,20.13,54.4,24.52,83.27.39,2.51,1.56,3.67,3.69,5,14.66,9.1,29.48,18,43.57,27.9,7.67,5.39,8.76,15.31.74,23-11.37,10.91-24.39,19.72-37.76,28-19.36,11.94-40.1,21.06-61.07,29.69-2.78,1.14-6.47,1.15-8.38,3s-1.72,5.48-2.75,8.22a52.58,52.58,0,0,1-3.73,8,4.76,4.76,0,0,0-.21,4.87q12,28.45,23.75,57a28.44,28.44,0,0,1,1.8,7.69,12.57,12.57,0,0,1-10.26,13.72,21,21,0,0,1-4,.49h-.36q-43.82-1.46-87.63-3c-3.81-.14-7.6-.92-11.41-1.21h-.5a5.45,5.45,0,0,0-3,.8C613.21,775.5,594.9,783.15,575.77,789c-8.44,2.6-16.93,5-25.38,7.56a3.14,3.14,0,0,0-1.91,1.47c-7.66,21.14-21.27,38.79-33.73,57.08a121.94,121.94,0,0,1-12.2,14.68,14.32,14.32,0,0,1-10.49,4.56,15,15,0,0,1-10.6-4.44c-8.59-8.59-15.3-18.64-21.89-28.74-8.95-13.69-18.51-27.07-24-42.76-.31-.89-1.72-1.69-2.78-2-21.09-6.17-42.34-11.92-61.81-22.5-5.5-3-10.67-6.58-16.06-9.8a7.34,7.34,0,0,0-3.38-1.2l-.35,0c-25.07,3.18-50.31,3-75.5,3.83-7.74.27-15.49.36-23.24.44h-.36c-4.73,0-9.12-1.05-12.27-5-3.63-4.6-3.55-9.79-1.58-14.81,6.53-16.61,13.29-33.13,20-49.65,1.48-3.62,3.88-7,4.78-10.72,1-4-3.12-6.81-4.06-10.55-.81-3.22-1.09-7.19-3.16-9.3s-6.15-2.09-9.21-3.34c-31-12.6-60.93-27.16-87.29-48.17-3.52-2.81-7-5.74-10.28-8.79-8-7.39-7.16-18.09,1.65-24.47a470,470,0,0,1,44.06-27.71,3,3,0,0,0,1.47-1.61c1.49-7.86,2.88-15.75,4.47-24.63-27.73,19.17-58.4,27.13-91.12,30.63-.13-4.79-.52-9.39-.33-14,.59-14,1.35-27.89,2.13-41.83.94-16.85,6.35-32.63,12.17-48.2,5.46-14.59,11.82-28.85,17.78-43.25.19-.44.37-.88.8-1.92-1.54.39-2.6.69-3.67.92-11.31,2.41-22.56,5.11-33.94,7.12a60.17,60.17,0,0,1-10.46.84c-4.5,0-9-.37-13.53-.78-1.57-.15-3.16-.17-4.75-.17H73.43c-1.6,0-3.19,0-4.77-.17-5.34-.49-10.65-1.29-15.95-2.1-8.21-1.25-16.4-2.66-24.6-3.94-3.24-.51-3.74-1.31-2.45-4.34,2.22-5.21,4.16-10.55,6.71-15.58,3.07-6.07,6.78-11.81,10-17.82,2.68-5,4.91-10.32,7.57-15.36,1.88-3.56,4.23-6.87,6.24-10.36,2.68-4.67,4.83-9.71,8-14.05,7.08-9.86,14.36-19.61,22-29,22.26-27.33,46.71-52.44,75.52-73,4.79-3.41,9.73-6.61,15-10.16-3.75-3.7-7.48-7.42-11.25-11.11-5.8-5.66-11.89-11-17.35-17-6.44-7-12.46-14.46-18.43-21.9a79.54,79.54,0,0,1-6.24-9.75c-6.27-10.74-12.59-21.45-18.64-32.32-3-5.47-5.66-11.19-8.26-16.9-2-4.47-3.76-9.09-5.58-13.67a6.54,6.54,0,0,1-.16-1.8c7.53-2.17,15-4.28,22.37-6.43,4.94-1.43,9.83-3.08,14.81-4.36,8.37-2.13,16.71-4.49,25.21-6a271.37,271.37,0,0,1,47.12-4.06c33.37,0,66.29,5.86,98.89,15.49,28.51,8.43,56.86,17.44,84,29.81a313.35,313.35,0,0,1,64,39.48c.66.52,1.38,1,2.5,1.79.79-15.17,1.56-29.9,2.35-44.92-.64-.06-1.37-.17-2.09-.17h-.55c-35,0-66.18-11.41-94-32.32-3.94-3-7.37-6.39-8.48-11.61a13.73,13.73,0,0,1,3.09-12.58,90.26,90.26,0,0,1,36.95-25.94,153.81,153.81,0,0,1,55.77-10.64h.05c18.17,0,34.48,5.61,48.44,17.49.29.25.61.46,1,.74a72.69,72.69,0,0,1,31.66-16.23A83.79,83.79,0,0,1,542.56,25M447,92.64c5.68,0,11.3-1,16.22-4a13.57,13.57,0,0,1,7.12-2.19,15,15,0,0,1,8.9,3.38c4.06,3,4.69,7.32,4.23,12.13-1.8,18.84-3.33,37.71-5.18,56.55a166.71,166.71,0,0,1-3.2,21.49c-1.15,4.92-4,9.29-10.12,9.34-2.81,0-5.65.45-8.47.45a15.7,15.7,0,0,1-7.07-1.43c-5.4-2.61-10.88-5.05-16.18-7.85a137.4,137.4,0,0,1-14.39-8.39c-20.58-14.25-42.2-26.54-65.82-35-17.82-6.38-35.76-12.42-53.76-18.27a327.24,327.24,0,0,0-101.61-16.55A312.89,312.89,0,0,0,154,105.39c-12.3,1.73-24.45,4.48-37.22,6.86,1,1.67,1.48,2.7,2.12,3.65,3.89,5.78,7.67,11.63,11.73,17.28q9.33,13,19,25.66c3.33,4.37,7,8.47,10.54,12.71,5.49,6.64,10.6,13.63,16.51,19.87,6.82,7.19,14.26,13.8,21.57,20.52,3.92,3.6,8.15,6.88,12.44,10.48-3.06,2.2-5.92,4.12-8.63,6.24-5.67,4.44-11.28,9-16.87,13.49-5.09,4.13-10.27,8.17-15.15,12.54-5.67,5.09-11.15,10.4-16.56,15.77-9.69,9.62-19.39,19.25-28.86,29.1-6.79,7.07-13.3,14.44-19.77,21.81-4.59,5.23-9,10.61-13.31,16.08-3.45,4.39-6.59,9-9.9,13.55-1.43,1.95-3.11,3.74-4.39,5.79-3.28,5.28-6.54,10.58-9.56,16-3.55,6.39-6.83,12.92-10.39,19.69,1.36.22,2.2.4,3.05.48,6.83.65,13.65,1,20.45,1a152.08,152.08,0,0,0,39.45-4.88c14.57-3.9,28.91-8.72,43.28-13.34,8.22-2.64,16.29-5.71,24.44-8.57a13.77,13.77,0,0,1,4.49-.8,11.79,11.79,0,0,1,4.93,1.09c-3.14,4.62-6,8.8-8.83,13a66.24,66.24,0,0,0-3.82,6.15c-3,5.76-5.34,11.92-8.89,17.31-6.28,9.54-12.15,19.25-16.51,29.81-3.89,9.42-7.83,18.85-11.21,28.47-7.5,21.29-14.23,42.83-17.67,65.23-.23,1.52-.38,3-.6,4.78a14.67,14.67,0,0,0,1.81-.28c15.48-4.86,30.6-10.55,44.78-18.55,26.4-14.92,49.59-34.06,71.7-54.61,27.26-25.34,51.28-53.74,76.27-81.22q11.94-13.11,23.68-26.4c7.25-8.25,14.43-16.55,21.45-25,6.84-8.2,13.65-16.44,20.09-25,5.76-7.61,11-15.61,16.46-23.44,5.25-7.52,10.58-15,15.72-22.58,2.6-3.84,4.74-8,7.32-11.87,4.4-6.61,9-13.11,13.51-19.63.29-.42.92-.61,1.38-.9l.89.68-37.48,74.27c5.89,5.84,12.25,11.32,17.6,17.66,8.2,9.74,15.67,20.1,23.5,30.16,15.4,19.79,29.49,40.4,39.69,63.46a5.1,5.1,0,0,0,3.64,2.61H492a6,6,0,0,0,3.91-2.9c5.8-10.46,10.54-21.6,17.23-31.43,13-19.12,26.69-37.82,40.82-56.14,13.48-17.47,30.64-31,50.26-41,8.85-4.52,17.62-6.86,26.23-6.86,10.74,0,21.23,3.64,31.32,11.25,7.81,5.9,14.6,13,19.19,21.68,6.24,11.76,12.27,23.7,17.38,36,14.35,34.42,22.25,70.26,21.81,107.7-.31,26.32-5.53,51.29-21.32,73.1-11.08,15.3-24.25,28-43,33.51a101.41,101.41,0,0,1-28.68,4c-2.67,0-5.35-.1-8-.28-18.11-1.24-35.68-5.32-52.92-10.84-14.39-4.6-28.76-9.26-43.06-14.12A96.35,96.35,0,0,0,491.93,530a94.72,94.72,0,0,0-30.87,5.27c-13,4.44-26.08,8.6-39.13,12.88-18.51,6.06-37.34,10.77-56.84,12.11q-4.39.32-8.67.31c-25.2,0-47.3-8.12-64.54-28.72-12.31-14.72-20.9-31.25-24.64-50.17-.28-1.41-.61-2.81-1-4.53-.87.7-1.41,1.1-1.91,1.54-9.19,8-18.31,16-27.59,23.87a13.36,13.36,0,0,0-4.29,6.42c-7.39,22.89-10.59,46.64-14.41,70.26,0,.14.16.32.35.68.88-.17,1.84-.31,2.77-.53,10.41-2.43,20.77-5.14,31.25-7.25,12.29-2.47,24.72-4.29,37-6.64a21.44,21.44,0,0,1,4-.41c6.35,0,11,3.33,13.23,10.06,2.88,8.76,5.48,17.61,8.28,26.4,1.15,3.62,2.53,7.17,3.92,11,2.58-.89,4.88-1.64,7.16-2.47,19.75-7.22,39.72-13.61,60.55-17a18,18,0,0,1,2.79-.23,15.1,15.1,0,0,1,7.65,2.09c3.47,2,5.38,5,7,8.43,6.77,14.3,14.23,28.17,24.2,40.6,8.27,10.3,18.56,17.36,31.33,20.74,11.16,3,22.36,5.36,33.67,5.36a68.91,68.91,0,0,0,19.38-2.66,36.55,36.55,0,0,1,3.75-.74c18-3.13,32.19-12.13,42.8-27.12,8.31-11.75,15.06-24.33,21.25-37.26,3-6.35,7.71-9.38,13.95-9.38a22.74,22.74,0,0,1,3.84.35,293.83,293.83,0,0,1,50.24,13.49c5.42,2,10.89,3.81,16.56,5.79.92-2.51,1.83-4.78,2.57-7.1,3.28-10.28,6.42-20.6,9.8-30.85,2-6,7.09-9.79,12.77-9.79a13.35,13.35,0,0,1,1.66.11c5,.65,10.14,1.18,15.12,2.23,18.32,3.89,36.6,8,54.9,12,1.29.28,2.6.49,3.87.72a3.41,3.41,0,0,0,.2-.88c-.77-4.84-1.66-9.67-2.33-14.52-4.71-34.38-13.88-67.41-29.76-98.41a17.51,17.51,0,0,1-1-2.47c-2.73-8.17.46-14.39,8.41-17.62,17.08-7,34.05-14.16,51.05-21.28,1.23-.51,2.38-1.2,3.72-1.89a24.46,24.46,0,0,0-2.14-3.88c-4.91-6-9.84-11.93-14.9-17.77-16.89-19.46-36.4-36-57.7-50.36-5.17-3.5-6.74-8.65-6.12-14.39.84-7.79,2.07-15.55,3.42-23.27,3.23-18.55,7.09-37,9.86-55.6,5-33.88,5.67-67.82-.89-101.63a182,182,0,0,0-4.88-19.69c-1.55-4.95-4.18-7.33-8.32-7.33a14.86,14.86,0,0,0-3.65.51c-10.16,2.58-20.35,5.24-30.21,8.75-23.1,8.22-44.28,20.54-65.75,32.16-9,4.88-17.55,10.74-26.08,16.49-3,2-5.84,3.6-9.45,3.6H579c-19.1-.35-38.2-.61-57.29-1.12-2.79-.07-6.14-.52-8.17-2.12a14.21,14.21,0,0,1-4.78-7.81c-1.53-8-2.46-16.07-3.26-24.16-1.8-18.05-3.36-36.13-5.06-54.2-.42-4.5.58-8.42,4.36-11.17,2.79-2,5.78-3.59,8.93-3.59a9.89,9.89,0,0,1,5,1.38,39.43,39.43,0,0,0,20.1,5c1.82,0,3.66-.09,5.5-.25C564.64,90.63,583.42,84.17,601,74c1.85-1.07,3.64-2.25,5.78-3.59-1.9-1.36-3.41-2.59-5.06-3.61-18.64-11.57-39.1-15.9-60.53-15.9-1.5,0-3,0-4.51.07a45.66,45.66,0,0,0-14.6,2.79,102.47,102.47,0,0,0-28.33,16.06,2.54,2.54,0,0,1-1.5.39,3.46,3.46,0,0,1-1.62-.36c-2-1.17-3.66-3-5.7-4.09-8-4.28-15.68-9.37-24.13-12.24-6.52-2.21-13.84-2.7-20.87-2.7h-1.45c-13.22.12-26.08,3.15-38.62,7.26a70.49,70.49,0,0,0-22.45,12.34l.95.66c20.46,13,42.6,20.77,67,21.57.56,0,1.12,0,1.67,0M606,523.77c1.39,0,2.79,0,4.2-.14,16.55-1.11,30.73-8,43.78-17.76a48,48,0,0,0,18.66-29.37,101.16,101.16,0,0,0,1.9-22.19c-.51-37-9.46-72.15-25.19-105.6-1.19-2.54-2.51-5-4-7.92a9.61,9.61,0,0,0-.7,1c-2.34,5.5-4.61,11-7,16.51-22.4,50.68-41,102.67-54.2,156.55-.75,3.09,0,4.43,2.74,5.44A57,57,0,0,0,606,523.77m-227.9-.14c1.1,0,2.2,0,3.31-.07,5.85-.24,11.63-2.42,17.41-3.82,2.09-.51,2.46-1.85,1.91-4-11.35-45.57-25.72-90.14-44.2-133.35-.37-.87-.8-1.71-1.47-3.12-.57.76-.87,1.24-1.24,1.67q-20.74,24.25-41.46,48.54a6.89,6.89,0,0,0-1.64,3.91c-.36,11.64-1,23.31-.67,34.94a44.86,44.86,0,0,0,12.3,30.21c15.2,15.79,33.71,25.11,55.75,25.11m-187.45,63L175.77,596c23.92,18.91,50.56,31.93,78,43.09,1.14-14,2.26-27.78,3.4-41.77L254,598c-11.17,2.58-22.32,5.29-33.54,7.69a90.74,90.74,0,0,1-15.12,2.07c-.27,0-.55,0-.82,0-9.85,0-15.87-7.32-14.47-17.29.14-1,.28-2,.54-3.84m587.25,21a51.1,51.1,0,0,1-10.12-1.13c-12.77-2.61-25.45-5.69-38.16-8.57-1-.23-2-.37-2.82-.52,1.14,14,2.26,27.75,3.4,41.67,27.53-11.23,54.18-24.19,78-43.11l-14.84-9.3c.28,1.94.46,3.06.6,4.19,1.14,8.85-3.43,15.52-12.23,16.55a32.63,32.63,0,0,1-3.85.22M714.72,741.32a11.48,11.48,0,0,0,1.42-.26c-.42-1.24-.67-2.18-1.07-3-8-17.7-15.89-35.42-24-53.07-2.38-5.21-5.21-9.91-10.13-13.62-6.35-4.8-12.89-8.73-20.57-10.64a38,38,0,0,0-7.19-.62c-2.74-.14-5.48-.34-8.2-.34-4.9,0-9.7.65-14.22,3.48-2.54,1.59-5.54,2.57-7.81,4.45-5.68,4.7-6.44,11.47-6.28,18.2a58.31,58.31,0,0,0,2,13.11,143.05,143.05,0,0,0,5.63,17.68,113.87,113.87,0,0,0,7.44,14.44c2.21,3.79,5.07,7,10,7.17q36.44,1.5,72.88,3.07h.06m-445.65,0h0q36.57-1.53,73.14-3.08a10.76,10.76,0,0,0,9.49-6.41c3.88-7.79,7.74-15.6,11.14-23.6,3.69-8.69,4.87-18,4.45-27.35-.2-4.62-1.35-9.3-5.31-12.16-6.16-4.45-12.38-8.72-20.58-8.72h-.89c-7.19.27-14.56-.57-21.27,2.4a92.61,92.61,0,0,0-15.55,9c-3.16,2.23-6.41,5.16-8.1,8.53-7.31,14.53-14.13,29.3-20.95,44.07-2.54,5.48-4.61,11.19-7,17a10.92,10.92,0,0,0,1.38.29M491.92,843.14c.89-1.18,1.52-1.92,2.06-2.73,7.14-10.8,14.35-21.55,21.39-32.41A99.54,99.54,0,0,0,528,778c2.88-11.39.73-22-8.11-30.26-2.76-2.6-6.6-4.11-10.09-5.84a39,39,0,0,0-17.42-4.38,33.66,33.66,0,0,0-8.86,1.19c-4.77,1.28-9.3,3.52-13.9,5.42-6.86,2.83-10.73,8.32-13,15.08-2.47,7.31-2.07,14.55.06,22,5.07,17.59,15.25,32.39,25.16,47.36,3.19,4.82,6.56,9.52,10.06,14.58M542.56,0a108.24,108.24,0,0,0-24.48,2.68,97,97,0,0,0-26,10.1C477.28,4.32,460.71.05,442.6.05h-.06a179.06,179.06,0,0,0-64.78,12.32,115.22,115.22,0,0,0-47,33.1,38.69,38.69,0,0,0-9.34,27.27q-7.67-2.35-15.19-4.56c-37.61-11.12-72.28-16.52-106-16.52A297.62,297.62,0,0,0,148.8,56.1c-7.8,1.37-15.11,3.27-22.18,5.12l-4.89,1.26c-3.75,1-7.23,2-10.59,3.06-1.74.54-3.39,1-5,1.51q-7.76,2.25-15.58,4.48l-6.72,1.93A25,25,0,0,0,65.77,98.67a27.38,27.38,0,0,0,1.9,9.86q.63,1.56,1.23,3.12c1.47,3.76,3,7.64,4.83,11.67,2.61,5.72,5.56,12.21,9.17,18.7,5.37,9.64,11,19.2,16.37,28.45l2.53,4.32.72,1.24a89,89,0,0,0,7.6,11.54c6.34,7.91,12.6,15.63,19.5,23.15,2.64,2.88,5.31,5.56,8,8.12-24.2,18.63-47.47,41.78-70.82,70.47-7.15,8.78-14.44,18.38-23,30.22a95.12,95.12,0,0,0-7.11,12c-.78,1.51-1.52,2.93-2.21,4.12s-1.34,2.22-2.13,3.48c-1.41,2.24-3,4.78-4.54,7.68s-2.89,5.76-4.18,8.48c-1.16,2.44-2.26,4.74-3.35,6.8-1.21,2.26-2.57,4.61-4,7.1-2,3.52-4.17,7.17-6.21,11.19-2.22,4.39-4,8.74-5.54,12.58-.64,1.57-1.25,3.06-1.86,4.49-4.75,11.15-2.26,19.77.66,25s8.92,11.93,20.93,13.81c3.63.56,7.36,1.17,11,1.76,4.47.73,9.09,1.49,13.71,2.19,5,.77,11.17,1.71,17.46,2.29,2.62.23,5,.27,7,.27h2.39c.83,0,1.86,0,2.49.07,4.93.44,10.21.88,15.79.88,2.47,0,4.84-.09,7.13-.26-.35.93-.71,1.86-1.06,2.8-6.31,16.89-12.57,35.09-13.71,55.55-.79,14.19-1.56,28.08-2.15,42.18-.17,4.21,0,8.16.16,11.64.06,1.42.12,2.76.16,4.06a25,25,0,0,0,25,24.32,23.83,23.83,0,0,0,2.66-.14q4.22-.45,8.29-1a38.92,38.92,0,0,0-1.93,10,40.8,40.8,0,0,0,13.5,32.3c3.62,3.33,7.54,6.68,11.65,10C174.54,659.72,209,675.46,236,686.46c-.26.58-.52,1.19-.78,1.82l-.9,2.21c-6.37,15.59-13,31.72-19.25,47.75-5.48,13.92-3.57,28.29,5.21,39.43,5.24,6.64,15,14.56,31.9,14.56h.64c7.29-.08,15.56-.17,23.82-.45,5.94-.21,12-.35,17.94-.49,17.08-.42,34.67-.84,52.45-2.68l.8.5c3.54,2.25,7.2,4.57,11.31,6.8,18.85,10.24,38.38,16.25,57.39,21.81,5.51,11.95,12.47,22.48,18.79,32l3.37,5.12c7.53,11.54,15.13,22.73,25.15,32.74a39.6,39.6,0,0,0,57-.69,148.4,148.4,0,0,0,14.64-17.71c1.93-2.83,4-5.75,5.91-8.56,9.29-13.37,18.84-27.11,26.14-43.07l1.36-.4c4.66-1.37,9.49-2.79,14.29-4.26,21.58-6.64,39.06-14.43,54.32-24.26,1.87.22,4,.43,6.2.51,30.22,1.12,61.12,2.15,87.72,3,.4,0,.8,0,1.19,0a45,45,0,0,0,8.8-1,37.44,37.44,0,0,0,30.34-40.94,52.4,52.4,0,0,0-3.54-14.51c-6.35-15.47-13.07-31.64-20.45-49.2l0-.07c20.59-8.5,42.36-18.14,62.82-30.77,13.05-8,28.23-18,42-31.22,9.24-8.86,14-20.73,13.11-32.56a39.05,39.05,0,0,0-16.78-28.93c-12.29-8.64-25-16.48-37.29-24.06l-1-.63a332.55,332.55,0,0,0-15.92-59.48c5.42-2.27,10.9-4.61,16.35-7.08a135.75,135.75,0,0,0,21.27-12.13c16.15-11.23,22-31.35,14.14-48.92-4.8-10.78-9.81-21.26-18.31-30.95-16.16-18.39-35.6-39.2-59.33-57.23.88-4.94,1.78-9.93,2.66-14.79,2.25-12.4,4.57-25.22,6.54-38.05,6.18-40.38,6.68-76.5,1.54-110.42l-.13-.83c-2-13.16-4.25-28.08-10.25-42.68-9.49-23.07-30.53-37.4-54.93-37.4a64.11,64.11,0,0,0-11.16,1,218.52,218.52,0,0,0-47.1,14,37.82,37.82,0,0,0,7-20.62A39.29,39.29,0,0,0,651.75,44a154.09,154.09,0,0,0-18.42-16.74C612.76,11.84,589.72,6.17,572,3A163.11,163.11,0,0,0,542.56,0ZM159.17,129.91a289,289,0,0,1,38.46-2.59,303.9,303.9,0,0,1,93.88,15.32c19.58,6.36,36.94,12.26,53.07,18,19.18,6.86,38.81,17.33,60,32a161.57,161.57,0,0,0,17,9.95q2.29,1.2,4.55,2.31a26.38,26.38,0,0,0-4,4.5L420,212.52c-3.83,5.5-7.8,11.19-11.66,17-1.63,2.44-3,4.82-4.26,6.91-1.05,1.79-2,3.47-2.95,4.81-3.48,5.14-7.18,10.4-10.75,15.48l-4.77,6.79c-1.75,2.51-3.48,5-5.14,7.47-3.67,5.36-7.13,10.42-10.76,15.21-6.14,8.13-12.66,16-19.35,24-6.15,7.37-13,15.38-21,24.48-6.74,7.66-14,15.71-23.4,26.09-5.83,6.41-11.67,12.94-17.32,19.26-19.21,21.47-37.35,41.75-57.48,60.47-25,23.23-45.5,38.93-66.35,50.79,2.25-7.25,4.63-14.22,6.93-20.76,2.95-8.37,6.37-16.66,10-25.43l.74-1.79c3.8-9.22,9.35-18.11,14.28-25.6a110.25,110.25,0,0,0,7.66-14.31c.88-1.88,1.72-3.66,2.53-5.22.36-.7,1.21-2,2-3.2l.39-.59c1.92-2.87,3.88-5.75,6-8.8l2.76-4.05a25,25,0,0,0-10.38-36.83,36.65,36.65,0,0,0-15.23-3.31,38.45,38.45,0,0,0-12.75,2.21c-2.84,1-5.66,2-8.39,3-5.34,1.93-10.39,3.74-15.44,5.37l-7.76,2.5c-11.82,3.84-23,7.46-34.33,10.49a113.11,113.11,0,0,1-13.45,2.72c.46-.58,1-1.22,1.46-1.91,1.27-1.72,2.48-3.42,3.65-5.07,2-2.79,3.87-5.43,5.75-7.81,4.31-5.5,8.38-10.41,12.44-15,6.38-7.27,12.64-14.35,19-21,9.21-9.58,18.91-19.21,28.29-28.53l.16-.15c4.23-4.2,9.83-9.69,15.62-14.88,3.32-3,6.95-5.89,10.79-9l3.43-2.77c4.84-3.92,10.58-8.56,16.53-13.22,1.36-1.06,2.94-2.18,4.77-3.47l3.07-2.18a25,25,0,0,0,1.44-39.45l-4.24-3.5c-2.67-2.18-5.18-4.24-7.35-6.23l-3.52-3.22c-6-5.49-11.69-10.68-16.81-16.08-3.29-3.47-6.52-7.53-9.94-11.83-1.75-2.2-3.56-4.47-5.45-6.76-1.34-1.63-2.67-3.19-4-4.69-2.16-2.55-4.21-4.95-6-7.25q-5.2-6.84-10.34-13.78Zm420.1,85.55c10.42,0,18-4.2,23.43-7.87l2-1.35c7.58-5.12,14.75-10,22-13.89q4.66-2.52,9.32-5.07c18-9.84,35-19.14,52.93-25.52,4.35-1.55,8.81-2.92,13.48-4.24.22,1,.43,2.12.64,3.21,5.56,28.59,5.79,59.07.71,93.19-1.6,10.77-3.57,21.39-5.66,32.57a95.88,95.88,0,0,0-21.29-21.84c-14.33-10.82-29.94-16.3-46.38-16.3-12.48,0-25.13,3.23-37.61,9.6-23.72,12.13-43.46,28.27-58.67,48-15,19.48-29.06,38.78-41.7,57.34l-.33.5c-6.71-10.56-14.55-21.56-23.86-33.53-2.48-3.17-5-6.5-7.44-9.71-5.28-7-10.75-14.16-16.67-21.19-2-2.37-4.06-4.6-6.12-6.71l29.2-57.86a25,25,0,0,0,.89-20.56A33.9,33.9,0,0,0,492.24,201a38.05,38.05,0,0,0,5.83,5.8c6,4.74,13.74,7.26,23,7.51,14,.36,28.18.61,41.89.84l15.6.28Zm164.35,202.6q-1.07-10.17-2.89-20.35,8.09,7.38,15.24,15.21c-4.1,1.72-8.23,3.43-12.35,5.14Zm-130,80a888.07,888.07,0,0,1,30.16-89.74,218.34,218.34,0,0,1,5.71,46.38,77.37,77.37,0,0,1-1.38,16.69A22.9,22.9,0,0,1,639,485.81c-9,6.71-17.21,10.67-25.38,12.21Zm-278.2-57.16,11.91-14c8.44,22.69,16,46.27,22.86,71.12-10.9-1.77-20.74-7.32-29.89-16.83A20.14,20.14,0,0,1,335,467.62c-.23-8.29.08-16.74.4-25.68l0-1.08ZM248.7,547.41a268.36,268.36,0,0,1,6.16-26.18,144.21,144.21,0,0,0,14.45,22.48l-.76.13c-6.47,1.11-13.15,2.25-19.85,3.57Zm466.14-4.06c1.52-2,2.93-3.84,4.23-5.64a126.71,126.71,0,0,0,10-16.21q3.74,12.69,6.43,26.32c-6.85-1.5-13.77-3-20.65-4.47ZM414.36,576.6c5-1.39,10.06-2.94,15.36-4.68L441,568.26c9.23-3,18.77-6.1,28.2-9.32A69.5,69.5,0,0,1,491.93,555a71.9,71.9,0,0,1,23.14,4c15.79,5.37,31.54,10.45,43.49,14.27q5.58,1.77,11,3.3a42.92,42.92,0,0,0-11.61,15c-6.77,14.12-12.66,24.49-19.12,33.62-6.77,9.56-15.24,14.94-26.67,16.93l-.59.1a48.39,48.39,0,0,0-5.82,1.26,44.38,44.38,0,0,1-12.44,1.67c-9,0-18.82-2.29-27.27-4.53-7.3-1.93-13.09-5.81-18.23-12.22-9.09-11.33-15.77-24.38-21.1-35.64a43.73,43.73,0,0,0-12.32-16.17ZM643.43,684.77c.3,0,.8,0,1.58,0,1.38,0,3.08.09,4.87.19l2.06.11,2.16.09,1,0c3,.91,6.42,2.83,10.8,6.13.39.3,1.07,1,2.46,4.07,2.93,6.42,5.88,12.9,8.8,19.37l-26.61-1.11a63.15,63.15,0,0,1-3.06-6.3,117.73,117.73,0,0,1-4.61-14.57,35.31,35.31,0,0,1-1.18-7c.55-.3,1.13-.63,1.72-1Zm-314.22.58a47.69,47.69,0,0,1,6.51-.28c1.65,0,3.52,0,5.47-.07a7.8,7.8,0,0,1,1.2.6,34.54,34.54,0,0,1-2.53,12.85c-2.12,5-4.46,9.95-7,15.16l-26.31,1.11c3.52-7.49,7.11-15,10.77-22.29.19-.16.46-.37.82-.62a67.18,67.18,0,0,1,11.08-6.46Zm151.3,81.35,2.68-1.15a60.82,60.82,0,0,1,6.87-2.69,9.22,9.22,0,0,1,2.35-.32,14.61,14.61,0,0,1,6.3,1.77c.81.4,1.63.79,2.46,1.18s1.66.79,2.26,1.1c.77.88,1.19,2,.36,5.29a74.26,74.26,0,0,1-9.39,22.52L492,798.16c-4.82-7.9-8.88-15.74-11.22-23.88-1.13-3.92-.84-5.77-.41-7.06.07-.2.13-.37.19-.52Z"/><path class="cls-2" d="M129.86,532.26c.22-1.73.37-3.26.6-4.78,3.44-22.4,10.17-43.94,17.67-65.23,3.38-9.62,7.32-19.05,11.21-28.47,4.36-10.56,10.23-20.27,16.51-29.81,3.55-5.39,5.89-11.55,8.89-17.31a66.24,66.24,0,0,1,3.82-6.15c2.82-4.21,5.69-8.39,8.83-13a12.21,12.21,0,0,0-9.42-.29c-8.15,2.86-16.22,5.93-24.44,8.57-14.37,4.62-28.71,9.44-43.28,13.34-19.64,5.25-39.73,5.78-59.9,3.86-.85-.08-1.69-.26-3.05-.48,3.56-6.77,6.84-13.3,10.39-19.69,3-5.44,6.28-10.74,9.56-16,1.28-2.05,3-3.84,4.39-5.79,3.31-4.51,6.45-9.16,9.9-13.55,4.3-5.47,8.72-10.85,13.31-16.08,6.47-7.37,13-14.74,19.77-21.81,9.47-9.85,19.17-19.48,28.86-29.1,5.41-5.37,10.89-10.68,16.56-15.77,4.88-4.37,10.06-8.41,15.15-12.54,5.59-4.53,11.2-9.05,16.87-13.49,2.71-2.12,5.57-4,8.63-6.24-4.29-3.6-8.52-6.88-12.44-10.48-7.31-6.72-14.75-13.33-21.57-20.52-5.91-6.24-11-13.23-16.51-19.87-3.51-4.24-7.21-8.34-10.54-12.71q-9.69-12.71-19-25.66c-4.06-5.65-7.84-11.5-11.73-17.28-.64-1-1.15-2-2.12-3.65,12.77-2.38,24.92-5.13,37.22-6.86,49.45-7,97.87-1.92,145.26,13.48,18,5.85,35.94,11.89,53.76,18.27,23.62,8.45,45.24,20.74,65.82,35a137.4,137.4,0,0,0,14.39,8.39c5.3,2.8,10.78,5.24,16.18,7.85,5.05,2.45,10.34,1,15.54,1,6.1,0,9-4.42,10.12-9.34a165,165,0,0,0,3.19-21.49c1.86-18.84,3.39-37.71,5.19-56.55.46-4.81-.17-9.13-4.23-12.13-5-3.7-10.18-4.74-16-1.19-5.4,3.29-11.64,4.17-17.89,4-24.36-.8-46.5-8.59-67-21.57l-.95-.66a70.49,70.49,0,0,1,22.45-12.34c12.54-4.11,25.4-7.14,38.62-7.26,7.47-.06,15.35.34,22.32,2.7,8.45,2.87,16.17,8,24.13,12.24,2,1.1,3.69,2.92,5.7,4.09a3.46,3.46,0,0,0,3.12,0,102.47,102.47,0,0,1,28.33-16.06,45.66,45.66,0,0,1,14.6-2.79c23.07-.64,45.1,3.45,65,15.83,1.65,1,3.16,2.25,5.06,3.61-2.14,1.34-3.93,2.52-5.78,3.59-17.55,10.2-36.33,16.66-56.63,18.41-9,.78-17.56-.11-25.6-4.71-5-2.87-9.68-.86-13.9,2.21-3.78,2.75-4.78,6.67-4.36,11.17,1.7,18.07,3.26,36.15,5.06,54.2.8,8.09,1.73,16.19,3.26,24.16a14.21,14.21,0,0,0,4.78,7.81c2,1.6,5.38,2.05,8.17,2.12,19.09.51,38.19.77,57.29,1.12,3.72.07,6.63-1.54,9.68-3.6,8.53-5.75,17-11.61,26.08-16.49,21.47-11.62,42.65-23.94,65.75-32.16,9.86-3.51,20.05-6.17,30.21-8.75,6.3-1.6,10,.55,12,6.82A182,182,0,0,1,727.61,156c6.56,33.81,5.93,67.75.89,101.63-2.77,18.61-6.63,37-9.86,55.6-1.35,7.72-2.58,15.48-3.42,23.27-.62,5.74.95,10.89,6.12,14.39,21.3,14.41,40.81,30.9,57.7,50.36,5.06,5.84,10,11.8,14.9,17.77a24.46,24.46,0,0,1,2.14,3.88c-1.34.69-2.49,1.38-3.72,1.89-17,7.12-34,14.33-51.05,21.28-7.95,3.23-11.14,9.45-8.41,17.62a17.51,17.51,0,0,0,1,2.47c15.88,31,25,64,29.76,98.41.67,4.85,1.56,9.68,2.33,14.52a3.41,3.41,0,0,1-.2.88c-1.27-.23-2.58-.44-3.87-.72-18.3-4-36.58-8.1-54.9-12-5-1.05-10.07-1.59-15.12-2.23-6.33-.81-12.24,3-14.43,9.68-3.38,10.25-6.52,20.57-9.8,30.85-.74,2.32-1.65,4.59-2.57,7.1-5.67-2-11.14-3.83-16.56-5.79a293.83,293.83,0,0,0-50.24-13.49c-8.19-1.41-14.15,1.44-17.79,9-6.19,12.93-12.94,25.51-21.25,37.26-10.61,15-24.79,24-42.8,27.12a36.55,36.55,0,0,0-3.75.74c-18,5.21-35.56,1.93-53-2.7-12.77-3.38-23.06-10.44-31.33-20.74-10-12.43-17.43-26.3-24.2-40.6-1.62-3.44-3.53-6.47-7-8.43a15.28,15.28,0,0,0-10.44-1.86c-20.83,3.37-40.8,9.76-60.55,17-2.28.83-4.58,1.58-7.16,2.47-1.39-3.88-2.77-7.43-3.92-11-2.8-8.79-5.4-17.64-8.28-26.4-2.65-8.09-8.86-11.26-17.26-9.65-12.32,2.35-24.75,4.17-37,6.64-10.48,2.11-20.84,4.82-31.25,7.25-.93.22-1.89.36-2.77.53-.19-.36-.38-.54-.35-.68,3.82-23.62,7-47.37,14.42-70.26a13.27,13.27,0,0,1,4.28-6.42c9.28-7.85,18.4-15.9,27.59-23.87.5-.44,1-.84,1.91-1.54.37,1.72.7,3.12,1,4.53,3.74,18.92,12.33,35.45,24.64,50.17,19.19,22.93,44.41,30.4,73.21,28.41,19.5-1.34,38.33-6,56.84-12.11,13.05-4.28,26.14-8.44,39.13-12.88a93.51,93.51,0,0,1,62.06.05c14.3,4.86,28.67,9.52,43.06,14.12,17.24,5.52,34.81,9.6,52.92,10.84a104.23,104.23,0,0,0,36.71-3.73c18.76-5.49,31.93-18.21,43-33.51,15.79-21.81,21-46.78,21.32-73.1.44-37.44-7.46-73.28-21.81-107.7C693.22,330,687.19,318,681,306.28c-4.59-8.64-11.38-15.78-19.19-21.68-18.18-13.71-37.66-14.55-57.55-4.39-19.62,10-36.78,23.52-50.26,41-14.13,18.32-27.81,37-40.82,56.14-6.69,9.83-11.43,21-17.23,31.43a6,6,0,0,1-3.91,2.9c-1.21.09-3.21-1.36-3.76-2.61C478,386,463.94,365.39,448.54,345.6c-7.83-10.06-15.3-20.42-23.5-30.16-5.35-6.34-11.71-11.82-17.6-17.66l37.48-74.27-.89-.68c-.46.29-1.09.48-1.38.9-4.54,6.52-9.11,13-13.51,19.63-2.58,3.87-4.72,8-7.32,11.87-5.14,7.6-10.47,15.06-15.72,22.58-5.47,7.83-10.7,15.83-16.46,23.44-6.44,8.52-13.25,16.76-20.09,25-7,8.44-14.2,16.74-21.45,25q-11.72,13.31-23.68,26.4c-25,27.48-49,55.88-76.27,81.22-22.11,20.55-45.3,39.69-71.7,54.61-14.18,8-29.3,13.69-44.78,18.55A14.67,14.67,0,0,1,129.86,532.26Zm362.45,56.45c-1.86-.09-3.23-.18-4.6-.21-18.36-.44-33.33,6.81-45.5,20.24a12.27,12.27,0,0,0-1.74,14.74,51.15,51.15,0,0,0,5.53,8c9.67,11,21.54,19.09,34.53,25.59,8,4,16.36,3.93,24-.6a213.62,213.62,0,0,0,25-16.9c5.17-4.15,9.28-9.76,13.33-15.12a11.84,11.84,0,0,0-.77-15.25c-7-7.9-15.23-14.11-25.34-17.55A58.19,58.19,0,0,0,492.31,588.71ZM694.3,161c-2.72,5.09-5.14,10-7.91,14.7-5.67,9.63-13.45,17.47-21.8,24.76a127.47,127.47,0,0,1-11,9c-6,4.16-12.26,7.9-18.33,11.92a4.54,4.54,0,0,0-1.37,2.55,1.82,1.82,0,0,0,1,1.44c12.55,3.6,22.32,11.51,31.48,20.32a96.91,96.91,0,0,1,9,9.61c4.59,5.81,8.82,11.9,13.24,17.84,1.3,1.74,2.48,4.44,4.17,4.85,3.3.81,3.57-2.88,4.6-4.94,3.14-6.27,7-12.4,8.75-19.08a144.48,144.48,0,0,0,3.78-27.13c.52-8.65-.08-17.38-.47-26.06-.48-10.45-3.16-20.5-6.48-30.35C701.44,166.05,698.84,162.36,694.3,161Z"/><path class="cls-3" d="M439.15,175.54a139.8,139.8,0,0,1-15-8.77c-21.52-14.9-44.11-27.74-68.8-36.58q-27.94-10-56.2-19.1C249.58,95,199,89.72,147.28,97c-12.86,1.8-25.56,4.68-38.91,7.17,1,1.74,1.55,2.82,2.22,3.81,4,6,8,12.16,12.26,18.07q9.75,13.55,19.87,26.83c3.49,4.57,7.36,8.85,11,13.29,5.73,6.94,11.08,14.25,17.26,20.77,7.12,7.52,14.9,14.43,22.54,21.44,4.1,3.78,8.52,7.21,13,11-3.19,2.31-6.18,4.32-9,6.54-5.92,4.64-11.79,9.36-17.63,14.1-5.32,4.32-10.73,8.54-15.84,13.11-5.92,5.32-11.65,10.87-17.31,16.49-10.12,10.06-20.26,20.12-30.16,30.42-7.1,7.39-13.9,15.1-20.67,22.8-4.79,5.47-9.42,11.1-13.91,16.82-3.61,4.59-6.89,9.45-10.35,14.15-1.49,2.05-3.25,3.92-4.59,6.07-3.43,5.52-6.83,11.06-10,16.75-3.71,6.68-7.14,13.5-10.86,20.58,1.42.23,2.3.42,3.19.5,21.08,2,42.08,1.46,62.6-4,15.24-4.08,30.23-9.12,45.25-13.95,8.59-2.76,17-6,25.55-9a12.76,12.76,0,0,1,9.84.3c-3.28,4.83-6.28,9.2-9.23,13.61a68.78,68.78,0,0,0-4,6.43c-3.14,6-5.58,12.46-9.29,18.09-6.57,10-12.7,20.13-17.26,31.17-4.07,9.85-8.18,19.71-11.72,29.76-7.84,22.26-14.87,44.78-18.47,68.2-.24,1.59-.39,3.18-.62,5A12,12,0,0,0,124,543c16.17-5.07,32-11,46.79-19.39,27.61-15.59,51.85-35.61,75-57.09,28.49-26.49,53.6-56.19,79.72-84.92q12.48-13.69,24.75-27.6c7.58-8.62,15.09-17.3,22.43-26.13,7.15-8.57,14.26-17.18,21-26.09,6-8,11.49-16.32,17.21-24.51,5.49-7.86,11.06-15.66,16.43-23.61,2.72-4,5-8.36,7.65-12.41,4.5-6.74,9.16-13.38,13.79-20,0,0,5.62-4.36,5.62-21.86,0-16.11-5.62-19.08-5.62-19.08C445.48,178.73,442.28,177.2,439.15,175.54Z"/><path class="cls-4" d="M601.67,66.76c-19.95-12.38-42-16.46-65-15.83a45.45,45.45,0,0,0-14.6,2.8A102.53,102.53,0,0,0,493.7,69.78a3.43,3.43,0,0,1-3.12,0c-2-1.16-3.66-3-5.71-4.08-7.95-4.28-15.67-9.37-24.13-12.24-7-2.37-14.85-2.77-22.31-2.7-13.22.12-26.09,3.14-38.62,7.26a70.71,70.71,0,0,0-22.46,12.33c.47.33.71.51,1,.66,20.46,13,42.6,20.78,67,21.57,6.24.2,12.49-.68,17.88-4,5.84-3.56,11-2.52,16,1.18,4.06,3,4.69,7.32,4.23,12.13-1.8,18.84-3.34,37.71-5.19,56.55A166.45,166.45,0,0,1,475,180a13.88,13.88,0,0,1-3.14,6.43h40.8a14.14,14.14,0,0,1-3.9-7c-1.53-8-2.46-16.08-3.26-24.16-1.8-18.06-3.36-36.14-5.06-54.2-.43-4.5.58-8.42,4.36-11.18,4.22-3.07,8.89-5.07,13.89-2.21,8,4.6,16.65,5.49,25.61,4.71,20.3-1.75,39.07-8.2,56.62-18.4,1.86-1.08,3.64-2.26,5.79-3.6C604.83,69,603.31,67.78,601.67,66.76Z"/><path class="cls-5" d="M645.37,340.79c1.45,2.89,2.77,5.38,4,7.92,15.73,33.45,24.68,68.56,25.19,105.6a101.77,101.77,0,0,1-1.9,22.19A48,48,0,0,1,654,505.87c-13.05,9.71-27.23,16.65-43.78,17.76a57.76,57.76,0,0,1-24-3.34c-2.76-1-3.49-2.35-2.74-5.44C596.63,461,615.25,409,637.65,358.3c2.41-5.47,4.68-11,7-16.51A9.61,9.61,0,0,1,645.37,340.79Z"/><path d="M200.72,528.44c-27.74,19.17-58.41,27.13-91.12,30.63-.13-4.79-.52-9.39-.33-14,.58-14,1.35-27.89,2.13-41.83.94-16.85,6.35-32.63,12.17-48.2,5.45-14.59,11.82-28.85,17.78-43.25l.79-1.92c-1.54.39-2.59.69-3.66.92-11.31,2.41-22.57,5.11-33.94,7.12-7.91,1.4-16,.79-24,.06-4-.36-8,0-11.91-.33-5.34-.49-10.65-1.29-16-2.1-8.21-1.25-16.4-2.66-24.61-3.94-3.23-.51-3.73-1.31-2.44-4.34,2.22-5.21,4.16-10.55,6.71-15.58,3.07-6.07,6.78-11.81,10-17.82,2.68-5,4.91-10.32,7.57-15.36,1.88-3.56,4.22-6.87,6.23-10.36,2.69-4.67,4.84-9.71,8-14.05,7.09-9.86,14.37-19.61,22-29,22.25-27.33,46.7-52.44,75.52-73,4.79-3.41,9.73-6.61,15-10.16-3.74-3.7-7.48-7.42-11.25-11.11-5.79-5.66-11.88-11-17.35-17-6.44-7-12.46-14.46-18.43-21.9a79.47,79.47,0,0,1-6.23-9.75c-6.28-10.74-12.59-21.45-18.64-32.32-3-5.47-5.66-11.19-8.26-16.9-2-4.47-3.76-9.09-5.58-13.67a6.54,6.54,0,0,1-.16-1.8c7.53-2.17,15-4.28,22.37-6.43C118,89.63,122.92,88,127.9,86.7c8.36-2.13,16.71-4.49,25.2-6,49.63-8.72,98.18-2.7,146,11.43,28.51,8.43,56.86,17.44,84,29.81A313.28,313.28,0,0,1,447,161.44c.67.52,1.39,1,2.51,1.79.79-15.17,1.56-29.9,2.34-44.92-.64-.06-1.38-.17-2.11-.17-35.25.12-66.56-11.3-94.57-32.32-3.95-3-7.37-6.39-8.49-11.61a13.79,13.79,0,0,1,3.09-12.58,90.29,90.29,0,0,1,37-25.94,153.77,153.77,0,0,1,55.77-10.64C460.72,25,477,30.65,491,42.54c.29.25.61.46,1,.74a72.58,72.58,0,0,1,31.66-16.23c14.64-3.37,29.23-2.14,43.82.5,18.22,3.3,35.79,8.44,50.83,19.72a129.19,129.19,0,0,1,15.37,14c5.68,5.93,5.77,14.54-.35,20a129.59,129.59,0,0,1-20.48,15.16c-22.34,13.16-46.51,20.68-72.54,21.71-2.71.11-5.43,0-8.24,0,.79,15.23,1.56,30.27,2.34,45.48a11.4,11.4,0,0,0,1.48.28c11.77.33,23.55,1,35.3.73,3.65-.1,7.49-2.51,10.79-4.57A617.42,617.42,0,0,1,664.26,117a193.94,193.94,0,0,1,43-13c17.05-3,32,5.23,38.64,21.3,5,12.07,6.85,24.94,8.79,37.74,5.21,34.38,3.69,68.7-1.54,102.9-2.9,19-6.61,37.86-9.89,56.8-.47,2.7-.46,5.48-1,8.16s.63,3.92,2.58,5.28c24.4,16.87,44.88,38,64.34,60.11,6.36,7.24,10.39,15.92,14.26,24.61,2.86,6.45.72,13.86-5.57,18.23a109.63,109.63,0,0,1-17.33,9.89c-11.69,5.3-23.65,10-35.5,15-1,.41-2,.85-3.09,1.33a18.48,18.48,0,0,0,.64,2c12.37,26.52,20.13,54.4,24.52,83.27.38,2.51,1.56,3.67,3.68,5,14.66,9.1,29.48,18,43.58,27.9,7.67,5.39,8.76,15.31.74,23-11.38,10.91-24.39,19.72-37.77,28-19.35,11.94-40.09,21.06-61.06,29.69-2.78,1.14-6.47,1.15-8.38,3s-1.72,5.48-2.76,8.22a50.72,50.72,0,0,1-3.73,8,4.76,4.76,0,0,0-.2,4.87q12,28.45,23.75,57a28.44,28.44,0,0,1,1.8,7.69,12.58,12.58,0,0,1-10.27,13.72,19.58,19.58,0,0,1-4.37.49q-43.83-1.46-87.64-3c-3.81-.14-7.59-.92-11.4-1.21a5.86,5.86,0,0,0-3.54.79c-16.41,11.72-34.72,19.37-53.85,25.25-8.43,2.6-16.93,5-25.37,7.56a3.09,3.09,0,0,0-1.91,1.47c-7.66,21.14-21.27,38.79-33.73,57.08a122.89,122.89,0,0,1-12.2,14.68,14.61,14.61,0,0,1-21.09.12c-8.59-8.59-15.3-18.64-21.9-28.74-9-13.69-18.51-27.07-24-42.76-.31-.89-1.73-1.69-2.78-2-21.09-6.17-42.34-11.92-61.81-22.5-5.51-3-10.68-6.58-16.06-9.8a6.65,6.65,0,0,0-3.73-1.18c-25.07,3.18-50.32,3-75.5,3.83-7.75.27-15.5.36-23.25.44-4.87,0-9.39-1-12.63-5-3.62-4.6-3.54-9.79-1.57-14.81,6.53-16.61,13.28-33.13,20-49.65,1.48-3.62,3.88-7,4.78-10.72,1-4-3.13-6.81-4.06-10.55-.81-3.22-1.09-7.19-3.16-9.3s-6.15-2.09-9.22-3.34c-31-12.6-60.93-27.16-87.28-48.17-3.53-2.81-7-5.74-10.28-8.79-8-7.39-7.16-18.09,1.65-24.47,14.08-10.2,28.95-19.14,44.05-27.71a3,3,0,0,0,1.48-1.61C197.74,545.21,199.12,537.32,200.72,528.44Zm-70.88,3.82a14.67,14.67,0,0,0,1.81-.28c15.47-4.86,30.6-10.55,44.77-18.55,26.41-14.92,49.6-34.06,71.71-54.61,27.26-25.34,51.28-53.74,76.27-81.22q11.93-13.11,23.68-26.4c7.24-8.25,14.42-16.55,21.45-25,6.84-8.2,13.65-16.44,20.09-25,5.75-7.61,11-15.61,16.46-23.44,5.24-7.52,10.58-15,15.72-22.58,2.6-3.84,4.74-8,7.31-11.87,4.41-6.61,9-13.11,13.52-19.63.29-.42.91-.61,1.38-.9l.89.68c-12.54,24.84-25.08,49.68-37.48,74.27,5.88,5.84,12.25,11.32,17.59,17.66,8.21,9.74,15.68,20.1,23.5,30.16,15.41,19.79,29.5,40.4,39.7,63.46.55,1.25,2.54,2.7,3.75,2.61a6,6,0,0,0,3.91-2.9c5.8-10.46,10.55-21.6,17.24-31.43,13-19.12,26.69-37.82,40.82-56.14,13.48-17.47,30.63-31,50.26-41,19.89-10.16,39.37-9.32,57.55,4.39,7.81,5.9,14.59,13,19.18,21.68,6.25,11.76,12.27,23.7,17.39,36,14.35,34.42,22.24,70.26,21.8,107.7-.31,26.32-5.53,51.29-21.31,73.1-11.08,15.3-24.25,28-43,33.51a104.15,104.15,0,0,1-36.7,3.73C601,559.06,583.4,555,566.15,549.46c-14.39-4.6-28.76-9.26-43.06-14.12a93.48,93.48,0,0,0-62.05-.05c-13,4.44-26.08,8.6-39.13,12.88-18.52,6.06-37.35,10.77-56.85,12.11-28.8,2-54-5.48-73.2-28.41-12.32-14.72-20.9-31.25-24.64-50.17-.28-1.41-.61-2.81-1-4.53-.88.7-1.41,1.1-1.92,1.54-9.18,8-18.3,16-27.58,23.87a13.36,13.36,0,0,0-4.29,6.42c-7.39,22.89-10.59,46.64-14.42,70.26,0,.14.17.32.36.68.88-.17,1.83-.31,2.77-.53,10.41-2.43,20.77-5.14,31.24-7.25,12.3-2.47,24.73-4.29,37-6.64,8.4-1.61,14.6,1.56,17.26,9.65,2.88,8.76,5.47,17.61,8.28,26.4,1.15,3.62,2.53,7.17,3.91,11,2.58-.89,4.89-1.64,7.17-2.47,19.75-7.22,39.72-13.61,60.55-17A15.29,15.29,0,0,1,397.06,595c3.46,2,5.37,5,7,8.43,6.76,14.3,14.23,28.17,24.2,40.6,8.26,10.3,18.56,17.36,31.33,20.74,17.49,4.63,35.05,7.91,53.05,2.7a36,36,0,0,1,3.75-.74c18-3.13,32.19-12.13,42.79-27.12,8.32-11.75,15.07-24.33,21.26-37.26,3.63-7.59,9.59-10.44,17.79-9a293.83,293.83,0,0,1,50.24,13.49c5.42,2,10.88,3.81,16.55,5.79.92-2.51,1.84-4.78,2.58-7.1,3.28-10.28,6.41-20.6,9.8-30.85,2.19-6.63,8.1-10.49,14.43-9.68,5,.64,10.14,1.18,15.11,2.23,18.33,3.89,36.61,8,54.91,12,1.29.28,2.6.49,3.87.72a3.93,3.93,0,0,0,.2-.88c-.78-4.84-1.66-9.67-2.33-14.52-4.71-34.38-13.88-67.41-29.76-98.41a17.51,17.51,0,0,1-1-2.47c-2.74-8.17.45-14.39,8.4-17.62,17.08-7,34.05-14.16,51.06-21.28,1.22-.51,2.38-1.2,3.72-1.89a25.29,25.29,0,0,0-2.14-3.88c-4.92-6-9.84-11.93-14.91-17.77-16.89-19.46-36.39-36-57.7-50.36-5.16-3.5-6.73-8.65-6.11-14.39.84-7.79,2.07-15.55,3.42-23.27,3.23-18.55,7.09-37,9.86-55.6,5-33.88,5.67-67.82-.9-101.63a182,182,0,0,0-4.87-19.69c-2-6.27-5.68-8.42-12-6.82-10.16,2.58-20.35,5.24-30.21,8.75-23.1,8.22-44.29,20.54-65.76,32.16-9,4.88-17.55,10.74-26.07,16.49-3.05,2.06-6,3.67-9.68,3.6-19.1-.35-38.2-.61-57.3-1.12-2.79-.07-6.13-.52-8.16-2.12a14.1,14.1,0,0,1-4.78-7.81c-1.53-8-2.46-16.07-3.26-24.16-1.8-18.05-3.36-36.13-5.06-54.2-.43-4.5.58-8.42,4.36-11.17,4.22-3.07,8.89-5.08,13.9-2.21,8,4.6,16.64,5.49,25.6,4.71,20.3-1.75,39.07-8.21,56.62-18.41,1.86-1.07,3.65-2.25,5.79-3.59-1.9-1.36-3.42-2.59-5.06-3.61-19.95-12.38-42-16.47-65-15.83A45.72,45.72,0,0,0,522,53.73,102.56,102.56,0,0,0,493.7,69.79a3.46,3.46,0,0,1-3.12,0c-2-1.17-3.66-3-5.71-4.09-7.95-4.28-15.67-9.37-24.13-12.24-7-2.36-14.85-2.76-22.31-2.7-13.22.12-26.08,3.15-38.62,7.26a70.54,70.54,0,0,0-22.46,12.34c.48.33.71.5,1,.66,20.46,13,42.6,20.77,67,21.57,6.25.2,12.49-.68,17.89-4,5.83-3.55,11-2.51,16,1.19,4.06,3,4.69,7.32,4.23,12.13-1.8,18.84-3.34,37.71-5.19,56.55A166.71,166.71,0,0,1,475,180c-1.14,4.92-4,9.29-10.12,9.34-5.19.05-10.49,1.47-15.53-1-5.4-2.61-10.88-5.05-16.18-7.85a138.58,138.58,0,0,1-14.4-8.39c-20.58-14.25-42.2-26.54-65.81-35-17.82-6.38-35.76-12.42-53.77-18.27-47.38-15.4-95.8-20.44-145.25-13.48-12.3,1.73-24.45,4.48-37.22,6.86,1,1.67,1.48,2.7,2.12,3.65,3.88,5.78,7.66,11.63,11.73,17.28q9.33,13,19,25.66c3.34,4.37,7,8.47,10.54,12.71,5.49,6.64,10.61,13.63,16.52,19.87,6.82,7.19,14.26,13.8,21.57,20.52,3.92,3.6,8.14,6.88,12.44,10.48-3.06,2.2-5.93,4.12-8.64,6.24-5.66,4.44-11.27,9-16.86,13.49-5.09,4.13-10.27,8.17-15.15,12.54-5.67,5.09-11.15,10.4-16.56,15.77-9.7,9.62-19.39,19.25-28.86,29.1-6.8,7.07-13.3,14.44-19.77,21.81-4.59,5.23-9,10.61-13.32,16.08-3.45,4.39-6.58,9-9.89,13.55-1.43,1.95-3.12,3.74-4.39,5.79-3.29,5.28-6.54,10.58-9.56,16-3.55,6.39-6.84,12.92-10.39,19.69,1.35.22,2.19.4,3,.48,20.17,1.92,40.26,1.39,59.89-3.86,14.58-3.9,28.91-8.72,43.29-13.34,8.21-2.64,16.29-5.71,24.44-8.57a12.21,12.21,0,0,1,9.42.29c-3.14,4.62-6,8.8-8.83,13a66.34,66.34,0,0,0-3.83,6.15c-3,5.76-5.34,11.92-8.88,17.31-6.28,9.54-12.16,19.25-16.52,29.81-3.89,9.42-7.82,18.85-11.21,28.47-7.49,21.29-14.22,42.83-17.66,65.23C130.2,529,130.05,530.53,129.84,532.26ZM645.35,340.79a10.8,10.8,0,0,0-.71,1c-2.34,5.5-4.6,11-7,16.51-22.4,50.68-41,102.67-54.19,156.55-.75,3.09,0,4.43,2.73,5.44a57.8,57.8,0,0,0,24,3.34c16.56-1.11,30.74-8,43.79-17.76a47.94,47.94,0,0,0,18.65-29.37,101.78,101.78,0,0,0,1.91-22.19c-.52-37-9.47-72.15-25.19-105.6C648.11,346.17,646.8,343.68,645.35,340.79ZM355,379.25c-.57.76-.88,1.24-1.24,1.67Q333,405.17,312.32,429.46a6.83,6.83,0,0,0-1.64,3.91c-.36,11.64-1,23.31-.67,34.94a44.85,44.85,0,0,0,12.29,30.21c16,16.57,35.56,26,59.07,25,5.85-.24,11.62-2.42,17.4-3.82,2.09-.51,2.46-1.85,1.92-4-11.35-45.57-25.72-90.14-44.2-133.35C356.12,381.5,355.68,380.66,355,379.25Zm361.1,361.81c-.43-1.24-.68-2.18-1.07-3-8-17.7-15.9-35.42-24-53.07-2.39-5.21-5.21-9.91-10.14-13.62-6.35-4.8-12.88-8.73-20.56-10.64a38.08,38.08,0,0,0-7.19-.62c-7.67-.39-15.4-1.27-22.42,3.14-2.54,1.59-5.54,2.57-7.81,4.45-5.69,4.7-6.44,11.47-6.28,18.2a58.3,58.3,0,0,0,2,13.11,141.42,141.42,0,0,0,5.64,17.68,112.58,112.58,0,0,0,7.44,14.44c2.2,3.79,5.06,7,10,7.17q36.45,1.5,72.89,3.07A9.62,9.62,0,0,0,716.12,741.06Zm-448.45,0a8.56,8.56,0,0,0,1.41.29q36.57-1.53,73.13-3.08a10.74,10.74,0,0,0,9.49-6.41c3.89-7.79,7.75-15.6,11.14-23.6a62.16,62.16,0,0,0,4.46-27.35c-.2-4.62-1.35-9.3-5.31-12.16-6.39-4.61-12.83-9-21.48-8.71-7.19.27-14.55-.57-21.26,2.4a92.21,92.21,0,0,0-15.55,9c-3.17,2.23-6.41,5.16-8.11,8.53-7.3,14.53-14.12,29.3-20.95,44.07C272.1,729.46,270,735.17,267.67,741ZM491.89,843.14c.89-1.18,1.53-1.92,2.06-2.73,7.15-10.8,14.36-21.55,21.4-32.41A99.79,99.79,0,0,0,528,778c2.88-11.39.72-22-8.11-30.26-2.76-2.6-6.61-4.11-10.09-5.84-8.36-4.16-17.2-5.64-26.28-3.19-4.78,1.28-9.3,3.52-13.91,5.42-6.86,2.83-10.73,8.32-13,15.08-2.46,7.31-2.07,14.55.07,22,5.07,17.59,15.24,32.39,25.16,47.36C485,833.38,488.39,838.08,491.89,843.14ZM793.34,586.65c.28,1.94.45,3.06.6,4.19,1.13,8.85-3.43,15.52-12.23,16.55a44.75,44.75,0,0,1-14-.91c-12.77-2.61-25.45-5.69-38.17-8.57-1-.23-2-.37-2.81-.52,1.14,14,2.26,27.75,3.39,41.67,27.54-11.23,54.18-24.19,78-43.11ZM175.75,596c23.91,18.91,50.56,31.93,78.05,43.08,1.13-14,2.26-27.77,3.39-41.76L254,598c-11.18,2.58-22.32,5.29-33.54,7.69a91,91,0,0,1-15.12,2.07c-10.34.42-16.73-7-15.3-17.27.14-1,.29-2,.55-3.84Z"/><path class="cls-5" d="M355,379.25c.67,1.41,1.1,2.25,1.47,3.12,18.48,43.21,32.85,87.78,44.2,133.35.55,2.17.18,3.51-1.91,4-5.78,1.4-11.56,3.58-17.41,3.82-23.51,1-43.11-8.47-59.06-25A44.86,44.86,0,0,1,310,468.31c-.32-11.63.31-23.3.67-34.94a6.89,6.89,0,0,1,1.64-3.91Q333,405.13,353.8,380.92C354.17,380.49,354.47,380,355,379.25Z"/><path class="cls-5" d="M716.14,741.06a9.23,9.23,0,0,1-1.48.26q-36.43-1.53-72.88-3.07c-5-.2-7.82-3.38-10-7.17a113.87,113.87,0,0,1-7.44-14.44A143.05,143.05,0,0,1,618.68,699a58.88,58.88,0,0,1-2-13.11c-.16-6.73.6-13.5,6.28-18.2,2.27-1.88,5.27-2.86,7.81-4.45,7-4.41,14.75-3.53,22.42-3.14a38,38,0,0,1,7.19.62c7.68,1.91,14.22,5.84,20.57,10.64,4.92,3.71,7.75,8.41,10.13,13.62,8.08,17.65,16,35.37,24,53.07C715.47,738.88,715.72,739.82,716.14,741.06Z"/><path class="cls-5" d="M267.69,741c2.37-5.85,4.44-11.56,7-17,6.82-14.77,13.64-29.54,20.95-44.07,1.69-3.37,4.94-6.3,8.1-8.53a92.61,92.61,0,0,1,15.55-9c6.71-3,14.08-2.13,21.27-2.4,8.64-.32,15.08,4.1,21.47,8.71,4,2.86,5.11,7.54,5.31,12.16.42,9.4-.76,18.66-4.45,27.35-3.4,8-7.26,15.81-11.14,23.6a10.76,10.76,0,0,1-9.49,6.41q-36.57,1.57-73.14,3.08A8.77,8.77,0,0,1,267.69,741Z"/><path class="cls-5" d="M491.92,843.14c-3.5-5.06-6.87-9.76-10.06-14.58-9.91-15-20.09-29.77-25.16-47.36-2.13-7.42-2.53-14.66-.06-22,2.28-6.76,6.15-12.25,13-15.08,4.6-1.9,9.13-4.14,13.9-5.42,9.08-2.45,17.92-1,26.28,3.19,3.49,1.73,7.33,3.24,10.09,5.84,8.84,8.28,11,18.87,8.11,30.26a99.54,99.54,0,0,1-12.66,30c-7,10.86-14.25,21.61-21.39,32.41C493.44,841.22,492.81,842,491.92,843.14Z"/><path class="cls-5" d="M793.36,586.65,808.2,596c-23.84,18.92-50.49,31.88-78,43.11-1.14-13.92-2.26-27.64-3.4-41.67.83.15,1.83.29,2.82.52,12.71,2.88,25.39,6,38.16,8.57a44.77,44.77,0,0,0,14,.91c8.8-1,13.37-7.7,12.23-16.55C793.82,589.71,793.64,588.59,793.36,586.65Z"/><path class="cls-5" d="M175.77,596l14.86-9.32c-.26,1.82-.4,2.83-.54,3.84-1.44,10.25,5,17.69,15.29,17.27a90.74,90.74,0,0,0,15.12-2.07c11.22-2.4,22.37-5.11,33.54-7.69l3.18-.71c-1.14,14-2.26,27.78-3.4,41.76C226.33,627.89,199.69,614.87,175.77,596Z"/><path d="M492.31,588.71a58.19,58.19,0,0,1,24.47,2.9c10.11,3.44,18.35,9.65,25.34,17.55a11.84,11.84,0,0,1,.77,15.25c-4,5.36-8.16,11-13.33,15.12a213.62,213.62,0,0,1-25,16.9c-7.63,4.53-16,4.61-24,.6-13-6.5-24.86-14.61-34.53-25.59a51.15,51.15,0,0,1-5.53-8,12.27,12.27,0,0,1,1.74-14.74c12.17-13.43,27.14-20.68,45.5-20.24C489.08,588.53,490.45,588.62,492.31,588.71Z"/><path class="cls-6" d="M709.86,226.83A143.66,143.66,0,0,1,706.07,254c-1.7,6.67-5.61,12.81-8.74,19.08-1,2.06-1.31,5.75-4.61,4.94-1.69-.42-2.86-3.11-4.16-4.86-4.42-5.94-8.65-12-13.24-17.84a97,97,0,0,0-9-9.61c-9.15-8.81-18.92-16.72-31.47-20.31a1.79,1.79,0,0,1-1-1.44,4.53,4.53,0,0,1,1.36-2.55c6.08-4,12.36-7.77,18.34-11.93a128.89,128.89,0,0,0,11-9c8.34-7.3,16.13-15.14,21.8-24.77,2.77-4.7,5.18-9.61,7.91-14.7,4.54,1.35,7.13,5.05,8.61,9.42,3.32,9.85,6,19.89,6.48,30.34C709.78,209.45,710.38,218.18,709.86,226.83Z"/></g></g></svg>