<svg xmlns="http://www.w3.org/2000/svg" viewBox="0 0 815.73 849.38"><g id="Layer_2" data-name="Layer 2"><g id="Layer_1-2" data-name="Layer 1"><path d="M175.76,503.44c-27.73,19.17-58.4,27.13-91.12,30.63-.13-4.79-.52-9.39-.33-14,.59-14,1.35-27.89,2.13-41.83.94-16.85,6.35-32.63,12.17-48.2,5.46-14.59,11.82-28.85,17.78-43.25.19-.44.37-.88.8-1.92-1.54.39-2.6.69-3.67.92-11.31,2.41-22.56,5.11-33.94,7.12-7.91,1.4-16,.79-24,.06-4-.36-8,0-11.92-.33-5.34-.49-10.65-1.29-15.95-2.1-8.21-1.25-16.4-2.66-24.6-3.94-3.24-.51-3.74-1.31-2.45-4.34,2.22-5.21,4.16-10.55,6.71-15.58,3.07-6.07,6.78-11.81,10-17.82,2.68-5,4.91-10.32,7.57-15.36,1.88-3.56,4.23-6.87,6.24-10.36,2.68-4.67,4.83-9.71,8-14.05,7.08-9.86,14.36-19.61,22-29,22.26-27.33,46.71-52.44,75.52-73,4.79-3.41,9.73-6.61,15-10.16-3.75-3.7-7.48-7.42-11.25-11.11-5.8-5.66-11.89-11-17.35-17-6.44-7-12.46-14.46-18.43-21.9a79.54,79.54,0,0,1-6.24-9.75c-6.27-10.74-12.59-21.45-18.64-32.32-3-5.47-5.66-11.19-8.26-16.9-2-4.47-3.76-9.09-5.58-13.67a7,7,0,0,1-.16-1.8c7.53-2.17,15-4.28,22.37-6.43C93.07,64.63,98,63,102.94,61.7c8.37-2.13,16.72-4.49,25.21-6,49.62-8.72,98.17-2.7,146,11.43,28.51,8.43,56.86,17.44,84,29.81a313.35,313.35,0,0,1,64,39.48c.67.52,1.38,1,2.5,1.8.79-15.18,1.56-29.91,2.35-44.93-.65-.06-1.38-.17-2.12-.17-35.24.12-66.56-11.3-94.57-32.32-3.94-3-7.37-6.39-8.48-11.61a13.76,13.76,0,0,1,3.09-12.58A90.26,90.26,0,0,1,361.8,10.69,153.81,153.81,0,0,1,417.57.05c18.2,0,34.52,5.6,48.5,17.49.28.25.6.46,1,.74A72.6,72.6,0,0,1,498.7,2.05c14.65-3.37,29.24-2.14,43.82.5,18.23,3.3,35.79,8.44,50.83,19.72a128.42,128.42,0,0,1,15.37,14c5.68,5.93,5.78,14.54-.34,20a130.13,130.13,0,0,1-20.49,15.16c-22.33,13.16-46.5,20.68-72.54,21.71-2.71.11-5.43,0-8.23,0,.78,15.23,1.56,30.27,2.34,45.48a11.09,11.09,0,0,0,1.48.28c11.76.33,23.54,1,35.29.73,3.65-.1,7.49-2.51,10.8-4.57A617.42,617.42,0,0,1,639.31,92a193.62,193.62,0,0,1,43-13c17-3,32,5.23,38.64,21.3,5,12.07,6.84,24.94,8.78,37.74,5.21,34.38,3.7,68.7-1.53,102.9-2.91,19-6.61,37.86-9.9,56.8-.47,2.7-.45,5.48-1,8.16s.63,3.92,2.59,5.28c24.39,16.87,44.87,38,64.33,60.11,6.36,7.24,10.4,15.92,14.26,24.61,2.87,6.45.72,13.86-5.57,18.23a109.54,109.54,0,0,1-17.32,9.89c-11.7,5.3-23.66,10-35.5,15-1,.41-2,.85-3.1,1.33.24.73.37,1.38.64,2,12.38,26.52,20.14,54.4,24.52,83.27.39,2.51,1.56,3.67,3.69,5,14.66,9.1,29.48,18,43.57,27.9,7.67,5.39,8.76,15.31.74,23-11.37,10.91-24.39,19.72-37.76,28-19.36,11.94-40.1,21.06-61.07,29.69-2.78,1.14-6.47,1.15-8.38,3s-1.72,5.48-2.75,8.22a52.58,52.58,0,0,1-3.73,8,4.76,4.76,0,0,0-.21,4.87q12,28.45,23.75,57a28.44,28.44,0,0,1,1.8,7.69,12.57,12.57,0,0,1-10.26,13.72,19.74,19.74,0,0,1-4.38.49q-43.82-1.46-87.63-3c-3.81-.14-7.6-.92-11.41-1.21a5.83,5.83,0,0,0-3.53.79c-16.41,11.72-34.72,19.37-53.85,25.25-8.44,2.6-16.93,5-25.38,7.56a3.14,3.14,0,0,0-1.91,1.47c-7.66,21.14-21.27,38.79-33.73,57.08a121.94,121.94,0,0,1-12.2,14.68,14.6,14.6,0,0,1-21.08.12c-8.6-8.59-15.31-18.64-21.9-28.74-8.95-13.69-18.51-27.07-24-42.76-.31-.89-1.72-1.69-2.78-2-21.09-6.17-42.34-11.92-61.81-22.5-5.5-3-10.67-6.58-16.06-9.8a6.6,6.6,0,0,0-3.73-1.18c-25.07,3.18-50.31,3-75.5,3.83-7.74.27-15.49.36-23.24.44-4.87,0-9.4-1-12.63-5-3.63-4.6-3.55-9.79-1.58-14.81,6.53-16.61,13.29-33.13,20-49.65,1.48-3.62,3.88-7,4.78-10.72,1-4-3.12-6.81-4.06-10.55-.81-3.22-1.08-7.19-3.16-9.3s-6.15-2.09-9.21-3.34c-31-12.6-60.93-27.16-87.29-48.17-3.52-2.81-7-5.74-10.28-8.79-8-7.39-7.16-18.09,1.65-24.47a470,470,0,0,1,44.06-27.71,3,3,0,0,0,1.47-1.61C172.78,520.21,174.17,512.32,175.76,503.44Zm-70.88,3.82a14.67,14.67,0,0,0,1.81-.28c15.48-4.86,30.6-10.55,44.78-18.55,26.4-14.92,49.59-34.06,71.7-54.61,27.27-25.34,51.28-53.74,76.27-81.22q11.94-13.11,23.68-26.4c7.25-8.25,14.43-16.55,21.45-25,6.84-8.2,13.65-16.44,20.09-25,5.76-7.61,11-15.61,16.46-23.44,5.25-7.52,10.58-15,15.72-22.58,2.6-3.84,4.74-8,7.32-11.87,4.4-6.61,9-13.11,13.51-19.63.29-.42.92-.61,1.38-.9l.89.68-37.48,74.27c5.89,5.84,12.26,11.32,17.6,17.66,8.2,9.74,15.67,20.1,23.5,30.16,15.4,19.79,29.49,40.4,39.69,63.46.55,1.25,2.55,2.7,3.76,2.61a6,6,0,0,0,3.91-2.9c5.8-10.46,10.54-21.6,17.23-31.43,13-19.12,26.69-37.82,40.82-56.14,13.48-17.47,30.64-31,50.26-41,19.89-10.16,39.37-9.32,57.55,4.39,7.81,5.9,14.6,13,19.19,21.68,6.24,11.76,12.27,23.7,17.39,36,14.34,34.42,22.24,70.26,21.8,107.7-.31,26.32-5.53,51.29-21.32,73.1-11.08,15.3-24.25,28-43,33.51a104.23,104.23,0,0,1-36.71,3.73C576,534.06,558.44,530,541.2,524.46c-14.39-4.6-28.76-9.26-43.06-14.12a93.51,93.51,0,0,0-62.06,0c-13,4.44-26.08,8.6-39.13,12.88-18.51,6.06-37.34,10.77-56.84,12.11-28.8,2-54-5.48-73.21-28.41-12.31-14.72-20.9-31.25-24.64-50.17-.28-1.41-.61-2.81-1-4.53-.87.7-1.41,1.1-1.91,1.54-9.18,8-18.31,16-27.59,23.87A13.27,13.27,0,0,0,207.5,484c-7.4,22.89-10.6,46.64-14.42,70.26,0,.14.16.32.36.68.88-.17,1.83-.31,2.76-.53,10.41-2.43,20.77-5.14,31.25-7.25,12.29-2.47,24.72-4.29,37-6.64,8.4-1.61,14.61,1.56,17.26,9.65,2.88,8.76,5.48,17.61,8.28,26.4,1.16,3.62,2.53,7.17,3.92,11,2.58-.89,4.88-1.64,7.16-2.47,19.75-7.22,39.72-13.61,60.55-17A15.28,15.28,0,0,1,372.1,570c3.47,2,5.38,5,7,8.43,6.77,14.3,14.23,28.17,24.2,40.6,8.27,10.3,18.56,17.36,31.33,20.74,17.49,4.63,35.05,7.91,53.05,2.7a36.55,36.55,0,0,1,3.75-.74c18-3.13,32.19-12.13,42.8-27.12,8.31-11.75,15.06-24.33,21.25-37.26,3.64-7.59,9.6-10.44,17.79-9a293.83,293.83,0,0,1,50.24,13.49c5.43,2,10.89,3.81,16.56,5.79.92-2.51,1.83-4.78,2.57-7.1,3.28-10.28,6.42-20.6,9.8-30.85,2.19-6.63,8.1-10.49,14.43-9.68,5,.65,10.14,1.18,15.12,2.23,18.32,3.89,36.6,8,54.9,12,1.29.28,2.6.49,3.87.72a3.41,3.41,0,0,0,.2-.88c-.77-4.84-1.66-9.67-2.33-14.52-4.71-34.38-13.88-67.41-29.76-98.41a17.51,17.51,0,0,1-1-2.47c-2.73-8.17.46-14.39,8.41-17.62,17.08-7,34-14.16,51-21.28,1.23-.51,2.38-1.2,3.72-1.89A24.46,24.46,0,0,0,769,394c-4.91-6-9.84-11.93-14.9-17.77-16.89-19.46-36.4-36-57.7-50.36-5.17-3.5-6.74-8.65-6.12-14.39.84-7.79,2.07-15.55,3.42-23.27,3.23-18.55,7.09-37,9.86-55.6,5-33.88,5.67-67.82-.89-101.63a182,182,0,0,0-4.88-19.69c-2-6.27-5.67-8.42-12-6.82-10.16,2.58-20.35,5.24-30.2,8.75-23.11,8.22-44.29,20.54-65.76,32.16-9,4.88-17.55,10.74-26.08,16.49-3,2.06-6,3.67-9.68,3.6-19.1-.35-38.2-.61-57.29-1.12-2.79-.07-6.14-.52-8.17-2.12a14.21,14.21,0,0,1-4.78-7.81c-1.53-8-2.45-16.07-3.26-24.16-1.8-18-3.35-36.13-5.06-54.2-.42-4.5.58-8.42,4.36-11.17,4.22-3.07,8.89-5.08,13.9-2.21,8,4.6,16.64,5.49,25.61,4.71C539.66,65.63,558.44,59.17,576,49c1.85-1.07,3.64-2.25,5.78-3.59-1.9-1.36-3.41-2.59-5.06-3.61-19.94-12.38-42-16.47-65-15.83a45.66,45.66,0,0,0-14.6,2.79,102.47,102.47,0,0,0-28.33,16.06,3.46,3.46,0,0,1-3.12,0c-2-1.17-3.66-3-5.7-4.09-8-4.28-15.68-9.37-24.13-12.24-7-2.36-14.85-2.76-22.32-2.7-13.22.12-26.08,3.15-38.62,7.26A70.49,70.49,0,0,0,352.4,45.39c.47.33.71.5,1,.66,20.45,13,42.6,20.77,66.95,21.57,6.25.2,12.49-.68,17.89-4,5.84-3.55,11-2.51,16,1.19,4.06,3,4.69,7.32,4.23,12.13-1.8,18.84-3.33,37.71-5.18,56.55a166.71,166.71,0,0,1-3.2,21.49c-1.15,4.92-4,9.29-10.12,9.34-5.2.05-10.49,1.47-15.54-1-5.4-2.61-10.88-5.05-16.18-7.85a137.4,137.4,0,0,1-14.39-8.39c-20.58-14.25-42.2-26.54-65.81-35-17.83-6.38-35.77-12.42-53.77-18.27C226.87,78.47,178.45,73.43,129,80.39c-12.29,1.73-24.45,4.48-37.22,6.86,1,1.67,1.48,2.7,2.12,3.65,3.89,5.78,7.67,11.63,11.74,17.28q9.31,13,19,25.66c3.33,4.37,7,8.47,10.54,12.71,5.49,6.64,10.6,13.63,16.51,19.87,6.82,7.19,14.26,13.8,21.57,20.52,3.92,3.6,8.15,6.88,12.44,10.48-3.06,2.2-5.92,4.12-8.63,6.24-5.67,4.44-11.28,9-16.87,13.49-5.09,4.13-10.27,8.17-15.14,12.54-5.68,5.09-11.16,10.4-16.57,15.77-9.69,9.62-19.39,19.25-28.86,29.1-6.79,7.07-13.3,14.44-19.77,21.81-4.59,5.23-9,10.61-13.31,16.08-3.45,4.39-6.59,9-9.9,13.55-1.43,1.95-3.11,3.74-4.39,5.79-3.28,5.28-6.54,10.58-9.56,16-3.54,6.39-6.83,12.92-10.39,19.69,1.36.22,2.2.4,3,.48,20.17,1.92,40.26,1.39,59.9-3.86,14.57-3.9,28.91-8.72,43.28-13.34,8.22-2.64,16.29-5.71,24.44-8.57a12.21,12.21,0,0,1,9.42.29c-3.14,4.62-6,8.8-8.83,13a66.24,66.24,0,0,0-3.82,6.15c-3,5.76-5.34,11.92-8.89,17.31-6.28,9.54-12.15,19.25-16.51,29.81-3.89,9.42-7.83,18.85-11.21,28.47-7.5,21.29-14.23,42.83-17.67,65.23C105.25,504,105.1,505.53,104.88,507.26ZM620.39,315.79a9.61,9.61,0,0,0-.7,1c-2.34,5.5-4.61,11-7,16.51-22.4,50.68-41,102.67-54.2,156.55-.75,3.09,0,4.43,2.74,5.44a57.78,57.78,0,0,0,24,3.34c16.55-1.11,30.73-8.05,43.78-17.76a48,48,0,0,0,18.66-29.37,101.16,101.16,0,0,0,1.9-22.19c-.51-37-9.46-72.15-25.19-105.6C623.16,321.17,621.84,318.68,620.39,315.79ZM330.06,354.25c-.56.76-.87,1.24-1.24,1.67q-20.74,24.25-41.46,48.54a6.89,6.89,0,0,0-1.64,3.91c-.36,11.64-1,23.31-.67,34.94a44.86,44.86,0,0,0,12.3,30.21c15.95,16.57,35.55,26,59.06,25,5.85-.24,11.63-2.42,17.41-3.82,2.09-.51,2.46-1.85,1.91-4-11.35-45.57-25.72-90.14-44.2-133.35C331.16,356.5,330.73,355.66,330.06,354.25Zm361.1,361.81c-.42-1.24-.67-2.18-1.07-3-8-17.7-15.89-35.42-24-53.07-2.38-5.21-5.21-9.91-10.13-13.62-6.35-4.8-12.89-8.73-20.56-10.64a38.18,38.18,0,0,0-7.2-.62c-7.66-.39-15.39-1.27-22.42,3.14-2.54,1.59-5.54,2.57-7.81,4.45-5.68,4.7-6.44,11.47-6.28,18.2a58.88,58.88,0,0,0,2,13.11,143.05,143.05,0,0,0,5.63,17.68,113.87,113.87,0,0,0,7.44,14.44c2.21,3.79,5.07,7,10,7.17q36.44,1.5,72.88,3.07A9.23,9.23,0,0,0,691.16,716.06Zm-448.45,0a8.77,8.77,0,0,0,1.41.29q36.57-1.53,73.14-3.08a10.76,10.76,0,0,0,9.49-6.41c3.88-7.79,7.74-15.6,11.14-23.6,3.69-8.69,4.87-18,4.46-27.35-.21-4.62-1.36-9.3-5.32-12.16-6.38-4.61-12.82-9-21.47-8.71-7.19.27-14.55-.57-21.27,2.4a92.61,92.61,0,0,0-15.55,9c-3.16,2.23-6.41,5.16-8.1,8.53-7.31,14.53-14.13,29.3-20.95,44.07C247.15,704.46,245.09,710.17,242.71,716ZM466.94,818.14c.89-1.18,1.52-1.92,2.06-2.73,7.14-10.8,14.35-21.55,21.39-32.41a99.54,99.54,0,0,0,12.66-30c2.89-11.39.73-22-8.11-30.26-2.76-2.6-6.6-4.11-10.09-5.84-8.36-4.16-17.2-5.64-26.28-3.19-4.77,1.28-9.3,3.52-13.9,5.42-6.86,2.83-10.73,8.32-13,15.08-2.47,7.31-2.07,14.55.07,22,5.06,17.59,15.24,32.39,25.15,47.36C460.07,808.38,463.44,813.08,466.94,818.14ZM768.38,561.65c.28,1.94.46,3.06.6,4.19,1.14,8.85-3.43,15.52-12.23,16.55a44.77,44.77,0,0,1-14-.91c-12.77-2.61-25.45-5.69-38.16-8.57-1-.23-2-.37-2.82-.52,1.14,14,2.26,27.75,3.4,41.67,27.53-11.23,54.18-24.19,78-43.11ZM150.79,571c23.92,18.91,50.56,31.93,78.05,43.09,1.14-14,2.26-27.78,3.4-41.77l-3.18.71c-11.17,2.58-22.32,5.29-33.54,7.69a90.74,90.74,0,0,1-15.12,2.07c-10.33.42-16.73-7-15.29-17.27.14-1,.28-2,.54-3.84Z"/><path d="M175.74,503.44c-27.74,19.17-58.41,27.13-91.12,30.63-.13-4.79-.52-9.39-.33-14,.58-14,1.35-27.89,2.13-41.83.94-16.85,6.35-32.63,12.17-48.2,5.45-14.59,11.82-28.85,17.78-43.25l.79-1.92c-1.54.39-2.59.69-3.66.92-11.31,2.41-22.57,5.11-33.94,7.12-7.91,1.4-16,.79-24,.06-4-.36-8,0-11.91-.33-5.34-.49-10.65-1.29-15.95-2.1-8.21-1.25-16.4-2.66-24.61-3.94-3.23-.51-3.73-1.31-2.44-4.34,2.22-5.21,4.16-10.55,6.71-15.58,3.07-6.07,6.78-11.81,10-17.82,2.68-5,4.91-10.32,7.57-15.36,1.88-3.56,4.22-6.87,6.23-10.36,2.69-4.67,4.84-9.71,8-14.05,7.09-9.86,14.37-19.61,22-29,22.25-27.33,46.71-52.44,75.52-73,4.79-3.41,9.73-6.61,15-10.16-3.74-3.7-7.48-7.42-11.25-11.11-5.79-5.66-11.88-11-17.35-17-6.44-7-12.46-14.46-18.43-21.9a79.47,79.47,0,0,1-6.23-9.75c-6.27-10.74-12.59-21.45-18.64-32.32-3-5.47-5.66-11.19-8.26-16.9-2-4.47-3.76-9.09-5.58-13.67a6.54,6.54,0,0,1-.16-1.8c7.53-2.17,15-4.28,22.37-6.43,4.94-1.43,9.83-3.08,14.81-4.36,8.36-2.13,16.71-4.49,25.2-6,49.63-8.72,98.18-2.7,146,11.43C302.65,75.58,331,84.59,358.1,97a313.28,313.28,0,0,1,63.95,39.48c.67.52,1.39,1,2.51,1.8.79-15.18,1.56-29.91,2.34-44.93-.64-.06-1.38-.17-2.11-.17-35.25.12-66.56-11.3-94.57-32.32-4-3-7.37-6.39-8.49-11.61a13.76,13.76,0,0,1,3.1-12.58,90.19,90.19,0,0,1,36.95-25.94A153.77,153.77,0,0,1,417.55.05c18.19,0,34.51,5.6,48.49,17.49.29.25.61.46,1,.74A72.58,72.58,0,0,1,498.68,2.05c14.64-3.37,29.23-2.14,43.82.5,18.22,3.3,35.79,8.44,50.83,19.72a129.19,129.19,0,0,1,15.37,14c5.68,5.93,5.77,14.54-.35,20a129.59,129.59,0,0,1-20.48,15.16c-22.34,13.16-46.51,20.68-72.54,21.71-2.71.11-5.43,0-8.24,0,.79,15.23,1.56,30.27,2.34,45.48a11.72,11.72,0,0,0,1.48.28c11.77.33,23.55,1,35.3.73,3.65-.1,7.49-2.51,10.79-4.57A617.42,617.42,0,0,1,639.28,92a193.94,193.94,0,0,1,43-13c17.05-3,32,5.23,38.64,21.3,5,12.07,6.85,24.94,8.79,37.74,5.21,34.38,3.69,68.7-1.54,102.9-2.9,19-6.6,37.86-9.89,56.8-.47,2.7-.46,5.48-1,8.16s.63,3.92,2.58,5.28c24.4,16.87,44.88,38,64.34,60.11,6.36,7.24,10.39,15.92,14.26,24.61,2.87,6.45.72,13.86-5.57,18.23a109.63,109.63,0,0,1-17.33,9.89c-11.69,5.3-23.65,10-35.5,15-1,.41-2,.85-3.09,1.33a18.48,18.48,0,0,0,.64,2c12.37,26.52,20.13,54.4,24.52,83.27.38,2.51,1.56,3.67,3.68,5,14.66,9.1,29.48,18,43.58,27.9,7.67,5.39,8.76,15.31.74,23-11.38,10.91-24.39,19.72-37.77,28-19.35,11.94-40.09,21.06-61.06,29.69-2.78,1.14-6.47,1.15-8.38,3s-1.72,5.48-2.75,8.22a51.68,51.68,0,0,1-3.74,8,4.76,4.76,0,0,0-.2,4.87q12,28.45,23.75,57a28.44,28.44,0,0,1,1.8,7.69,12.58,12.58,0,0,1-10.27,13.72,19.58,19.58,0,0,1-4.37.49q-43.83-1.46-87.64-3c-3.81-.14-7.59-.92-11.4-1.21a5.86,5.86,0,0,0-3.54.79C588.2,750.5,569.89,758.15,550.76,764c-8.43,2.6-16.93,5-25.37,7.56a3.09,3.09,0,0,0-1.91,1.47c-7.66,21.14-21.27,38.79-33.73,57.08a122.89,122.89,0,0,1-12.2,14.68,14.61,14.61,0,0,1-21.09.12c-8.59-8.59-15.3-18.64-21.9-28.74-8.95-13.69-18.51-27.07-23.95-42.76-.31-.89-1.73-1.69-2.78-2-21.09-6.17-42.34-11.92-61.81-22.5-5.51-3-10.68-6.58-16.06-9.8a6.65,6.65,0,0,0-3.73-1.18c-25.07,3.18-50.32,3-75.5,3.83-7.75.27-15.5.36-23.25.44-4.87,0-9.39-1-12.63-5-3.62-4.6-3.54-9.79-1.57-14.81,6.53-16.61,13.28-33.13,20-49.65,1.48-3.62,3.88-7,4.78-10.72,1-4-3.13-6.81-4.06-10.55-.81-3.22-1.09-7.19-3.16-9.3s-6.15-2.09-9.22-3.34c-31-12.6-60.93-27.16-87.28-48.17-3.53-2.81-7-5.74-10.28-8.79-8-7.39-7.16-18.09,1.65-24.47,14.08-10.2,29-19.14,44.05-27.71a3,3,0,0,0,1.48-1.61C172.76,520.21,174.14,512.32,175.74,503.44Zm-70.88,3.82a14.67,14.67,0,0,0,1.81-.28c15.47-4.86,30.6-10.55,44.77-18.55,26.41-14.92,49.6-34.06,71.71-54.61,27.26-25.34,51.28-53.74,76.27-81.22q11.93-13.11,23.68-26.4c7.25-8.25,14.42-16.55,21.45-25,6.84-8.2,13.65-16.44,20.09-25,5.75-7.61,11-15.61,16.46-23.44,5.25-7.52,10.58-15,15.72-22.58,2.6-3.84,4.74-8,7.31-11.87,4.41-6.61,9-13.11,13.52-19.63.29-.42.91-.61,1.38-.9l.89.68c-12.54,24.84-25.08,49.68-37.48,74.27,5.88,5.84,12.25,11.32,17.59,17.66,8.21,9.74,15.68,20.1,23.5,30.16,15.41,19.79,29.5,40.4,39.7,63.46.55,1.25,2.54,2.7,3.75,2.61a6,6,0,0,0,3.91-2.9c5.8-10.46,10.55-21.6,17.24-31.43,13-19.12,26.69-37.82,40.82-56.14,13.48-17.47,30.63-31,50.26-41,19.89-10.16,39.37-9.32,57.55,4.39,7.81,5.9,14.59,13,19.19,21.68,6.24,11.76,12.26,23.7,17.38,36,14.35,34.42,22.24,70.26,21.8,107.7-.31,26.32-5.53,51.29-21.31,73.1-11.08,15.3-24.25,28-43,33.51a104.15,104.15,0,0,1-36.7,3.73c-18.11-1.24-35.68-5.32-52.93-10.84-14.39-4.6-28.76-9.26-43.06-14.12a93.48,93.48,0,0,0-62.05,0c-13,4.44-26.08,8.6-39.13,12.88-18.52,6.06-37.35,10.77-56.85,12.11-28.8,2-54-5.48-73.2-28.41-12.32-14.72-20.9-31.25-24.64-50.17-.28-1.41-.61-2.81-1-4.53-.88.7-1.41,1.1-1.92,1.54-9.18,8-18.3,16-27.58,23.87a13.36,13.36,0,0,0-4.29,6.42c-7.39,22.89-10.59,46.64-14.42,70.26,0,.14.17.32.36.68.88-.17,1.83-.31,2.77-.53,10.41-2.43,20.77-5.14,31.24-7.25,12.3-2.47,24.73-4.29,37.05-6.64,8.4-1.61,14.6,1.56,17.26,9.65,2.88,8.76,5.47,17.61,8.28,26.4,1.15,3.62,2.53,7.17,3.91,11,2.58-.89,4.89-1.64,7.17-2.47,19.75-7.22,39.72-13.61,60.55-17A15.29,15.29,0,0,1,372.08,570c3.46,2,5.37,5,7,8.43,6.76,14.3,14.23,28.17,24.2,40.6,8.26,10.3,18.56,17.36,31.33,20.74,17.49,4.63,35.05,7.91,53.05,2.7a36,36,0,0,1,3.75-.74c18-3.13,32.19-12.13,42.79-27.12,8.32-11.75,15.07-24.33,21.26-37.26,3.63-7.59,9.6-10.44,17.79-9a293.83,293.83,0,0,1,50.24,13.49c5.42,2,10.88,3.81,16.56,5.79.91-2.51,1.83-4.78,2.57-7.1,3.28-10.28,6.41-20.6,9.8-30.85,2.19-6.63,8.1-10.49,14.43-9.68,5,.65,10.14,1.18,15.11,2.23,18.33,3.89,36.61,8,54.91,12,1.29.28,2.6.49,3.87.72a3.93,3.93,0,0,0,.2-.88c-.78-4.84-1.66-9.67-2.33-14.52-4.71-34.38-13.88-67.41-29.76-98.41a17.51,17.51,0,0,1-1-2.47c-2.74-8.17.45-14.39,8.4-17.62,17.08-7,34.05-14.16,51.06-21.28,1.22-.51,2.38-1.2,3.72-1.89a25.29,25.29,0,0,0-2.14-3.88c-4.92-6-9.84-11.93-14.91-17.77-16.89-19.46-36.39-36-57.7-50.36-5.16-3.5-6.73-8.65-6.11-14.39.84-7.79,2.07-15.55,3.42-23.27,3.23-18.55,7.09-37,9.86-55.6,5-33.88,5.67-67.82-.9-101.63a179.65,179.65,0,0,0-4.87-19.69c-2-6.27-5.68-8.42-12-6.82-10.16,2.58-20.35,5.24-30.21,8.75-23.1,8.22-44.29,20.54-65.76,32.16-9,4.88-17.55,10.74-26.07,16.49-3.05,2.06-6,3.67-9.68,3.6-19.1-.35-38.2-.61-57.3-1.12-2.79-.07-6.13-.52-8.16-2.12a14.1,14.1,0,0,1-4.78-7.81c-1.53-8-2.46-16.07-3.26-24.16-1.8-18-3.36-36.13-5.06-54.2-.43-4.5.58-8.42,4.36-11.17,4.22-3.07,8.89-5.08,13.9-2.21,8,4.6,16.64,5.49,25.6,4.71C539.64,65.63,558.41,59.17,576,49c1.86-1.07,3.65-2.25,5.79-3.59-1.9-1.36-3.41-2.59-5.06-3.61-20-12.38-42-16.47-65.05-15.83A45.72,45.72,0,0,0,497,28.73a102.56,102.56,0,0,0-28.32,16.06,3.46,3.46,0,0,1-3.12,0c-2-1.17-3.66-3-5.71-4.09-7.95-4.28-15.67-9.37-24.13-12.24-7-2.36-14.85-2.76-22.31-2.7-13.22.12-26.08,3.15-38.62,7.26a70.54,70.54,0,0,0-22.46,12.34c.48.33.71.5,1,.66,20.46,13,42.6,20.77,67,21.57,6.25.2,12.49-.68,17.89-4,5.83-3.55,11-2.51,16,1.19,4.06,3,4.69,7.32,4.23,12.13-1.8,18.84-3.34,37.71-5.19,56.55A165,165,0,0,1,450,155c-1.14,4.92-4,9.29-10.12,9.34-5.19.05-10.49,1.47-15.53-1-5.4-2.61-10.88-5.05-16.18-7.85a138.58,138.58,0,0,1-14.4-8.39c-20.57-14.25-42.2-26.54-65.81-35-17.82-6.38-35.76-12.42-53.77-18.27C226.85,78.47,178.43,73.43,129,80.39c-12.3,1.73-24.45,4.48-37.22,6.86,1,1.67,1.48,2.7,2.12,3.65,3.88,5.78,7.66,11.63,11.73,17.28q9.33,13,19,25.66c3.34,4.37,7,8.47,10.54,12.71,5.49,6.64,10.61,13.63,16.52,19.87,6.82,7.19,14.26,13.8,21.57,20.52,3.92,3.6,8.14,6.88,12.44,10.48-3.06,2.2-5.93,4.12-8.63,6.24-5.67,4.44-11.28,9-16.87,13.49-5.09,4.13-10.27,8.17-15.15,12.54-5.67,5.09-11.15,10.4-16.56,15.77-9.69,9.62-19.39,19.25-28.86,29.1-6.8,7.07-13.3,14.44-19.77,21.81-4.59,5.23-9,10.61-13.32,16.08-3.45,4.39-6.58,9-9.89,13.55-1.43,1.95-3.12,3.74-4.39,5.79-3.29,5.28-6.54,10.58-9.56,16-3.55,6.39-6.83,12.92-10.39,19.69,1.35.22,2.2.4,3.05.48,20.17,1.92,40.26,1.39,59.89-3.86,14.58-3.9,28.91-8.72,43.29-13.34,8.21-2.64,16.29-5.71,24.44-8.57a12.21,12.21,0,0,1,9.42.29c-3.14,4.62-6,8.8-8.83,13a66.34,66.34,0,0,0-3.83,6.15c-3,5.76-5.34,11.92-8.88,17.31-6.28,9.54-12.16,19.25-16.51,29.81-3.9,9.42-7.83,18.85-11.22,28.47-7.49,21.29-14.22,42.83-17.66,65.23C105.22,504,105.07,505.53,104.86,507.26ZM620.37,315.79a10.8,10.8,0,0,0-.71,1c-2.34,5.5-4.6,11-7,16.51-22.4,50.68-41,102.67-54.19,156.55-.75,3.09,0,4.43,2.73,5.44a57.8,57.8,0,0,0,24,3.34c16.56-1.11,30.74-8.05,43.79-17.76a47.94,47.94,0,0,0,18.65-29.37,101.78,101.78,0,0,0,1.91-22.19c-.52-37-9.46-72.15-25.19-105.6C623.13,321.17,621.82,318.68,620.37,315.79ZM330,354.25c-.57.76-.88,1.24-1.24,1.67q-20.74,24.25-41.46,48.54a6.83,6.83,0,0,0-1.64,3.91c-.36,11.64-1,23.31-.67,34.94a44.85,44.85,0,0,0,12.29,30.21c16,16.57,35.56,26,59.07,25,5.85-.24,11.62-2.42,17.41-3.82,2.08-.51,2.45-1.85,1.91-4-11.35-45.57-25.72-90.14-44.2-133.35C331.14,356.5,330.7,355.66,330,354.25Zm361.1,361.81c-.43-1.24-.68-2.18-1.07-3-8-17.7-15.89-35.42-24-53.07-2.39-5.21-5.21-9.91-10.14-13.62-6.35-4.8-12.88-8.73-20.56-10.64a38.08,38.08,0,0,0-7.19-.62c-7.67-.39-15.39-1.27-22.42,3.14-2.54,1.59-5.54,2.57-7.81,4.45-5.69,4.7-6.44,11.47-6.28,18.2a58.3,58.3,0,0,0,2,13.11,141.42,141.42,0,0,0,5.64,17.68,112.58,112.58,0,0,0,7.44,14.44c2.2,3.79,5.06,7,10,7.17q36.45,1.5,72.89,3.07A9.62,9.62,0,0,0,691.14,716.06Zm-448.45,0a8.77,8.77,0,0,0,1.41.29q36.57-1.53,73.13-3.08a10.74,10.74,0,0,0,9.49-6.41c3.89-7.79,7.75-15.6,11.14-23.6,3.7-8.69,4.88-18,4.46-27.35-.2-4.62-1.35-9.3-5.31-12.16-6.39-4.61-12.83-9-21.48-8.71-7.19.27-14.55-.57-21.26,2.4a92.21,92.21,0,0,0-15.55,9c-3.17,2.23-6.41,5.16-8.11,8.53-7.3,14.53-14.12,29.3-21,44.07C247.12,704.46,245.06,710.17,242.69,716ZM466.91,818.14c.89-1.18,1.53-1.92,2.06-2.73,7.15-10.8,14.36-21.55,21.4-32.41A99.79,99.79,0,0,0,503,753c2.88-11.39.72-22-8.11-30.26-2.76-2.6-6.61-4.11-10.09-5.84-8.36-4.16-17.2-5.64-26.28-3.19-4.78,1.28-9.3,3.52-13.91,5.42-6.86,2.83-10.73,8.32-13,15.08-2.46,7.31-2.07,14.55.07,22,5.07,17.59,15.24,32.39,25.16,47.36C460.05,808.38,463.41,813.08,466.91,818.14ZM768.36,561.65c.28,1.94.45,3.06.6,4.19,1.13,8.85-3.43,15.52-12.23,16.55a44.75,44.75,0,0,1-14-.91c-12.77-2.61-25.45-5.69-38.16-8.57-1-.23-2-.37-2.82-.52,1.14,14,2.26,27.75,3.39,41.67,27.54-11.23,54.19-24.19,78-43.11ZM150.77,571c23.91,18.91,50.56,31.93,78,43.09,1.13-14,2.26-27.78,3.39-41.77L229,573c-11.18,2.58-22.32,5.29-33.54,7.69a91,91,0,0,1-15.12,2.07c-10.34.42-16.73-7-15.3-17.27.14-1,.29-2,.55-3.84Z"/><path d="M467.33,563.71a58.19,58.19,0,0,1,24.47,2.9c10.11,3.44,18.35,9.65,25.34,17.55a11.84,11.84,0,0,1,.77,15.25c-4,5.36-8.16,11-13.33,15.12a213.62,213.62,0,0,1-25,16.9c-7.63,4.53-16,4.61-24,.6-13-6.5-24.86-14.61-34.53-25.59a51.15,51.15,0,0,1-5.53-8,12.27,12.27,0,0,1,1.74-14.74c12.17-13.43,27.14-20.68,45.5-20.24C464.1,563.53,465.47,563.62,467.33,563.71Z"/><path d="M684.88,201.83A143.66,143.66,0,0,1,681.09,229c-1.7,6.67-5.61,12.81-8.74,19.08-1,2.06-1.31,5.75-4.61,4.94-1.69-.42-2.86-3.11-4.16-4.86-4.42-5.94-8.65-12-13.24-17.84a97,97,0,0,0-9-9.61c-9.15-8.81-18.92-16.72-31.47-20.31a1.79,1.79,0,0,1-1-1.44,4.53,4.53,0,0,1,1.36-2.55c6.08-4,12.36-7.77,18.34-11.93a128.89,128.89,0,0,0,11-9c8.34-7.3,16.13-15.14,21.8-24.77,2.77-4.7,5.18-9.61,7.91-14.7,4.54,1.35,7.13,5.05,8.61,9.42,3.32,9.85,6,19.89,6.48,30.34C684.8,184.45,685.4,193.18,684.88,201.83Z"/></g></g></svg>