<svg xmlns="http://www.w3.org/2000/svg" viewBox="0 0 818.84 394.33"><g id="Layer_2" data-name="Layer 2"><g id="Layer_1-2" data-name="Layer 1"><path d="M245.68,92.91h0m0,0h0m-.16,0h0s0,0,0,0h0"/><path d="M247.71,93l.55,2.32-.89-.08C243.47,148,221.46,197,209.05,248.08c-7,29.94-28.38,73.73,12.14,87.76l.23.1c15.38,8.57,1.82,23.27-9.43,19.25-47.62-16.67-39.64-65.12-26.3-102.56l0-.08c8.35-30.34,17.77-60.2,26.27-90.5,5.16-22.8,16.81-45.53,12.8-69.32a1.23,1.23,0,0,0-.13-.41c-10-20.94-35.53,4.24-43.93,19-13.46,19.82-19.53,52.43-26.58,78.38-4.35,14.89-7.65,30.05-11.48,45.1-9.43,33.47-16.76,67.09-26.5,100.54-3.73,13.33-23.48,8.82-20.37-4,7.83-30.21,15.16-60.47,23.1-90.62,6.37-23.44,11.84-47.3,18.32-70.72,4.15-17.46,11.47-35,9.89-53.36-.59-3.11-4.6-3.65-7.26-3.06-24.5,6.47-35.14,31.3-44.54,56.66C72.05,242.06,50.36,314.48,24.37,385.36a1.05,1.05,0,0,0-.06.24C22.41,398,.24,397,3.67,383.59c4.14-14.33,9.23-28.09,13.84-42.31q23.55-70.11,45.78-140.64c3.46-12.52,26.17-65.36,0-62.14a.64.64,0,0,0-.2,0C51,141.34,42.23,149.46,35.27,161.7l-.06.1c-7.27,9.72-12.28,36.18-23.63,37.63-33.27,1.49,14.9-64.2,23.2-69.15l.18-.13c14.95-13.49,40.41-18.64,55.21-2.88a1.36,1.36,0,0,0,2.11-.16c15.49-21.76,41.75-46.06,68.38-28.48.55.39,1,.66,1.31.85a1.39,1.39,0,0,0,1.75-.31c.86-1,2.21-2.89,2.48-3.35,18.5-31.65,69.71-51.12,81.09-4.62l.6,0s-.2,1.43-.19,1.44A2.81,2.81,0,0,1,247.71,93Z"/><path d="M809.4,201.66c-8.12.42-9.65,13.58-15.58,18.56a1.21,1.21,0,0,0-.21.24c-8.71,13.12-36.9,29.13-40.48,6.2a1.37,1.37,0,0,1,0-.35c1.76-23.25,11.8-46.14,18-69a1.7,1.7,0,0,0,0-.22c1.17-13.79,21.37-39.73,1.09-45l-.33-.06c-14-1-8.93,20.48-19.91,12l-.1-.07C700.3,90.82,648.56,170.8,645.3,216.25a1.31,1.31,0,0,1-.17.55Q642.07,221.95,637,232l0,.08c-7.62,18.82-43.84,55.83-48.59,16.77-2.22-15.8,21.55-72.48,17.28-90.07-4.18-23.73-25.57-18.6-42.06-10.7q-9.45,4.45-34.49,35.2a1.38,1.38,0,0,1-2.43-1.15l4.88-23.7a1.34,1.34,0,0,1,.34-.67C562.67,125.1,594.56,90,606.15,47.24c6-22.48,8.65-51.76-20.29-46.65l-.14,0c-47.69,11.94-41,51.62-72.21,141.67a1.39,1.39,0,0,1-.65.78c-17.17,9.35-44.83,19.11-44.42,27.3,1.21,8.59,4.81,8.9,14.93,5l23.94-9.32a1.39,1.39,0,0,1,1.86,1.57q-6,30-10.66,53.2a1.28,1.28,0,0,1-.38.7c-27.34,26.38-50.44,101.73-108.37,77.16a10.8,10.8,0,0,1-4.23-3.15c-15.43-19.19-7-45.93.58-65.77.36-.94,1.43-3.72,1.77-4.49,1.63-3.63,2.41-4.41,2.41-4.41,13.33-26.29,15.43-27.45,35-31.18.18,0,2.55-.5,2.73-.5,6.55-.23,6.62.28,9.61,2.39,5,3.54,3.34,10.25,9.37,10.62,7.53.54,13.06-8,13.47-15.26a2.44,2.44,0,0,0,0-.27c-1.85-18.61-22-22.11-37.71-17.25l-.1,0c-13.72,2.59-24.58,12-33.14,22.07h0c-7.39,6.28-24.19,16.86-38.55,24.14a1.37,1.37,0,0,1-1.88-.73c-12.91-31.4-47-32.92-72-9.55-18.06,15.86-32,43.27-36,69a.61.61,0,0,0,0,.14c-9.59,131.94,124.47,60.56,112.62-40.58a1.33,1.33,0,0,1,.81-1.41,105,105,0,0,0,11.15-5.64,1.38,1.38,0,0,1,1.91,1.83c-43.22,85.59,53,131.71,110.86,56.68l.1-.14c1.89-3.3,5-5.72,6.52-9.19l3.46-5c-2.71,22-12.82,40.12,5.37,37.88l.25,0c13-3.44,11.19-33.13,26.64-90.73a1.62,1.62,0,0,1,.25-.51q27.24-35.08,36.51-43.22c7.8-6.62,19.41-13.09,25.47-5.61a1.51,1.51,0,0,1,.3.67c2.41,13.48-3.92,19.34-9.48,44.52-7.46,28.31-10.1,39.09-3.74,59.76,4.68,13.37,16,18.57,30.64,16,20.77-4.61,34.57-21.36,48.14-41.36a1.38,1.38,0,0,1,2.39.17c13.25,28,46.47,38.58,82.2.89a1.48,1.48,0,0,1,.58-.37c6.94-2.16,13.41,12.7,27.2,11.09a1.41,1.41,0,0,1,.29,0c25,3.55,78.15-42.54,48.62-58.32A1.47,1.47,0,0,0,809.4,201.66ZM581.28,26.48c20.26.14-13.75,61.82-36.56,93.47a1.39,1.39,0,0,1-2.47-1.12q19.23-88.48,38.68-92.32A2,2,0,0,1,581.28,26.48ZM316.55,207c6.63,1.3,11.69,6.2,15.25,13.65a1.4,1.4,0,0,1-1,2c-12.31,2.21-28.6-3.83-15.43-15.31A1.4,1.4,0,0,1,316.55,207Zm14.85,69.32c-10.84,32.91-35.74,56.85-54.24,52.36l-.23-.07c-36.6-14-15.44-91.45,13.52-112.71a1.38,1.38,0,0,1,2.18,1.1c.25,19.41,24.82,26.17,42.13,22a1.36,1.36,0,0,1,1.67,1.24A95.89,95.89,0,0,1,331.4,276.27Zm336.81-49.1C663,143.86,770.76,96.49,740.06,184.83a1.53,1.53,0,0,0-.07.36c-2,35.64-58.35,106.09-71.75,42.21A.85.85,0,0,1,668.21,227.17Z"/></g></g></svg>